<?xml version="1.0" standalone="no"?>
<!DOCTYPE svg PUBLIC "-//W3C//DTD SVG 1.1//EN" "http://www.w3.org/Graphics/SVG/1.1/DTD/svg11.dtd" >
<svg xmlns="http://www.w3.org/2000/svg" xmlns:xlink="http://www.w3.org/1999/xlink" version="1.1">
<metadata>
Created by FontForge 20170910 at Fri Dec 12 17:18:25 2014
 By Jimmy Wärting
Modern and elegant sans serif font.
</metadata>
<defs>
<font id="Panton-BlackItalic" horiz-adv-x="556" >
  <font-face 
    font-family="Panton Black"
    font-weight="900"
    font-style="italic"
    font-stretch="normal"
    units-per-em="1000"
    panose-1="0 0 10 0 0 0 0 0 0 0"
    ascent="761"
    descent="-239"
    x-height="520"
    cap-height="710"
    bbox="-190.559 -260 1262.83 992.129"
    underline-thickness="50"
    underline-position="-100"
    stemh="161"
    unicode-range="U+0020-FB02"
  />
<missing-glyph horiz-adv-x="686" 
d="M638 668v-626c0 -31 -11 -42 -43 -42h-499c-32 0 -43 11 -43 42v626c0 31 11 42 43 42h499c32 0 43 -11 43 -42zM440 535h-189v-360h189v360z" />
    <glyph glyph-name="fi" unicode="fi" horiz-adv-x="618" 
d="M406 740h213c29 0 37 -10 32 -39l-13 -73c-5 -29 -17 -40 -46 -40h-200c-45 0 -71 -21 -78 -64l-1 -4h268c29 0 36 -10 31 -38l-78 -444c-5 -28 -16 -38 -45 -38h-110c-29 0 -36 10 -31 38l58 330h-120l-58 -330c-5 -28 -17 -38 -46 -38h-108c-29 0 -37 10 -32 38l58 330
h-33c-28 0 -36 10 -31 39l13 75c5 28 16 38 45 38h33v3c25 145 118 217 279 217z" />
    <glyph glyph-name="fl" unicode="fl" horiz-adv-x="619" 
d="M406 740h213c29 0 37 -10 32 -39l-117 -663c-5 -28 -16 -38 -45 -38h-110c-29 0 -36 10 -31 38l97 550h-53c-45 0 -71 -21 -78 -64l-1 -4h40c28 0 36 -10 31 -38l-13 -75c-5 -29 -16 -39 -45 -39h-40l-58 -330c-5 -28 -17 -38 -46 -38h-108c-29 0 -37 10 -32 38l58 330
h-33c-28 0 -36 10 -31 39l13 75c5 28 16 38 45 38h33v4c25 145 124 216 279 216z" />
    <glyph glyph-name=".notdef" horiz-adv-x="686" 
d="M638 668v-626c0 -31 -11 -42 -43 -42h-499c-32 0 -43 11 -43 42v626c0 31 11 42 43 42h499c32 0 43 -11 43 -42zM440 535h-189v-360h189v360z" />
    <glyph glyph-name="NULL" horiz-adv-x="600" 
 />
    <glyph glyph-name="nonmarkingreturn" horiz-adv-x="333" 
 />
    <glyph glyph-name="space" unicode=" " horiz-adv-x="182" 
 />
    <glyph glyph-name="exclam" unicode="!" horiz-adv-x="284" 
d="M170 739h114c28 0 37 -9 32 -37l-94 -431c-7 -29 -16 -38 -44 -38h-81c-28 0 -36 10 -32 38l60 431c4 28 16 37 45 37zM103 183h50c59 0 74 -19 65 -78l-6 -35c-11 -59 -33 -78 -93 -78h-50c-59 0 -74 19 -65 78l6 35c11 59 33 78 93 78z" />
    <glyph glyph-name="quotedbl" unicode="&#x22;" horiz-adv-x="410" 
d="M267 676l-56 -198c-9 -28 -15 -32 -46 -32h-61c-29 0 -34 4 -29 32l35 198c4 29 11 34 40 34h88c29 0 37 -6 29 -34zM448 676l-56 -198c-9 -28 -15 -32 -46 -32h-61c-29 0 -34 4 -29 32l35 198c5 29 12 34 40 34h88c29 0 37 -6 29 -34z" />
    <glyph glyph-name="numbersign" unicode="#" horiz-adv-x="770" 
d="M704 539h59c29 0 34 -9 21 -37l-39 -83c-11 -23 -30 -35 -57 -35h-57l-47 -97h60c29 0 35 -10 22 -37l-41 -83c-13 -27 -28 -36 -57 -36h-58l-43 -93c-12 -25 -31 -38 -56 -38h-91c-29 0 -34 11 -21 38l43 93h-88l-43 -93c-15 -28 -28 -38 -56 -38h-92
c-27 0 -33 13 -20 38l44 93h-59c-28 0 -34 10 -21 38l40 83c13 27 26 35 57 35h57l46 97h-59c-29 0 -35 10 -22 37l40 83c12 27 28 35 57 35h58l45 96c12 25 30 38 55 38h92c29 0 34 -11 21 -38l-46 -96h88l46 96c12 25 31 38 56 38h91c27 0 33 -13 20 -38zM463 384h-88
l-47 -97h88z" />
    <glyph glyph-name="dollar" unicode="$" horiz-adv-x="622" 
d="M349 761h104c28 0 36 -10 31 -38l-6 -34c73 -13 121 -55 142 -126c9 -27 0 -41 -32 -54l-97 -40c-29 -12 -40 -8 -49 21c-12 35 -32 49 -81 49c-59 0 -84 -13 -91 -45c-5 -31 26 -42 95 -51c53 -7 84 -11 133 -33c25 -11 44 -25 58 -40c27 -31 44 -86 32 -157
c-19 -111 -94 -165 -227 -189l-6 -35c-5 -29 -16 -39 -45 -39h-103c-29 0 -37 10 -32 39l5 33c-97 15 -153 61 -167 138c-5 26 7 44 36 53l98 33c31 12 45 7 54 -21c9 -33 39 -49 90 -49c63 0 98 16 104 48c5 31 -25 42 -89 50c-55 8 -83 13 -134 35c-26 11 -46 24 -60 39
c-29 31 -48 85 -36 156c18 101 92 163 222 185l6 34c5 29 16 38 45 38z" />
    <glyph glyph-name="percent" unicode="%" horiz-adv-x="904" 
d="M71 493l13 76c19 97 92 156 207 156s167 -59 150 -156l-13 -76c-17 -96 -91 -154 -206 -154s-168 58 -151 154zM751 710h96c28 0 34 -19 14 -40l-576 -633c-15 -16 -28 -26 -37 -30c-10 -5 -27 -7 -52 -7h-91c-29 0 -34 21 -14 42l577 633c14 15 26 25 35 29s25 6 48 6z
M294 504l10 56c4 24 -8 36 -36 36c-29 0 -45 -12 -49 -36l-10 -56c-5 -25 7 -37 36 -37c27 0 44 12 49 37zM506 140l14 75c16 99 91 157 206 157s167 -58 150 -157l-13 -75c-17 -97 -90 -155 -205 -155s-169 58 -152 155zM730 150l10 56c3 24 -9 36 -36 36
c-30 0 -46 -12 -49 -36l-10 -56c-5 -24 7 -36 36 -36c27 0 44 12 49 36z" />
    <glyph glyph-name="ampersand" unicode="&#x26;" horiz-adv-x="697" 
d="M155 537c19 109 107 188 244 188c57 0 101 -18 134 -54c32 -36 44 -81 35 -134c-13 -74 -58 -132 -135 -174l-11 -5l52 -70l57 48c19 17 36 17 51 0l59 -71c11 -14 7 -29 -11 -44l-64 -54l97 -130c16 -20 7 -37 -24 -37h-129c-28 0 -39 5 -52 22l-27 35
c-77 -55 -135 -72 -210 -72c-141 0 -221 86 -197 222c15 83 66 146 153 191c-25 41 -32 87 -22 139zM408 540c4 25 -10 42 -35 42c-28 0 -48 -19 -52 -46c-4 -21 2 -43 17 -64l22 11c28 15 44 34 48 57zM342 177l-78 103c-37 -17 -58 -42 -63 -74c-7 -39 16 -65 57 -65
c26 0 54 12 84 36z" />
    <glyph glyph-name="quotesingle" unicode="'" horiz-adv-x="228" 
d="M267 676l-56 -198c-9 -28 -15 -32 -46 -32h-61c-29 0 -34 4 -29 32l35 198c4 29 11 34 40 34h88c29 0 37 -6 29 -34z" />
    <glyph glyph-name="parenleft" unicode="(" horiz-adv-x="319" 
d="M45 116l84 479c24 139 90 219 199 266c28 11 39 4 47 -25l31 -102c8 -27 1 -36 -30 -52c-39 -19 -58 -45 -67 -96l-82 -469c-9 -51 0 -77 32 -96c25 -16 29 -25 12 -52l-65 -95c-20 -28 -31 -35 -56 -24c-94 47 -129 135 -105 266z" />
    <glyph glyph-name="parenright" unicode=")" horiz-adv-x="318" 
d="M107 742l65 94c21 29 32 36 57 25c93 -47 129 -127 104 -266l-84 -479c-24 -139 -89 -219 -198 -266c-28 -11 -40 -4 -48 24l-31 103c-7 27 0 36 31 52c40 19 58 45 67 96l82 469c9 51 0 77 -32 96c-25 16 -29 25 -13 52z" />
    <glyph glyph-name="asterisk" unicode="*" horiz-adv-x="349" 
d="M235 680h39c21 0 28 -10 20 -29l-23 -69l68 32c21 11 29 6 33 -15l6 -37c3 -19 -6 -29 -27 -32l-70 -11l40 -49c13 -14 10 -27 -9 -38l-36 -22c-19 -12 -31 -9 -36 8l-20 60l-42 -60c-12 -19 -25 -23 -38 -11l-29 25c-14 11 -13 24 4 38l58 49l-67 11
c-19 3 -24 14 -14 33l18 36c10 20 23 25 40 15l56 -32v69c0 19 10 29 29 29z" />
    <glyph glyph-name="plus" unicode="+" horiz-adv-x="551" 
d="M380 410h127c32 0 40 -11 35 -43l-14 -79c-5 -32 -19 -43 -50 -43h-127l-22 -126c-5 -32 -18 -42 -50 -42h-79c-32 0 -40 10 -35 42l22 126h-125c-32 0 -40 11 -35 43l14 79c5 32 18 43 50 43h125l22 125c5 32 18 42 50 42h79c32 0 40 -10 35 -42z" />
    <glyph glyph-name="comma" unicode="," horiz-adv-x="258" 
d="M201 129l-96 -219c-12 -28 -26 -38 -57 -38h-60c-24 0 -30 6 -25 29l54 228c9 37 23 51 58 51h92c37 0 49 -17 34 -51z" />
    <glyph glyph-name="hyphen" unicode="-" horiz-adv-x="401" 
d="M98 349h231c32 0 40 -10 35 -42l-15 -85c-5 -32 -17 -42 -49 -42h-232c-31 0 -40 10 -35 42l15 85c5 32 18 42 50 42z" />
    <glyph glyph-name="period" unicode="." horiz-adv-x="262" 
d="M101 190h38c60 0 76 -20 65 -79l-7 -41c-11 -59 -33 -78 -92 -78h-38c-60 0 -77 19 -66 78l8 41c11 59 33 79 92 79z" />
    <glyph glyph-name="slash" unicode="/" horiz-adv-x="497" 
d="M558 675l-384 -700c-15 -27 -28 -35 -57 -35h-112c-26 0 -33 12 -20 35l385 700c15 28 28 35 57 35h112c28 0 32 -10 19 -35z" />
    <glyph glyph-name="zero" unicode="0" horiz-adv-x="648" 
d="M53 257l39 219c27 159 146 249 327 249c89 0 154 -25 196 -75s56 -115 42 -196l-39 -219c-28 -160 -144 -250 -324 -250c-89 0 -155 25 -198 75c-43 49 -57 115 -43 197zM421 238l42 235c8 49 -18 77 -73 77s-92 -28 -101 -77l-41 -235c-9 -49 18 -78 73 -78
s91 29 100 78z" />
    <glyph glyph-name="one" unicode="1" horiz-adv-x="446" 
d="M362 710h60c32 0 42 -11 35 -42l-110 -626c-7 -31 -18 -42 -50 -42h-113c-32 0 -42 11 -35 42l74 417l-75 -38c-36 -17 -50 -12 -61 17l-33 85c-9 27 -1 41 30 58l216 112c20 11 41 17 62 17z" />
    <glyph glyph-name="two" unicode="2" horiz-adv-x="613" 
d="M87 550c67 117 169 175 306 175c82 0 143 -22 184 -67c40 -45 54 -101 42 -170c-12 -71 -39 -125 -80 -162s-105 -70 -191 -99c-17 -5 -51 -14 -69 -19c-9 -3 -19 -6 -28 -9c-19 -7 -30 -16 -31 -25l-1 -5h288c32 0 40 -11 35 -43l-15 -84c-7 -31 -18 -42 -50 -42h-451
c-32 0 -40 11 -35 42l16 89c12 64 39 112 90 147c25 17 47 30 65 39c17 9 43 20 77 33c4 1 51 20 57 22c4 2 12 6 24 11c24 11 28 13 46 25c18 11 22 19 33 32s16 28 19 44c7 41 -14 66 -57 66c-41 0 -68 -18 -99 -66c-20 -32 -31 -36 -59 -27l-99 39c-28 11 -33 25 -17 54z
" />
    <glyph glyph-name="three" unicode="3" horiz-adv-x="626" 
d="M617 512c-11 -60 -45 -107 -102 -140c60 -37 83 -94 69 -172c-25 -143 -126 -215 -305 -215c-155 0 -244 58 -267 175c-5 27 7 45 36 54l105 35c31 11 42 4 49 -27c8 -43 38 -65 89 -65c53 0 82 20 89 59s-11 59 -55 59h-61c-32 0 -42 11 -35 42l14 83c7 32 18 43 50 43
h44c45 0 71 18 78 55s-11 55 -58 55c-56 0 -79 -15 -106 -60c-17 -31 -30 -36 -59 -27l-92 35c-27 11 -32 25 -17 54c64 116 160 170 321 170c78 0 136 -20 174 -59c37 -40 50 -91 39 -154z" />
    <glyph glyph-name="four" unicode="4" horiz-adv-x="657" 
d="M551 295h51c31 0 39 -11 34 -42l-12 -70c-5 -31 -18 -42 -50 -42h-50l-18 -99c-5 -31 -18 -42 -50 -42h-102c-32 0 -42 11 -35 42l17 99h-302c-32 0 -40 11 -35 42l11 66c7 35 11 45 34 68l369 363c25 24 38 30 69 30h99c32 0 41 -11 36 -42zM364 295l29 169l-170 -169
h141z" />
    <glyph glyph-name="five" unicode="5" horiz-adv-x="614" 
d="M223 711h366c32 0 40 -11 35 -43l-16 -90c-5 -32 -18 -42 -50 -42h-253l-19 -70h69c88 0 150 -22 187 -67c36 -45 48 -104 35 -175c-25 -143 -136 -239 -309 -239c-160 0 -243 53 -266 165c-5 29 4 42 35 54l114 40c29 11 41 6 48 -25c9 -39 32 -56 88 -56
c49 0 77 25 86 74c8 45 -14 68 -67 68h-209c-35 0 -44 14 -35 49l83 297c13 45 31 60 78 60z" />
    <glyph glyph-name="six" unicode="6" horiz-adv-x="651" 
d="M287 457l-3 -14c27 5 62 8 106 8c191 0 264 -78 237 -235c-27 -152 -146 -231 -330 -231c-187 0 -272 105 -241 281l35 201c30 172 142 258 335 258c145 0 229 -53 252 -159c5 -29 -4 -43 -36 -54l-99 -36c-32 -12 -38 1 -50 28c-13 31 -43 46 -90 46
c-66 0 -105 -31 -116 -93zM254 270l-7 -38c-8 -52 14 -78 79 -78c67 0 97 22 105 65c7 44 -14 63 -82 63c-39 0 -71 -4 -95 -12z" />
    <glyph glyph-name="seven" unicode="7" horiz-adv-x="568" 
d="M156 710h453c32 0 41 -11 36 -42l-12 -68c-5 -22 -12 -42 -23 -59l-326 -504c-20 -31 -33 -37 -85 -37h-111c-26 0 -30 14 -13 42l317 493h-266c-32 0 -40 11 -35 43l16 90c5 31 17 42 49 42z" />
    <glyph glyph-name="eight" unicode="8" horiz-adv-x="647" 
d="M110 520c24 133 136 205 305 205c175 0 256 -78 232 -209c-10 -56 -42 -104 -95 -143c56 -37 77 -95 63 -173c-24 -143 -134 -215 -330 -215c-201 0 -279 79 -256 210c13 70 55 125 128 166c-44 35 -60 88 -47 159zM452 507c7 33 -16 53 -65 53c-46 0 -73 -18 -80 -53
c-5 -33 14 -48 61 -63l28 -8c32 19 51 42 56 71zM412 206c3 22 -7 39 -31 50c-7 3 -36 13 -89 29c-37 -22 -58 -48 -63 -77c-7 -39 19 -60 83 -60c60 0 93 19 100 58z" />
    <glyph glyph-name="nine" unicode="9" horiz-adv-x="651" 
d="M409 253l3 14c-27 -5 -62 -8 -105 -8c-191 0 -265 78 -238 235c28 152 146 231 330 231c187 0 272 -105 241 -281l-35 -201c-30 -172 -141 -258 -334 -258c-147 0 -231 53 -252 159c-5 29 4 43 36 54l99 36c33 8 35 3 50 -28c12 -32 37 -46 89 -46c67 0 105 31 116 93z
M442 440l7 38c9 51 -14 78 -79 78c-62 0 -97 -22 -104 -65c-8 -44 13 -63 81 -63c39 0 71 4 95 12z" />
    <glyph glyph-name="colon" unicode=":" horiz-adv-x="286" 
d="M167 521h38c60 0 75 -19 66 -79l-8 -40c-11 -59 -33 -79 -92 -79h-38c-60 0 -76 20 -65 79l7 40c9 60 33 79 92 79zM115 190h38c59 0 76 -20 65 -79l-7 -41c-11 -59 -33 -78 -93 -78h-38c-59 0 -76 19 -65 78l7 41c11 60 33 79 93 79z" />
    <glyph glyph-name="semicolon" unicode=";" horiz-adv-x="286" 
d="M208 290l-12 -26c-1 -6 -4 -13 -8 -22l-17 -37c-5 -12 -11 -21 -16 -28l-15 -33c13 -17 9 -29 -15 -53l-50 -4c-20 -23 -30 -26 -49 -11l41 151c-10 16 -11 30 -3 43c-3 8 1 21 10 40l28 36c20 37 38 45 69 33l-3 -74l2 -1c15 7 28 3 38 -14z" />
    <glyph glyph-name="less" unicode="&#x3c;" horiz-adv-x="494" 
d="M81 417l379 188c36 17 46 7 39 -32l-17 -95c-8 -44 -16 -53 -51 -69l-174 -78l-1 -4l146 -78c31 -16 36 -24 28 -69l-18 -101c-7 -39 -21 -49 -50 -32l-313 189c-23 13 -29 24 -24 52l13 76c5 28 15 40 43 53z" />
    <glyph glyph-name="equal" unicode="=" horiz-adv-x="597" 
d="M133 523h416c32 0 40 -11 35 -43l-15 -85c-7 -31 -18 -42 -50 -42h-416c-32 0 -40 11 -35 42l15 85c7 32 18 43 50 43zM94 300h416c32 0 40 -11 35 -42l-15 -85c-5 -32 -19 -43 -50 -43h-416c-32 0 -40 11 -35 43l15 85c5 31 18 42 50 42z" />
    <glyph glyph-name="greater" unicode="&#x3e;" horiz-adv-x="495" 
d="M84 485l16 89c7 37 19 47 50 31l312 -188c24 -13 30 -24 25 -52l-13 -77c-5 -28 -15 -39 -43 -52l-379 -189c-37 -16 -46 -7 -39 32l19 109c8 44 17 53 50 68l175 78l1 4l-147 78c-29 16 -35 25 -27 69z" />
    <glyph glyph-name="question" unicode="?" horiz-adv-x="593" 
d="M79 577c63 109 147 162 295 162c83 0 146 -20 189 -59s59 -91 48 -154c-10 -83 -71 -137 -115 -162c-15 -9 -32 -19 -53 -29s-36 -18 -45 -23c-28 -17 -44 -35 -47 -55c-5 -31 -17 -40 -48 -40h-90c-31 0 -38 9 -33 40c15 87 55 130 112 161c15 8 50 25 66 34
c7 5 16 11 26 18c19 15 29 34 33 59c7 35 -15 57 -60 57c-55 0 -83 -16 -119 -73c-20 -32 -31 -38 -59 -27l-84 36c-28 12 -33 24 -16 55zM229 183h50c59 0 74 -19 65 -78l-6 -35c-11 -59 -33 -78 -93 -78h-50c-59 0 -76 19 -65 78l6 35c9 59 33 78 93 78z" />
    <glyph glyph-name="at" unicode="@" horiz-adv-x="906" 
d="M55 255l14 75c21 122 73 218 157 289s194 106 329 106s233 -35 294 -106s80 -168 59 -289l-13 -75c-12 -68 -39 -121 -80 -160s-88 -59 -140 -59c-43 0 -60 10 -85 37c-54 -17 -114 -25 -180 -25c-128 0 -179 63 -159 176l24 136c21 118 95 177 221 177
c76 0 141 -11 194 -33c25 -11 30 -20 23 -49l-47 -271c-3 -20 6 -30 28 -30c36 0 60 33 72 99l14 79c31 186 -50 279 -243 279c-188 0 -307 -103 -339 -279l-14 -79c-31 -175 54 -270 243 -270c58 0 132 7 222 21c27 5 32 2 28 -21l-10 -55c-4 -25 -11 -32 -36 -37
c-67 -15 -141 -23 -221 -23c-272 0 -398 146 -355 387zM561 407c-16 4 -39 6 -70 6c-49 0 -72 -16 -79 -56l-23 -130c-7 -39 10 -55 59 -55c41 0 68 2 80 6l39 220c0 5 -2 8 -6 9z" />
    <glyph glyph-name="A" unicode="A" horiz-adv-x="688" 
d="M542 677l119 -636c5 -27 -7 -41 -37 -41h-104c-49 0 -64 10 -67 42l-10 72h-217l-35 -72c-16 -32 -32 -42 -80 -42h-110c-28 0 -34 14 -19 41l342 634c15 28 27 35 58 35h113c29 0 42 -8 47 -33zM425 271l-16 117c-4 47 -3 91 0 119l3 21h-9c-9 -48 -24 -94 -45 -139
l-57 -118h124z" />
    <glyph glyph-name="B" unicode="B" horiz-adv-x="658" 
d="M170 711h293c137 0 209 -77 188 -197c-13 -67 -41 -104 -98 -140l-1 -4c61 -29 84 -89 69 -180c-23 -125 -129 -190 -276 -190h-300c-32 0 -42 11 -35 42l110 626c7 32 18 43 50 43zM445 494c7 37 -11 56 -52 56h-96l-19 -110h96c41 0 64 18 71 54zM419 221
c8 39 -10 58 -54 58h-115l-21 -117h116c43 0 67 20 74 59z" />
    <glyph glyph-name="C" unicode="C" horiz-adv-x="647" 
d="M51 274l33 185c29 172 156 266 353 266c144 0 227 -59 249 -178c7 -29 -2 -45 -34 -54l-103 -35c-32 -9 -43 -4 -50 27c-9 45 -35 65 -91 65c-77 0 -116 -33 -128 -104l-33 -182c-12 -71 15 -104 92 -104c53 0 91 22 115 65c19 32 31 38 59 27l104 -40
c26 -9 32 -27 17 -54c-63 -115 -170 -173 -323 -173c-97 0 -168 26 -213 79c-46 53 -62 123 -47 210z" />
    <glyph glyph-name="D" unicode="D" horiz-adv-x="677" 
d="M170 710h243c97 0 168 -27 213 -81s59 -125 43 -214l-26 -150c-31 -173 -153 -265 -352 -265h-246c-32 0 -42 11 -35 42l110 626c7 31 18 42 50 42zM448 283l25 144c13 72 -19 108 -97 108h-81l-64 -360h82c77 0 122 36 135 108z" />
    <glyph glyph-name="E" unicode="E" horiz-adv-x="588" 
d="M170 710h419c32 0 41 -11 36 -42l-16 -90c-5 -32 -19 -43 -50 -43h-264l-16 -89h211c32 0 40 -11 35 -42l-16 -90c-7 -32 -18 -43 -50 -43h-211l-17 -96h273c31 0 39 -10 34 -42l-16 -91c-5 -31 -18 -42 -50 -42h-427c-32 0 -42 11 -35 42l110 626c7 31 18 42 50 42z" />
    <glyph glyph-name="F" unicode="F" horiz-adv-x="579" 
d="M170 710h419c32 0 41 -11 36 -42l-16 -90c-5 -32 -19 -43 -50 -43h-264l-21 -116h211c32 0 40 -11 35 -42l-16 -90c-5 -32 -18 -43 -50 -43h-210l-36 -202c-7 -31 -18 -42 -50 -42h-113c-32 0 -42 11 -35 42l110 626c7 31 18 42 50 42z" />
    <glyph glyph-name="G" unicode="G" horiz-adv-x="675" 
d="M395 408h253c31 0 39 -11 34 -43l-25 -145c-25 -145 -151 -235 -346 -235c-97 0 -168 27 -213 81s-60 125 -45 213l32 181c29 173 153 265 352 265c145 0 229 -59 252 -178c7 -31 -3 -45 -35 -54l-102 -31c-33 -9 -43 -4 -50 27c-10 41 -41 61 -94 61
c-77 0 -115 -33 -128 -104l-32 -182c-12 -71 14 -104 91 -104c68 0 113 25 121 68l3 20h-96c-32 0 -40 10 -35 42l13 75c7 32 18 43 50 43z" />
    <glyph glyph-name="H" unicode="H" horiz-adv-x="692" 
d="M561 711h114c31 0 39 -11 34 -43l-110 -626c-7 -31 -18 -42 -50 -42h-113c-32 0 -42 11 -35 42l40 230h-193l-41 -230c-5 -31 -18 -42 -50 -42h-113c-32 0 -40 11 -35 42l111 626c7 32 18 43 50 43h113c32 0 40 -11 35 -43l-39 -221h193l39 221c5 32 19 43 50 43z" />
    <glyph glyph-name="I" unicode="I" horiz-adv-x="300" 
d="M9 40l111 630c7 31 18 40 47 40h118c31 0 38 -11 33 -40l-111 -630c-5 -29 -16 -40 -47 -40h-118c-29 0 -38 9 -33 40z" />
    <glyph glyph-name="J" unicode="J" horiz-adv-x="582" 
d="M457 711h115c31 0 39 -11 34 -42l-78 -439c-29 -165 -128 -245 -308 -245c-135 0 -214 57 -235 170c-7 29 3 43 35 54l99 33c32 12 45 5 52 -24c9 -39 34 -58 74 -58c49 0 78 29 88 86l75 423c7 32 17 42 49 42z" />
    <glyph glyph-name="K" unicode="K" horiz-adv-x="654" 
d="M517 299l88 -250c9 -28 -3 -49 -35 -49h-108c-53 0 -69 7 -81 42l-56 179c-11 35 -24 50 -60 50h-17l-40 -229c-7 -31 -18 -42 -50 -42h-113c-32 0 -42 11 -35 42l110 626c7 31 18 42 50 42h113c32 0 42 -11 35 -42l-39 -222h13h9l183 227c13 16 24 26 34 31
c10 4 27 6 52 6h116c31 0 37 -17 17 -44l-237 -294c22 -15 39 -40 51 -73z" />
    <glyph glyph-name="L" unicode="L" horiz-adv-x="542" 
d="M169 710h113c32 0 41 -11 36 -42l-87 -493h240c32 0 40 -10 35 -42l-16 -91c-7 -31 -18 -42 -50 -42h-396c-32 0 -40 11 -35 42l111 626c5 31 17 42 49 42z" />
    <glyph glyph-name="M" unicode="M" horiz-adv-x="827" 
d="M708 711h101c32 0 40 -10 35 -42l-110 -628c-7 -31 -18 -41 -50 -41h-109c-32 0 -40 10 -35 41l25 143c12 71 42 159 89 262h-10c-27 -56 -59 -111 -96 -165l-76 -113c-13 -19 -31 -29 -53 -29h-65c-27 0 -35 6 -43 29l-38 113c-15 40 -26 95 -34 165h-9
c9 -109 7 -197 -6 -263l-24 -142c-5 -31 -19 -41 -50 -41h-106c-32 0 -40 10 -35 41l111 628c5 32 18 42 50 42h93c35 0 46 -6 54 -31l107 -328l222 327c17 27 29 32 62 32z" />
    <glyph glyph-name="N" unicode="N" horiz-adv-x="702" 
d="M579 710h105c32 0 41 -11 36 -42l-111 -626c-5 -31 -18 -42 -50 -42h-110c-18 0 -30 7 -37 20l-111 237c-15 32 -25 63 -32 92s-14 67 -20 114h-8c5 -96 1 -182 -12 -258l-29 -163c-7 -31 -18 -42 -50 -42h-105c-32 0 -42 11 -35 42l110 626c7 31 18 42 50 42h114
c19 0 32 -7 39 -20l118 -256c17 -35 34 -96 52 -183h8c-7 58 -11 100 -11 127c-1 27 3 69 11 126l29 164c5 31 17 42 49 42z" />
    <glyph glyph-name="O" unicode="O" horiz-adv-x="682" 
d="M51 274l32 181c31 173 155 270 352 270c97 0 168 -27 214 -80c45 -53 60 -124 45 -212l-31 -181c-31 -172 -155 -267 -352 -267c-97 0 -169 26 -214 79c-45 52 -61 122 -46 210zM465 256l35 198c11 63 -23 96 -92 96c-73 0 -116 -32 -127 -96l-35 -198
c-11 -63 22 -96 93 -96c73 0 115 32 126 96z" />
    <glyph glyph-name="P" unicode="P" horiz-adv-x="648" 
d="M170 710h276c78 0 136 -24 174 -72c38 -49 50 -113 37 -193c-27 -155 -137 -232 -297 -232h-122l-30 -171c-7 -31 -18 -42 -50 -42h-113c-32 0 -42 11 -35 42l110 626c7 31 18 42 50 42zM269 388h98c47 0 80 29 88 73c8 45 -15 74 -62 74h-98z" />
    <glyph glyph-name="Q" unicode="Q" horiz-adv-x="696" 
d="M51 274l32 181c31 173 155 270 352 270c97 0 168 -27 214 -80c45 -53 60 -124 45 -212l-31 -181c-11 -63 -35 -116 -71 -157l40 -60c17 -24 13 -37 -15 -60l-84 -58c-25 -19 -44 -18 -58 5l-50 76c-33 -9 -71 -13 -114 -13c-97 0 -169 26 -214 79c-45 52 -61 122 -46 210
zM408 550c-73 0 -116 -32 -127 -96l-35 -198c-11 -63 22 -96 93 -96c73 0 115 32 126 96l35 198c11 63 -23 96 -92 96z" />
    <glyph glyph-name="R" unicode="R" horiz-adv-x="661" 
d="M170 710h285c152 0 234 -96 206 -249c-16 -91 -64 -157 -143 -198c6 -12 12 -26 19 -43l60 -171c9 -28 -3 -49 -35 -49h-108c-52 0 -73 13 -84 48l-40 137c-12 39 -22 51 -62 51h-26l-34 -194c-7 -31 -18 -42 -50 -42h-113c-32 0 -42 11 -35 42l110 626c7 31 18 42 50 42
zM456 470c8 40 -11 65 -54 65h-107l-24 -132h108c41 0 70 26 77 67z" />
    <glyph glyph-name="S" unicode="S" horiz-adv-x="642" 
d="M73 518c24 133 138 207 327 207c143 0 215 -51 247 -148c9 -29 3 -39 -30 -52l-99 -39c-29 -12 -39 -8 -50 21c-12 35 -43 52 -92 52c-63 0 -98 -17 -104 -52c-7 -39 33 -50 121 -61c112 -17 256 -67 222 -251c-26 -140 -138 -210 -337 -210c-152 0 -255 55 -275 155
c-5 27 8 45 37 55l100 34c32 11 46 6 55 -22c12 -35 46 -53 103 -53c71 0 111 19 118 57c7 36 -31 48 -107 59c-55 8 -90 14 -141 38c-25 12 -45 26 -60 43c-29 33 -47 92 -35 167z" />
    <glyph glyph-name="T" unicode="T" horiz-adv-x="602" 
d="M129 710h495c32 0 42 -11 35 -42l-16 -90c-5 -32 -18 -43 -50 -43h-148l-87 -493c-7 -31 -18 -42 -50 -42h-113c-32 0 -42 11 -35 42l87 493h-149c-32 0 -40 11 -35 43l16 90c7 31 18 42 50 42z" />
    <glyph glyph-name="U" unicode="U" horiz-adv-x="692" 
d="M330 668l-74 -416c-11 -61 19 -92 88 -92s108 31 119 92l74 416c5 31 18 42 49 42h114c31 0 40 -11 35 -42l-75 -423c-31 -169 -147 -260 -343 -260c-97 0 -167 27 -211 82c-44 54 -58 124 -43 211l69 390c7 31 18 42 50 42h113c32 0 42 -11 35 -42z" />
    <glyph glyph-name="V" unicode="V" horiz-adv-x="680" 
d="M612 710h116c29 0 35 -14 20 -41l-332 -634c-15 -28 -27 -35 -58 -35h-126c-29 0 -41 8 -46 33l-109 636c-5 27 7 41 36 41h112c48 0 63 -10 66 -42l35 -342c4 -35 3 -85 2 -110l-2 -19h9c10 46 24 89 42 128l157 343c15 32 30 42 78 42z" />
    <glyph glyph-name="W" unicode="W" horiz-adv-x="935" 
d="M856 710h113c29 0 33 -13 20 -41l-264 -634c-12 -28 -27 -35 -58 -35h-124c-29 0 -45 8 -46 33l-12 233c-2 60 2 120 13 180h-9c-13 -62 -31 -122 -53 -180l-94 -231c-12 -28 -28 -35 -59 -35h-120c-29 0 -45 11 -46 33l-40 636c-3 29 5 41 34 41h121c37 0 50 -6 51 -37
l-1 -262c-1 -57 -7 -116 -18 -177h7c13 67 30 126 50 177l108 262c12 31 29 37 62 37h107c35 0 49 -8 50 -37l14 -262c3 -45 -1 -104 -11 -177h8c9 49 24 108 45 177l89 262c11 29 26 37 63 37z" />
    <glyph glyph-name="X" unicode="X" horiz-adv-x="662" 
d="M572 710h129c28 0 32 -19 13 -40l-253 -308l153 -320c12 -21 0 -42 -29 -42h-127c-53 0 -64 4 -77 37l-66 164l-120 -164c-12 -16 -23 -26 -34 -30c-11 -5 -29 -7 -56 -7h-124c-31 0 -35 18 -14 42l262 320l-142 308c-11 21 0 40 27 40h119c52 0 64 -4 77 -35l63 -154
l116 154c12 16 23 26 33 30c9 3 26 5 50 5z" />
    <glyph glyph-name="Y" unicode="Y" horiz-adv-x="673" 
d="M607 710h117c32 0 31 -19 14 -42l-300 -393l-40 -233c-7 -31 -19 -42 -50 -42h-114c-31 0 -39 11 -34 42l40 233l-160 393c-11 23 -1 42 28 42h116c53 0 65 -4 77 -37l71 -204l147 204c23 33 36 37 88 37z" />
    <glyph glyph-name="Z" unicode="Z" horiz-adv-x="609" 
d="M148 710h464c32 0 42 -11 35 -42l-10 -60c-3 -16 -11 -31 -22 -44l-349 -389h257c32 0 40 -10 35 -42l-16 -91c-7 -31 -18 -42 -50 -42h-474c-31 0 -39 11 -34 42l10 61c3 16 10 30 21 42l349 390h-246c-32 0 -40 11 -35 43l16 90c5 31 18 42 49 42z" />
    <glyph glyph-name="bracketleft" unicode="[" horiz-adv-x="354" 
d="M190 856h212c32 0 36 -5 31 -37l-12 -69c-5 -32 -13 -37 -44 -37h-72l-126 -715h71c32 0 37 -5 32 -37l-13 -71c-5 -32 -12 -37 -44 -37h-212c-32 0 -36 6 -31 38l163 927c7 32 13 38 45 38z" />
    <glyph glyph-name="backslash" unicode="\" horiz-adv-x="487" 
d="M229 -25l-138 700c-4 25 4 35 31 35h105c29 0 40 -7 45 -35l138 -700c5 -25 -3 -35 -31 -35h-104c-29 0 -41 8 -46 35z" />
    <glyph glyph-name="bracketright" unicode="]" horiz-adv-x="354" 
d="M156 856h211c32 0 37 -7 32 -38l-163 -927c-5 -32 -14 -38 -46 -38h-211c-32 0 -36 5 -31 37l13 71c5 32 11 37 43 37h72l126 715h-71c-32 0 -36 5 -31 37l12 69c5 32 12 37 44 37z" />
    <glyph glyph-name="asciicircum" unicode="^" horiz-adv-x="636" 
d="M380 810h64c32 0 39 -6 58 -34l145 -211c19 -30 10 -45 -28 -45h-106c-47 0 -56 5 -75 34l-55 94h-3l-91 -94c-28 -29 -42 -34 -89 -34h-97c-37 0 -42 17 -14 45l220 211c28 27 40 34 71 34z" />
    <glyph glyph-name="underscore" unicode="_" horiz-adv-x="506" 
d="M6 0h395c32 0 40 -11 35 -42l-15 -85c-5 -32 -18 -42 -50 -42h-394c-32 0 -40 10 -35 42l14 85c7 31 18 42 50 42z" />
    <glyph glyph-name="grave" unicode="`" horiz-adv-x="257" 
d="M82 676l63 56c20 18 42 19 66 2l125 -84c15 -11 14 -19 -5 -38l-35 -33c-9 -10 -25 -11 -46 -3l-170 60c-21 9 -19 19 2 40z" />
    <glyph glyph-name="a" unicode="a" horiz-adv-x="545" 
d="M31 216l19 108c25 145 115 211 280 211c83 0 147 -11 192 -34c31 -16 35 -25 28 -58l-68 -387c-5 -28 -15 -39 -46 -47c-66 -16 -138 -24 -217 -24c-149 0 -213 90 -188 231zM346 369c-10 3 -23 4 -39 4c-44 0 -65 -15 -72 -55l-22 -122c-5 -33 11 -50 48 -50
c21 0 39 2 52 5l37 211c1 4 0 6 -4 7z" />
    <glyph glyph-name="b" unicode="b" horiz-adv-x="548" 
d="M162 739h109c29 0 37 -9 32 -38l-30 -172c28 4 51 6 68 6c149 0 211 -86 186 -227l-19 -108c-25 -147 -117 -215 -281 -215c-80 0 -144 11 -192 34c-31 16 -35 24 -28 59l109 623c5 29 17 38 46 38zM322 202l22 124c5 33 -11 49 -48 49c-19 0 -37 -2 -52 -7l-37 -211
c0 -3 1 -4 2 -5c9 -3 23 -5 41 -5c41 0 65 18 72 55z" />
    <glyph glyph-name="c" unicode="c" horiz-adv-x="517" 
d="M31 214l19 110c25 141 118 211 279 211c119 0 184 -56 199 -140c5 -29 -4 -42 -35 -53l-89 -30c-33 -11 -43 -4 -50 27c-6 27 -24 40 -55 40c-35 0 -57 -18 -64 -55l-22 -129c-7 -35 10 -54 43 -54c28 0 50 14 67 41c16 29 30 36 59 25l91 -29c27 -9 33 -27 16 -56
c-54 -91 -140 -137 -259 -137c-160 0 -224 86 -199 229z" />
    <glyph glyph-name="d" unicode="d" horiz-adv-x="547" 
d="M32 219l19 109c25 144 111 207 262 207c5 0 27 -1 67 -3l30 170c5 28 17 38 45 38h110c29 0 36 -10 31 -38l-110 -625c-5 -33 -15 -42 -51 -57c-63 -23 -134 -35 -212 -35c-153 0 -216 91 -191 234zM314 156l37 213c-15 3 -29 5 -43 5c-42 0 -66 -18 -73 -55l-21 -123
c-6 -33 10 -49 48 -49c19 0 35 1 48 4c1 1 3 2 4 5z" />
    <glyph glyph-name="e" unicode="e" horiz-adv-x="542" 
d="M31 220l19 104c24 135 126 211 285 211c149 0 233 -66 217 -185c-15 -92 -95 -145 -223 -145c-35 0 -72 2 -113 6l-4 -21c-7 -43 11 -64 54 -64c35 0 64 12 87 36c19 20 29 25 58 10l65 -33c24 -13 27 -32 9 -58c-47 -64 -128 -96 -243 -96c-171 0 -236 95 -211 235z
M370 362c4 27 -14 41 -55 41c-42 0 -67 -21 -76 -62l-3 -11c25 -3 48 -5 69 -5c39 0 61 12 65 37z" />
    <glyph glyph-name="f" unicode="f" horiz-adv-x="387" 
d="M396 740h25c29 0 39 -10 32 -39l-13 -71c-5 -31 -17 -40 -46 -40c-49 0 -72 -21 -79 -66l-1 -4h69c29 0 37 -10 32 -38l-14 -75c-5 -29 -16 -39 -45 -39h-69l-58 -330c-5 -28 -17 -38 -46 -38h-108c-29 0 -37 10 -32 38l58 330h-32c-29 0 -37 10 -32 39l13 75
c5 28 17 38 45 38h33v2c28 152 115 217 268 218z" />
    <glyph glyph-name="g" unicode="g" horiz-adv-x="548" 
d="M35 244l14 82c25 144 116 209 281 209c83 0 147 -11 191 -34c31 -15 36 -25 29 -58l-80 -452c-25 -149 -117 -224 -274 -224c-105 0 -174 35 -205 104c-12 25 -2 45 29 58l85 39c32 12 41 9 52 -10c14 -24 34 -36 59 -36c37 0 59 19 66 58l7 40c-28 -4 -50 -6 -67 -6
c-149 0 -212 90 -187 230zM347 369c-9 3 -22 4 -40 4c-42 0 -66 -18 -73 -55l-16 -93c-6 -33 10 -50 48 -50c1 0 18 2 51 5l32 184c1 2 1 4 -2 5z" />
    <glyph glyph-name="h" unicode="h" horiz-adv-x="558" 
d="M162 740h109c29 0 37 -10 32 -38l-31 -171c24 3 47 4 69 4c151 0 211 -79 187 -219l-49 -278c-5 -28 -17 -38 -45 -38h-110c-29 0 -36 10 -31 38l48 274c7 37 -10 55 -50 55c-21 0 -37 -1 -48 -4l-57 -325c-5 -28 -17 -38 -46 -38h-109c-29 0 -37 10 -32 38l117 664
c5 28 17 38 46 38z" />
    <glyph glyph-name="i" unicode="i" horiz-adv-x="269" 
d="M188 722h50c57 0 72 -18 61 -74l-2 -11c-11 -56 -30 -74 -87 -74h-50c-57 0 -72 18 -61 74l1 11c11 56 32 74 88 74zM123 520h109c29 0 37 -10 32 -38l-78 -444c-5 -28 -17 -38 -46 -38h-109c-29 0 -37 10 -32 38l78 444c5 28 17 38 46 38z" />
    <glyph glyph-name="j" unicode="j" horiz-adv-x="270" 
d="M188 722h50c56 0 71 -18 60 -74l-1 -11c-11 -56 -31 -74 -88 -74h-50c-56 0 -70 18 -61 74l2 11c11 56 31 74 88 74zM123 520h108c29 0 37 -10 32 -38l-86 -492c-28 -151 -124 -220 -293 -220c-31 0 -38 10 -33 39l15 85c5 29 17 40 46 40c46 0 73 23 80 68l85 480
c5 28 17 38 46 38z" />
    <glyph glyph-name="k" unicode="k" horiz-adv-x="553" 
d="M436 232l57 -181c12 -36 0 -51 -41 -51h-91c-47 0 -59 6 -66 38l-24 123c-5 20 -18 30 -40 30h-19l-27 -152c-5 -29 -16 -39 -45 -39h-109c-29 0 -37 10 -32 39l117 662c5 29 17 39 46 39h109c29 0 36 -10 31 -39l-63 -361h15h6l109 144c21 29 35 36 78 36h89
c41 0 48 -16 23 -49l-147 -194c11 -11 19 -26 24 -45z" />
    <glyph glyph-name="l" unicode="l" horiz-adv-x="272" 
d="M304 702l-117 -664c-5 -28 -17 -38 -46 -38h-109c-29 0 -37 10 -32 38l117 664c5 28 17 38 46 38h109c29 0 37 -10 32 -38z" />
    <glyph glyph-name="m" unicode="m" horiz-adv-x="814" 
d="M448 508c53 18 105 27 158 27c145 0 203 -80 178 -220l-49 -277c-5 -28 -17 -38 -45 -38h-110c-29 0 -36 10 -31 38l48 276c7 35 -7 53 -41 53c-13 0 -28 -2 -43 -5c0 -13 -2 -28 -5 -46l-49 -278c-5 -28 -16 -38 -45 -38h-110c-28 0 -36 10 -31 38l49 276
c5 39 -6 53 -42 53c-11 0 -23 -1 -35 -3c-2 -1 -4 -3 -5 -6l-56 -320c-5 -28 -17 -38 -46 -38h-109c-29 0 -37 10 -32 38l71 400c7 33 16 47 52 60c67 25 137 37 210 37c49 0 89 -9 118 -27z" />
    <glyph glyph-name="n" unicode="n" 
d="M120 498c67 25 140 37 219 37c151 0 211 -80 187 -220l-49 -277c-5 -28 -17 -38 -45 -38h-110c-29 0 -36 10 -31 38l48 274c7 39 -9 55 -50 55c-17 0 -32 -1 -45 -4c-1 -1 -3 -2 -4 -4l-56 -321c-5 -28 -17 -38 -46 -38h-109c-29 0 -37 10 -32 38l71 400
c7 33 16 47 52 60z" />
    <glyph glyph-name="o" unicode="o" horiz-adv-x="550" 
d="M29 211l19 112c25 137 124 212 285 212c160 0 234 -87 210 -226l-19 -112c-25 -137 -123 -212 -286 -212c-159 0 -233 87 -209 226zM338 199l21 122c7 36 -10 54 -53 54c-41 0 -65 -18 -72 -54l-21 -122c-7 -35 10 -53 52 -53c41 0 66 18 73 53z" />
    <glyph glyph-name="p" unicode="p" horiz-adv-x="547" 
d="M120 501c61 23 133 34 214 34c153 0 215 -86 190 -226l-19 -109c-25 -143 -115 -215 -270 -215c-9 0 -29 2 -60 5l-30 -171c-5 -29 -16 -38 -45 -38h-110c-29 0 -36 9 -31 38l110 624c7 33 15 45 51 58zM319 201l22 123c6 33 -10 49 -48 49c-20 0 -36 -2 -47 -5
c-2 -1 -4 -3 -5 -6l-37 -211c13 -3 28 -5 43 -5c41 0 65 18 72 55z" />
    <glyph glyph-name="q" unicode="q" horiz-adv-x="548" 
d="M331 535c83 0 147 -11 192 -34c31 -16 35 -25 28 -58l-109 -624c-5 -29 -17 -38 -46 -38h-109c-29 0 -37 9 -32 38l30 172c-28 -4 -51 -6 -68 -6c-149 0 -211 86 -186 226l19 109c25 143 119 215 281 215zM236 318l-22 -122c-5 -33 11 -50 48 -50c17 0 46 5 52 5l37 211
c1 3 0 6 -4 7c-10 3 -23 4 -39 4c-41 0 -65 -18 -72 -55z" />
    <glyph glyph-name="r" unicode="r" horiz-adv-x="362" 
d="M330 535h31c29 0 37 -10 32 -38l-15 -85c-5 -29 -16 -39 -45 -39h-38c-18 0 -34 -1 -47 -4c-3 0 -5 -2 -6 -6l-57 -325c-5 -28 -17 -38 -46 -38h-109c-29 0 -37 10 -32 38l72 405c7 35 16 48 52 60c52 19 121 29 208 32z" />
    <glyph glyph-name="s" unicode="s" horiz-adv-x="516" 
d="M47 375c19 107 102 160 250 160c121 0 180 -38 208 -107c9 -25 -1 -43 -30 -55l-76 -32c-35 -14 -37 -3 -50 14c-14 18 -37 27 -69 27c-48 0 -64 -7 -67 -27c-4 -21 12 -28 76 -33c153 -13 210 -62 191 -169c-19 -108 -112 -168 -264 -168c-128 0 -201 40 -218 119
c-5 25 6 42 33 52l85 28c35 9 39 5 50 -15c9 -21 32 -32 69 -32c48 0 74 10 78 31c4 25 -12 32 -89 37c-131 8 -197 59 -177 170z" />
    <glyph glyph-name="t" unicode="t" horiz-adv-x="399" 
d="M189 640h110c28 0 36 -10 32 -38l-15 -82h70c28 0 36 -10 31 -38l-13 -75c-5 -29 -17 -39 -45 -39h-69l-27 -147c-9 -53 5 -70 56 -70c31 0 38 -10 33 -39l-16 -86c-5 -29 -15 -39 -46 -39c-177 -3 -244 57 -215 221l28 160h-43c-29 0 -37 10 -32 39l14 75
c5 28 16 38 44 38h44l14 82c5 28 17 38 45 38z" />
    <glyph glyph-name="u" unicode="u" 
d="M426 520h109c29 0 37 -10 32 -38l-71 -400c-7 -33 -16 -47 -52 -60c-67 -25 -140 -37 -219 -37c-149 0 -210 85 -185 226l47 271c5 28 17 38 46 38h109c29 0 37 -10 32 -38l-48 -274c-7 -39 8 -55 49 -55c14 0 28 1 41 4c5 1 8 4 9 9l55 316c5 28 17 38 46 38z" />
    <glyph glyph-name="v" unicode="v" horiz-adv-x="547" 
d="M446 520h104c37 0 41 -9 24 -44l-238 -442c-15 -25 -30 -34 -58 -34h-110c-29 0 -42 9 -47 34l-75 442c-5 35 3 44 39 44h94c43 0 54 -7 55 -38l22 -174c3 -36 1 -77 -2 -106l-3 -21h8c11 50 25 92 40 127l80 173c16 33 24 39 67 39z" />
    <glyph glyph-name="w" unicode="w" horiz-adv-x="772" 
d="M677 520h92c36 0 40 -9 24 -44l-191 -442c-11 -23 -30 -34 -58 -34h-103c-31 0 -46 11 -47 34l-9 134c-1 36 2 91 5 120l2 22h-7c-14 -55 -29 -102 -46 -142l-57 -134c-9 -23 -29 -34 -58 -34h-92c-29 0 -45 11 -47 34l-40 442c-4 35 4 44 40 44h92c47 0 57 -6 57 -38
l1 -133c0 -31 -7 -92 -12 -129l-4 -27h8c15 69 30 121 43 156l54 132c12 32 24 39 71 39h64c47 0 56 -6 56 -38l8 -133c1 -32 -4 -93 -8 -129l-4 -27h8c13 65 27 117 40 156l47 132c11 32 24 39 71 39z" />
    <glyph glyph-name="x" unicode="x" horiz-adv-x="552" 
d="M437 520h108c38 0 44 -15 18 -45l-172 -207l105 -223c16 -31 7 -45 -36 -45h-96c-44 0 -52 4 -64 33l-44 114l-81 -114c-20 -29 -32 -33 -76 -33h-104c-44 0 -48 14 -21 45l185 222l-102 208c-15 30 -3 45 38 45h93c43 0 54 -5 65 -33l39 -97l73 97c20 29 31 33 72 33z
" />
    <glyph glyph-name="y" unicode="y" horiz-adv-x="558" 
d="M423 520h110c29 0 36 -10 31 -38l-85 -487c-27 -150 -121 -225 -280 -225c-109 0 -168 33 -199 101c-11 25 -2 45 28 58l85 39c35 12 41 8 53 -13c13 -22 32 -33 58 -33c37 0 59 19 66 58l6 39c-18 -3 -41 -4 -68 -4c-149 0 -210 89 -185 230l42 237c5 28 16 38 45 38
h110c29 0 36 -10 31 -38l-43 -244c-7 -37 10 -55 51 -55c18 0 34 1 47 4l52 295c5 28 17 38 45 38z" />
    <glyph glyph-name="z" unicode="z" horiz-adv-x="492" 
d="M231 158h177c29 0 36 -9 31 -37l-14 -83c-5 -28 -16 -38 -45 -38h-366c-29 0 -37 10 -32 38l14 78c3 16 10 29 22 40l221 206h-156c-29 0 -36 9 -31 37l14 83c5 28 16 38 45 38h356c28 0 36 -10 31 -38l-14 -78c-3 -16 -12 -31 -28 -46z" />
    <glyph glyph-name="braceleft" unicode="{" horiz-adv-x="411" 
d="M361 856h99c28 0 36 -10 31 -38l-15 -84c-5 -29 -16 -38 -45 -38h-48c-15 0 -24 -8 -27 -23l-33 -185c-11 -60 -44 -105 -100 -136c47 -21 65 -67 52 -137l-32 -179c-1 -13 7 -23 19 -23h50c28 0 35 -9 31 -38l-15 -84c-5 -28 -17 -38 -45 -38h-96
c-113 0 -146 40 -129 143l33 183c9 56 -7 84 -48 84h-6c-21 0 -30 13 -25 38l18 101c4 25 17 38 38 38h6c42 0 68 28 77 84l34 188c17 101 65 144 176 144z" />
    <glyph glyph-name="bar" unicode="|" horiz-adv-x="280" 
d="M190 856h104c29 0 36 -10 31 -38l-163 -927c-5 -28 -16 -38 -45 -38h-104c-29 0 -36 10 -31 38l163 927c5 28 16 38 45 38z" />
    <glyph glyph-name="braceright" unicode="}" horiz-adv-x="410" 
d="M157 856h99c111 0 145 -43 126 -144l-34 -188c-9 -56 7 -84 48 -84h7c23 0 29 -11 25 -38l-18 -101c-5 -25 -18 -38 -39 -38h-6c-41 0 -66 -28 -77 -84l-33 -183c-17 -101 -66 -143 -179 -143h-96c-28 0 -36 10 -31 38l15 84c5 28 17 38 45 38h49c15 0 24 8 27 23l31 179
c13 70 46 116 101 137c-45 31 -63 77 -52 136l32 185c3 13 -5 23 -20 23h-48c-29 0 -36 9 -31 38l15 84c5 28 16 38 44 38z" />
    <glyph glyph-name="asciitilde" unicode="~" horiz-adv-x="570" 
d="M87 369c43 34 90 51 141 51c29 0 59 -6 90 -17s54 -17 69 -17c21 0 40 7 59 20c27 20 36 19 55 -2l53 -59c17 -21 14 -41 -11 -60c-45 -34 -92 -51 -141 -51c-30 0 -60 6 -90 17c-31 11 -54 17 -69 17c-21 0 -40 -6 -59 -19c-28 -20 -36 -19 -55 2l-53 59
c-17 21 -14 40 11 59z" />
    <glyph glyph-name="exclamdown" unicode="&#xa1;" horiz-adv-x="276" 
d="M173 336h-50c-59 0 -74 19 -65 79l6 34c11 60 33 78 93 78h50c60 0 76 -18 65 -78l-6 -34c-9 -60 -33 -79 -93 -79zM106 -220h-113c-29 0 -37 10 -32 38l93 430c7 29 16 38 44 38h82c28 0 35 -9 31 -38l-60 -430c-4 -28 -16 -38 -45 -38z" />
    <glyph glyph-name="cent" unicode="&#xa2;" horiz-adv-x="544" 
d="M391 207l92 -29c27 -9 32 -27 16 -55c-40 -67 -96 -109 -169 -127l-7 -41c-5 -29 -16 -38 -45 -38h-92c-28 0 -36 10 -31 38l6 37c-104 23 -142 106 -121 225l19 109c20 112 81 175 196 200l8 45c5 29 17 38 46 38h91c29 0 36 -9 31 -38l-8 -46c62 -17 99 -61 111 -134
c5 -31 -2 -42 -33 -51l-91 -29c-33 -11 -43 -4 -50 27c-7 29 -21 41 -52 41c-35 0 -56 -18 -63 -54l-23 -130c-7 -36 8 -54 44 -54c29 0 51 14 66 41c17 29 30 36 59 25z" />
    <glyph glyph-name="sterling" unicode="&#xa3;" horiz-adv-x="671" 
d="M130 399l19 110c11 65 43 117 96 157c53 39 120 59 201 59c134 0 214 -57 240 -171c5 -29 -3 -43 -35 -54l-104 -36c-31 -11 -38 -5 -49 27c-13 43 -35 59 -75 59s-69 -25 -76 -62l-15 -89h168c32 0 40 -11 35 -43l-11 -61c-7 -32 -18 -43 -50 -43h-173l-3 -18
c-8 -33 -27 -59 -57 -78l1 -6c47 13 99 19 156 19h180c32 0 40 -11 35 -43l-15 -84c-7 -31 -18 -42 -50 -42h-520c-32 0 -41 11 -34 42l15 85c3 23 12 35 27 38l5 1c29 8 47 30 56 65l4 21h-28c-32 0 -41 11 -34 43l10 61c7 32 18 43 50 43h31z" />
    <glyph glyph-name="currency" unicode="&#xa4;" horiz-adv-x="646" 
d="M229 612l45 -54c33 13 66 20 100 20c32 0 62 -7 90 -20l63 54c24 20 37 20 54 0l60 -72c15 -18 12 -36 -10 -54l-62 -53c8 -31 10 -63 5 -96c-6 -33 -18 -65 -37 -96l44 -53c15 -18 12 -36 -9 -54l-84 -72c-24 -20 -38 -20 -54 0l-45 54c-32 -13 -65 -20 -98 -20
c-34 0 -64 7 -91 20l-64 -54c-24 -20 -38 -20 -54 0l-60 72c-17 20 -15 34 9 54l65 55c-9 31 -10 62 -4 94c5 31 16 62 35 94l-46 55c-16 20 -14 34 10 54l84 72c24 20 37 20 54 0zM414 337c7 45 -22 81 -67 81s-88 -36 -97 -81c-7 -45 23 -82 68 -82s87 35 96 82z" />
    <glyph glyph-name="yen" unicode="&#xa5;" horiz-adv-x="709" 
d="M619 710h114c31 0 34 -19 14 -42l-225 -274h52c28 0 36 -10 31 -38l-9 -48c-5 -28 -16 -38 -44 -38h-106l-6 -35h106c28 0 36 -10 31 -38l-9 -48c-4 -28 -16 -38 -44 -38h-102l-12 -69c-5 -31 -18 -42 -50 -42h-113c-32 0 -40 11 -35 42l12 69h-102c-28 0 -36 10 -31 38
l9 48c4 28 16 38 44 38h106l7 35h-107c-28 0 -36 10 -31 38l8 48c5 28 17 38 44 38h53l-128 274c-12 23 -1 42 28 42h113c53 0 65 -4 77 -37l71 -204l146 204c23 33 36 37 88 37z" />
    <glyph glyph-name="brokenbar" unicode="&#xa6;" horiz-adv-x="285" 
d="M192 856h104c29 0 36 -10 31 -38l-65 -367c-4 -28 -15 -37 -44 -37h-104c-28 0 -36 9 -31 37l64 367c5 28 17 38 45 38zM93 296h104c29 0 37 -9 32 -37l-65 -367c-5 -28 -16 -38 -45 -38h-104c-28 0 -36 10 -31 38l65 367c5 28 16 37 44 37z" />
    <glyph glyph-name="section" unicode="&#xa7;" horiz-adv-x="624" 
d="M100 528c23 124 126 197 302 197c127 0 189 -50 218 -146c9 -31 1 -42 -32 -57l-77 -30c-31 -13 -45 -9 -54 22c-12 34 -40 51 -84 51c-48 0 -74 -16 -79 -48c-4 -28 21 -39 76 -51c64 -14 105 -25 123 -32c76 -31 107 -88 93 -170c-10 -55 -37 -98 -82 -131
c35 -28 50 -83 37 -154c-24 -127 -125 -198 -304 -198c-143 0 -239 52 -259 152c-5 27 9 46 40 57l84 31c35 12 44 5 53 -28c9 -35 40 -53 95 -53c56 0 87 17 93 51c4 25 -20 37 -69 45c-7 1 -18 3 -33 5c-75 12 -126 28 -155 47c-48 31 -66 80 -54 147
c11 61 46 108 105 141c-38 31 -50 82 -37 152zM311 313c-9 1 -19 3 -30 6c-27 -20 -42 -42 -45 -67c-5 -43 22 -56 81 -64l28 -3c24 19 37 41 40 65c4 36 -22 51 -74 63z" />
    <glyph glyph-name="dieresis" unicode="&#xa8;" horiz-adv-x="439" 
d="M197 733h7c56 0 70 -18 61 -71l-2 -13c-11 -53 -31 -72 -86 -72h-7c-56 0 -71 19 -60 72l2 13c11 55 29 71 85 71zM412 733h7c56 0 71 -16 60 -71l-2 -13c-11 -53 -30 -72 -85 -72h-7c-55 0 -72 19 -61 72l2 13c9 53 31 71 86 71z" />
    <glyph glyph-name="copyright" unicode="&#xa9;" horiz-adv-x="778" 
d="M64 350c17 101 67 186 149 256c82 69 173 104 274 104c100 0 179 -35 237 -104c57 -70 77 -155 60 -256c-18 -101 -68 -186 -149 -255s-172 -104 -272 -104c-101 0 -180 35 -238 105s-78 155 -61 254zM690 350c13 76 -1 140 -43 191s-100 76 -175 76
c-76 0 -144 -25 -204 -76c-61 -51 -97 -115 -110 -191c-13 -75 1 -138 44 -189c42 -52 101 -78 176 -78s142 26 202 78c60 51 97 114 110 189zM259 302l17 99c16 89 82 143 182 143c76 0 121 -36 132 -97c5 -28 -2 -37 -26 -44l-47 -16c-24 -7 -31 -3 -35 21
c-4 19 -18 28 -43 28c-31 0 -48 -12 -52 -36l-18 -101c-4 -24 10 -38 39 -38c24 0 41 10 52 29c15 24 23 29 44 21l44 -17c21 -8 24 -16 11 -43c-35 -65 -91 -97 -169 -97c-100 0 -147 57 -131 148z" />
    <glyph glyph-name="ordfeminine" unicode="&#xaa;" horiz-adv-x="352" 
d="M105 619c34 36 81 54 142 54c94 0 134 -42 119 -127l-22 -129c-5 -28 -15 -39 -46 -50c-31 -10 -68 -15 -109 -15c-105 0 -136 38 -125 101c12 63 52 91 161 91c6 0 11 0 14 -1l2 16c3 13 -3 20 -16 20c-7 0 -17 -5 -29 -14c-20 -17 -28 -18 -49 -9l-34 19
c-24 12 -26 22 -8 44zM220 439l5 30h-17c-12 0 -19 -5 -21 -16c-3 -13 2 -17 15 -17h14l2 1c1 0 2 1 2 2z" />
    <glyph glyph-name="guillemotleft" unicode="&#xab;" horiz-adv-x="638" 
d="M490 263l94 -113c13 -15 11 -31 -8 -47l-66 -57c-19 -15 -34 -15 -47 0l-159 192c-15 17 -12 31 9 48l230 197c19 17 35 17 48 0l45 -55c13 -19 11 -30 -9 -47zM226 263l94 -113c13 -15 11 -31 -8 -47l-66 -57c-17 -16 -33 -16 -47 0l-159 192c-13 16 -10 32 9 48
l230 197c19 17 35 17 48 0l45 -55c15 -19 12 -30 -9 -47z" />
    <glyph glyph-name="logicalnot" unicode="&#xac;" horiz-adv-x="596" 
d="M98 424h438c28 0 36 -10 31 -38l-39 -221c-5 -29 -16 -39 -44 -39h-109c-28 0 -36 10 -31 39l16 94h-291c-28 0 -36 10 -31 39l15 88c5 29 17 38 45 38z" />
    <glyph glyph-name="registered" unicode="&#xae;" horiz-adv-x="456" 
d="M116 375c-33 39 -45 86 -36 141s37 103 82 142s95 58 151 58c55 0 99 -20 132 -59s44 -86 35 -141s-36 -102 -81 -141s-96 -59 -151 -59s-99 20 -132 59zM198 618c-33 -28 -54 -62 -61 -102s1 -74 24 -102c23 -29 55 -43 96 -43c39 0 75 14 108 43c33 28 53 62 60 102
s0 74 -23 102s-55 42 -94 42c-41 0 -77 -14 -110 -42zM236 610h75c43 0 69 -28 61 -68c-5 -27 -19 -46 -42 -57l18 -37c10 -17 3 -26 -20 -26h-20c-15 0 -17 2 -24 15l-17 38h-12l-6 -38c-1 -12 -6 -15 -18 -15h-28c-11 0 -16 5 -13 15l27 157c3 11 9 16 19 16zM269 557
l-6 -31h31c9 0 15 5 18 15c3 11 -1 16 -12 16h-31z" />
    <glyph glyph-name="overscore" unicode="&#xaf;" horiz-adv-x="352" 
d="M138 710h244c29 0 35 -7 30 -36l-8 -42c-4 -29 -13 -36 -42 -36h-244c-28 0 -34 7 -30 36l8 42c5 28 15 36 42 36z" />
    <glyph glyph-name="degree" unicode="&#xb0;" horiz-adv-x="419" 
d="M457 555c-9 -52 -34 -97 -77 -134c-43 -38 -91 -57 -143 -57c-53 0 -95 19 -126 56s-43 82 -34 135c9 55 34 100 76 136c41 36 89 54 142 54c54 0 97 -18 128 -54c31 -37 43 -82 34 -136zM234 595c-41 -37 -28 -97 23 -97c31 0 62 25 67 56c7 31 -15 58 -46 58
c-16 0 -31 -6 -44 -17z" />
    <glyph glyph-name="plusminus" unicode="&#xb1;" horiz-adv-x="585" 
d="M413 503h127c32 0 40 -10 35 -42l-13 -75c-5 -32 -18 -42 -49 -42h-128l-10 -57c-5 -32 -18 -42 -50 -42h-78c-31 0 -40 10 -35 42l11 57h-126c-32 0 -41 10 -36 42l13 75c5 32 19 42 50 42h127l10 58c5 32 18 43 50 43h78c31 0 39 -11 34 -43zM75 221h416
c32 0 42 -11 35 -42l-14 -80c-7 -31 -18 -42 -50 -42h-416c-31 0 -39 11 -34 42l13 80c7 31 19 42 50 42z" />
    <glyph glyph-name="twosuperior" unicode="&#xb2;" horiz-adv-x="373" 
d="M106 715c36 63 95 94 178 94c96 0 146 -54 135 -127c-11 -72 -45 -116 -118 -136l-46 -12c-15 -3 -22 -7 -23 -10v-2h117c27 0 34 -8 29 -35l-8 -47c-4 -25 -13 -34 -40 -34h-247c-27 0 -34 10 -30 34l6 33c13 76 41 109 118 134l56 19c28 9 39 17 43 40
c3 15 -4 23 -19 23s-28 -8 -38 -23c-21 -28 -25 -32 -54 -24l-47 18c-25 9 -29 24 -12 55z" />
    <glyph glyph-name="threesuperior" unicode="&#xb3;" horiz-adv-x="380" 
d="M103 721c35 62 96 93 183 93c96 0 147 -47 135 -122c-7 -36 -18 -55 -53 -76c31 -20 42 -52 34 -97c-13 -77 -74 -116 -182 -116c-96 0 -149 31 -158 94c-4 24 4 39 25 46l47 16c31 9 40 6 48 -21c5 -17 22 -26 49 -26c23 0 35 6 37 19c3 16 -3 23 -26 23h-29
c-23 0 -26 5 -23 29l10 50c4 25 9 31 36 31h19c20 0 32 7 35 22s-6 21 -27 21c-29 0 -49 -9 -61 -27c-15 -25 -25 -31 -54 -19l-35 16c-18 9 -21 23 -10 44z" />
    <glyph glyph-name="acute" unicode="&#xb4;" horiz-adv-x="257" 
d="M93 650l154 84c30 17 52 16 66 -2l42 -56c16 -20 13 -31 -12 -40l-190 -60c-25 -9 -38 -9 -46 3l-23 33c-11 17 -8 29 9 38z" />
    <glyph glyph-name="mu" unicode="&#xb5;" horiz-adv-x="570" 
d="M421 520h110c28 0 36 -10 31 -38l-70 -400c-5 -22 -19 -40 -43 -55c-48 -28 -102 -42 -163 -42c-39 0 -73 8 -101 23l-33 -190c-5 -28 -17 -38 -46 -38h-109c-29 0 -37 10 -32 38l117 664c5 28 17 38 46 38h109c29 0 37 -10 32 -38l-48 -274c-7 -39 7 -55 50 -55
c13 0 27 1 40 4c5 1 8 4 9 9l56 316c5 28 16 38 45 38z" />
    <glyph glyph-name="paragraph" unicode="&#xb6;" horiz-adv-x="700" 
d="M362 710h335c29 0 37 -10 32 -38l-127 -723c-5 -28 -17 -38 -46 -38h-87c-29 0 -36 10 -31 38l103 587h-50l-103 -587c-7 -28 -17 -38 -46 -38h-87c-29 0 -38 10 -31 38l46 263c-71 1 -125 25 -162 74s-49 110 -36 183c13 74 46 133 99 176s117 65 191 65z" />
    <glyph glyph-name="middot" unicode="&#xb7;" horiz-adv-x="282" 
d="M148 408h38c59 0 76 -20 65 -79l-7 -41c-11 -59 -33 -78 -93 -78h-38c-59 0 -76 19 -65 78l7 41c11 60 33 79 93 79z" />
    <glyph glyph-name="cedilla" unicode="&#xb8;" horiz-adv-x="251" 
d="M138 0l-27 -50h7c59 -1 83 -47 67 -104c-17 -64 -72 -96 -164 -96c-23 0 -48 5 -75 16c-16 7 -23 17 -21 31l7 42c5 21 16 27 35 16c18 -10 36 -15 53 -15c23 0 36 8 39 23s-7 22 -39 22h-21c-18 0 -21 10 -8 30l52 85h95z" />
    <glyph glyph-name="onesuperior" unicode="&#xb9;" horiz-adv-x="294" 
d="M278 806h29c39 0 48 -13 41 -48l-54 -307c-5 -29 -17 -40 -49 -40h-54c-32 0 -40 11 -35 40l34 191l-29 -15c-27 -13 -45 -9 -55 14l-18 40c-8 22 0 40 25 53l116 61c15 7 31 11 49 11z" />
    <glyph glyph-name="ordmasculine" unicode="&#xba;" horiz-adv-x="352" 
d="M74 488l11 61c13 81 72 125 167 125c93 0 139 -55 123 -138l-11 -61c-15 -82 -71 -123 -168 -123c-93 0 -138 55 -122 136zM241 481l12 64c1 12 -5 19 -20 19s-24 -6 -26 -19l-11 -64c-2 -13 4 -19 19 -19s24 6 26 19z" />
    <glyph glyph-name="guillemotright" unicode="&#xbb;" horiz-adv-x="640" 
d="M177 265l-97 117c-15 17 -12 30 9 47l64 56c19 17 35 17 48 0l162 -199c15 -17 13 -31 -8 -48l-226 -191c-19 -16 -35 -16 -48 0l-47 57c-13 16 -11 32 8 48zM440 265l-96 117c-15 17 -12 30 9 47l65 54c19 17 35 17 48 0l161 -197c13 -16 10 -32 -8 -48l-225 -190
c-20 -17 -32 -17 -47 0l-49 56c-14 17 -11 33 8 48z" />
    <glyph glyph-name="onequarter" unicode="&#xbc;" horiz-adv-x="915" 
d="M280 715h28c39 0 49 -13 42 -48l-54 -307c-5 -29 -17 -40 -49 -40h-54c-32 0 -40 11 -35 40l34 191l-29 -15c-31 -15 -44 -11 -55 14l-18 40c-8 22 0 40 25 53l116 60c13 8 30 12 49 12zM716 710h72c29 0 36 -17 20 -40l-465 -633c-12 -16 -22 -26 -31 -30
c-9 -5 -26 -7 -51 -7h-67c-31 0 -39 19 -22 42l466 633c11 15 21 25 30 29s25 6 48 6zM833 177h11c28 0 32 -7 28 -30l-8 -46c-4 -25 -11 -31 -39 -31h-10l-7 -35c-3 -23 -16 -34 -38 -34h-65c-24 0 -29 9 -25 34l7 35h-160c-27 0 -33 10 -29 35l5 30c3 18 10 32 21 43
l194 193c21 20 32 25 63 25h51c32 0 40 -9 33 -40zM705 177l12 66l-66 -66h54z" />
    <glyph glyph-name="onehalf" unicode="&#xbd;" horiz-adv-x="926" 
d="M280 715h28c39 0 49 -13 42 -48l-54 -307c-5 -29 -17 -40 -49 -40h-54c-32 0 -40 11 -35 40l34 191l-29 -15c-31 -15 -44 -11 -55 14l-18 40c-8 22 0 40 25 53l116 60c13 8 30 12 49 12zM703 710h72c29 0 36 -17 20 -40l-465 -633c-12 -16 -23 -26 -32 -30
c-9 -5 -26 -7 -51 -7h-67c-29 0 -38 19 -21 42l466 633c21 31 31 35 78 35zM588 308c37 63 96 95 178 95c96 0 146 -55 135 -128c-11 -71 -46 -115 -118 -135l-46 -13c-15 -2 -22 -5 -23 -10v-1h117c27 0 34 -8 29 -35l-8 -47c-4 -25 -13 -34 -40 -34h-247
c-27 0 -34 9 -30 34l6 33c13 76 41 109 118 134l56 18c28 9 39 18 43 41c3 15 -4 22 -19 22s-27 -7 -38 -22c-21 -28 -25 -32 -54 -24l-47 18c-25 9 -29 25 -12 54z" />
    <glyph glyph-name="threequarters" unicode="&#xbe;" horiz-adv-x="934" 
d="M95 632c35 62 95 93 182 93c96 0 148 -47 136 -122c-7 -36 -18 -55 -53 -76c31 -21 42 -53 34 -97c-13 -77 -74 -116 -182 -116c-96 0 -149 31 -158 94c-4 24 4 39 24 46l47 16c32 9 41 6 49 -21c5 -17 22 -26 49 -26c23 0 35 6 36 19c4 16 -2 23 -26 23h-28
c-23 0 -27 5 -23 29l10 50c4 25 8 31 35 31h20c20 0 31 7 34 22c3 13 -6 21 -26 21c-29 0 -49 -9 -61 -27c-16 -25 -26 -31 -55 -19l-34 16c-18 9 -21 24 -10 44zM745 710h72c29 0 36 -17 20 -40l-465 -633c-12 -16 -23 -26 -32 -30c-9 -5 -26 -7 -51 -7h-67
c-29 0 -38 19 -21 42l466 633c21 31 31 35 78 35zM850 176h11c28 0 32 -7 28 -30l-8 -46c-4 -25 -11 -31 -39 -31h-10l-7 -35c-3 -23 -16 -34 -38 -34h-65c-24 0 -29 9 -25 34l7 35h-160c-27 0 -33 10 -29 35l5 30c3 18 10 32 21 43l194 193c21 20 32 25 63 25h51
c32 0 40 -9 33 -40zM722 176l12 66l-66 -66h54z" />
    <glyph glyph-name="questiondown" unicode="&#xbf;" horiz-adv-x="589" 
d="M367 335h-50c-59 0 -74 18 -65 78l6 35c11 59 33 78 93 78h50c59 0 74 -19 65 -78l-6 -35c-11 -60 -33 -78 -93 -78zM517 -59c-63 -108 -147 -162 -295 -162c-83 0 -146 20 -189 59s-59 90 -48 153c10 85 69 136 115 163c29 18 79 41 98 52c28 17 44 35 47 55
c5 29 18 40 47 40h91c31 0 38 -11 33 -40c-15 -87 -55 -130 -112 -161c-15 -8 -50 -26 -65 -34c-8 -5 -17 -11 -26 -18c-19 -16 -30 -34 -34 -59c-7 -35 13 -57 60 -57c53 0 83 17 119 73c19 32 30 38 58 27l85 -36c28 -12 32 -24 16 -55z" />
    <glyph glyph-name="Agrave" unicode="&#xc0;" horiz-adv-x="688" 
d="M340 854l62 60c19 18 41 19 66 3l126 -83c15 -9 14 -21 -3 -38l-34 -34c-10 -10 -26 -11 -47 -4l-171 56c-22 8 -20 19 1 40zM542 677l119 -636c5 -27 -7 -41 -37 -41h-104c-49 0 -64 10 -67 42l-10 72h-217l-35 -72c-16 -32 -32 -42 -80 -42h-110c-28 0 -34 14 -19 41
l342 634c15 28 27 35 58 35h113c29 0 42 -8 47 -33zM425 271l-16 117c-4 47 -3 91 0 119l3 21h-9c-9 -48 -24 -94 -45 -139l-57 -118h124z" />
    <glyph glyph-name="Aacute" unicode="&#xc1;" horiz-adv-x="688" 
d="M329 833l156 81c30 16 52 15 66 -3l40 -58c15 -20 12 -31 -12 -40l-192 -56c-24 -8 -37 -8 -45 5l-21 33c-13 19 -11 27 8 38zM542 677l119 -636c5 -27 -7 -41 -37 -41h-104c-49 0 -64 10 -67 42l-10 72h-217l-35 -72c-16 -32 -32 -42 -80 -42h-110c-28 0 -34 14 -19 41
l342 634c15 28 27 35 58 35h113c29 0 42 -8 47 -33zM425 271l-16 117c-4 47 -3 91 0 119l3 21h-9c-9 -48 -24 -94 -45 -139l-57 -118h124z" />
    <glyph glyph-name="Acircumflex" unicode="&#xc2;" horiz-adv-x="688" 
d="M464 920h32c36 0 45 -3 66 -30l85 -102c15 -16 10 -34 -21 -34h-82c-41 0 -52 2 -64 21l-22 36l-37 -35c-20 -20 -30 -22 -69 -22h-80c-31 0 -31 18 -10 34l120 102c33 28 39 30 82 30zM542 677l119 -636c5 -27 -7 -41 -37 -41h-104c-49 0 -64 10 -67 42l-10 72h-217
l-35 -72c-16 -32 -32 -42 -80 -42h-110c-28 0 -34 14 -19 41l342 634c15 28 27 35 58 35h113c29 0 42 -8 47 -33zM425 271l-16 117c-4 47 -3 91 0 119l3 21h-9c-9 -48 -24 -94 -45 -139l-57 -118h124z" />
    <glyph glyph-name="Atilde" unicode="&#xc3;" horiz-adv-x="688" 
d="M560 909h60c17 0 22 -7 19 -23c-16 -89 -52 -123 -119 -123c-28 0 -54 7 -78 21s-40 21 -47 21c-10 0 -16 -7 -19 -22c-2 -13 -9 -20 -22 -20h-62c-16 0 -22 8 -19 23c15 91 54 123 117 123c29 0 56 -7 81 -20c25 -14 41 -21 48 -21c9 0 15 7 18 22c3 13 10 19 23 19z
M542 677l119 -636c5 -27 -7 -41 -37 -41h-104c-49 0 -64 10 -67 42l-10 72h-217l-35 -72c-16 -32 -32 -42 -80 -42h-110c-28 0 -34 14 -19 41l342 634c15 28 27 35 58 35h113c29 0 42 -8 47 -33zM425 271l-16 117c-4 47 -3 91 0 119l3 21h-9c-9 -48 -24 -94 -45 -139
l-57 -118h124z" />
    <glyph glyph-name="Adieresis" unicode="&#xc4;" horiz-adv-x="688" 
d="M363 914h7c56 0 71 -18 62 -71l-2 -13c-11 -53 -31 -71 -87 -71h-7c-56 0 -69 18 -60 71l3 13c9 55 28 71 84 71zM578 914h7c56 0 70 -16 61 -71l-2 -13c-11 -53 -30 -71 -86 -71h-7c-55 0 -70 18 -61 71l3 13c9 53 30 71 85 71zM542 677l119 -636c5 -27 -7 -41 -37 -41
h-104c-49 0 -64 10 -67 42l-10 72h-217l-35 -72c-16 -32 -32 -42 -80 -42h-110c-28 0 -34 14 -19 41l342 634c15 28 27 35 58 35h113c29 0 42 -8 47 -33zM425 271l-16 117c-4 47 -3 91 0 119l3 21h-9c-9 -48 -24 -94 -45 -139l-57 -118h124z" />
    <glyph glyph-name="Aring" unicode="&#xc5;" horiz-adv-x="688" 
d="M285 745c16 88 89 142 184 142c91 0 144 -55 128 -142c-7 -41 -26 -73 -55 -97l119 -607c6 -27 -6 -41 -37 -41h-104c-49 0 -64 10 -67 42l-10 72h-217l-35 -72c-16 -32 -32 -42 -80 -42h-110c-28 0 -34 14 -19 41l328 603c-23 25 -32 59 -25 101zM485 745
c5 25 -9 43 -34 43c-28 0 -49 -16 -54 -43c-4 -25 11 -43 39 -43c24 0 45 18 49 43zM425 271l-16 117c-4 47 -3 91 0 119l3 21h-9c-9 -48 -24 -94 -45 -139l-57 -118h124z" />
    <glyph glyph-name="AE" unicode="&#xc6;" horiz-adv-x="906" 
d="M619 175h204c32 0 40 -10 35 -42l-16 -91c-7 -31 -18 -42 -50 -42h-339c-32 0 -40 11 -35 42l12 63h-202l-54 -68c-24 -29 -36 -37 -85 -37h-109c-31 0 -39 16 -20 41l516 634c23 28 31 35 58 35h375c32 0 42 -11 35 -42l-16 -90c-5 -32 -18 -43 -50 -43h-195l-16 -89
h143c31 0 39 -11 34 -42l-16 -90c-5 -32 -18 -43 -49 -43h-143zM456 256l44 206l-147 -206h103z" />
    <glyph glyph-name="Ccedilla" unicode="&#xc7;" horiz-adv-x="647" 
d="M436 725c144 0 227 -59 249 -178c7 -29 -2 -45 -34 -54l-103 -35c-32 -9 -43 -4 -50 27c-9 45 -35 65 -91 65c-77 0 -116 -33 -128 -104l-33 -182c-12 -71 15 -104 92 -104c53 0 91 22 115 65c19 32 31 38 59 27l104 -40c26 -9 32 -27 17 -54
c-54 -98 -141 -154 -260 -169l-22 -41h7c59 -1 83 -48 67 -105c-19 -68 -85 -95 -164 -95c-26 0 -51 5 -75 16c-16 5 -23 16 -21 31l7 41c4 21 16 27 35 17c17 -11 35 -16 53 -16c23 0 36 8 39 23c3 16 -7 22 -39 22h-21c-18 0 -21 9 -10 28l47 77
c-172 12 -254 123 -226 287l33 185c29 172 156 266 353 266z" />
    <glyph glyph-name="Egrave" unicode="&#xc8;" horiz-adv-x="588" 
d="M281 854l62 60c19 18 41 19 66 3l126 -83c15 -9 14 -21 -3 -38l-34 -34c-9 -10 -25 -11 -47 -4l-171 56c-23 8 -18 19 1 40zM170 710h419c32 0 41 -11 36 -42l-16 -90c-5 -32 -19 -43 -50 -43h-264l-16 -89h211c32 0 40 -11 35 -42l-16 -90c-7 -32 -18 -43 -50 -43h-211
l-17 -96h273c31 0 39 -10 34 -42l-16 -91c-5 -31 -18 -42 -50 -42h-427c-32 0 -42 11 -35 42l110 626c7 31 18 42 50 42z" />
    <glyph glyph-name="Eacute" unicode="&#xc9;" horiz-adv-x="588" 
d="M271 833l155 81c31 15 53 14 66 -3l40 -58c16 -20 12 -31 -12 -40l-191 -56c-25 -8 -38 -8 -46 5l-21 33c-13 19 -10 27 9 38zM170 710h419c32 0 41 -11 36 -42l-16 -90c-5 -32 -19 -43 -50 -43h-264l-16 -89h211c32 0 40 -11 35 -42l-16 -90c-7 -32 -18 -43 -50 -43
h-211l-17 -96h273c31 0 39 -10 34 -42l-16 -91c-5 -31 -18 -42 -50 -42h-427c-32 0 -42 11 -35 42l110 626c7 31 18 42 50 42z" />
    <glyph glyph-name="Ecircumflex" unicode="&#xca;" horiz-adv-x="588" 
d="M405 920h32c36 0 45 -3 66 -30l85 -102c15 -16 10 -34 -21 -34h-82c-41 0 -52 2 -64 21l-22 36l-37 -35c-20 -20 -29 -22 -69 -22h-80c-32 0 -27 19 -10 34l120 102c33 28 39 30 82 30zM170 710h419c32 0 41 -11 36 -42l-16 -90c-5 -32 -19 -43 -50 -43h-264l-16 -89h211
c32 0 40 -11 35 -42l-16 -90c-7 -32 -18 -43 -50 -43h-211l-17 -96h273c31 0 39 -10 34 -42l-16 -91c-5 -31 -18 -42 -50 -42h-427c-32 0 -42 11 -35 42l110 626c7 31 18 42 50 42z" />
    <glyph glyph-name="Edieresis" unicode="&#xcb;" horiz-adv-x="588" 
d="M304 914h8c56 0 70 -18 61 -71l-2 -13c-9 -53 -31 -71 -87 -71h-7c-56 0 -70 18 -59 71l2 13c9 55 28 71 84 71zM520 914h7c55 0 69 -18 60 -71l-2 -13c-9 -53 -30 -71 -86 -71h-7c-55 0 -71 18 -60 71l2 13c9 53 30 71 86 71zM170 710h419c32 0 41 -11 36 -42l-16 -90
c-5 -32 -19 -43 -50 -43h-264l-16 -89h211c32 0 40 -11 35 -42l-16 -90c-7 -32 -18 -43 -50 -43h-211l-17 -96h273c31 0 39 -10 34 -42l-16 -91c-5 -31 -18 -42 -50 -42h-427c-32 0 -42 11 -35 42l110 626c7 31 18 42 50 42z" />
    <glyph glyph-name="Igrave" unicode="&#xcc;" horiz-adv-x="300" 
d="M128 854l61 60c19 18 41 19 67 3l126 -83c17 -11 15 -19 -4 -38l-33 -34c-10 -10 -26 -11 -47 -4l-172 56c-21 9 -19 19 2 40zM9 40l111 630c7 31 18 40 47 40h118c31 0 38 -11 33 -40l-111 -630c-5 -29 -16 -40 -47 -40h-118c-29 0 -38 9 -33 40z" />
    <glyph glyph-name="Iacute" unicode="&#xcd;" horiz-adv-x="300" 
d="M117 833l155 81c31 15 53 14 66 -3l41 -58c15 -20 12 -31 -13 -40l-191 -56c-24 -8 -38 -8 -46 5l-21 33c-11 17 -8 29 9 38zM9 40l111 630c7 31 18 40 47 40h118c31 0 38 -11 33 -40l-111 -630c-5 -29 -16 -40 -47 -40h-118c-29 0 -38 9 -33 40z" />
    <glyph glyph-name="Icircumflex" unicode="&#xce;" horiz-adv-x="300" 
d="M252 920h32c36 0 45 -3 66 -30l84 -102c15 -16 9 -34 -20 -34h-83c-41 0 -51 2 -63 21l-22 36l-38 -35c-20 -20 -29 -22 -68 -22h-81c-31 0 -29 18 -9 34l120 102c16 13 28 22 37 25s24 5 45 5zM9 40l111 630c7 31 18 40 47 40h118c31 0 38 -11 33 -40l-111 -630
c-5 -29 -16 -40 -47 -40h-118c-29 0 -38 9 -33 40z" />
    <glyph glyph-name="Idieresis" unicode="&#xcf;" horiz-adv-x="300" 
d="M150 914h8c56 0 71 -18 62 -71l-3 -13c-9 -53 -31 -71 -86 -71h-8c-55 0 -68 18 -59 71l3 13c9 55 28 71 83 71zM366 914h7c56 0 70 -16 61 -71l-3 -13c-9 -53 -30 -71 -85 -71h-7c-56 0 -70 18 -61 71l3 13c9 55 29 71 85 71zM9 40l111 630c7 31 18 40 47 40h118
c31 0 38 -11 33 -40l-111 -630c-5 -29 -16 -40 -47 -40h-118c-29 0 -38 9 -33 40z" />
    <glyph glyph-name="Eth" unicode="&#xd0;" horiz-adv-x="705" 
d="M195 710h244c97 0 168 -27 213 -80c45 -54 59 -125 43 -213l-26 -150c-31 -172 -155 -267 -355 -267h-244c-32 0 -40 11 -35 42l45 254h-46c-19 0 -24 5 -20 26l13 76c3 17 13 26 30 26h46l43 244c5 31 17 42 49 42zM474 283l25 144c12 73 -14 108 -97 108h-82l-19 -111
h82c19 0 23 -6 19 -26l-13 -76c-4 -21 -10 -26 -29 -26h-82l-21 -121h81c77 0 123 36 136 108z" />
    <glyph glyph-name="Ntilde" unicode="&#xd1;" horiz-adv-x="702" 
d="M550 909h61c17 0 22 -7 19 -23c-16 -89 -52 -123 -119 -123c-28 0 -54 7 -78 21s-40 21 -48 21c-9 0 -15 -7 -18 -22c-2 -13 -10 -20 -23 -20h-61c-16 0 -22 8 -19 23c15 91 54 123 117 123c67 0 105 -41 128 -41c10 0 16 7 19 22c3 13 10 19 22 19zM579 710h105
c32 0 41 -11 36 -42l-111 -626c-5 -31 -18 -42 -50 -42h-110c-18 0 -30 7 -37 20l-111 237c-15 32 -25 63 -32 92s-14 67 -20 114h-8c5 -96 1 -182 -12 -258l-29 -163c-7 -31 -18 -42 -50 -42h-105c-32 0 -42 11 -35 42l110 626c7 31 18 42 50 42h114c19 0 32 -7 39 -20
l118 -256c17 -35 34 -96 52 -183h8c-7 58 -11 100 -11 127c-1 27 3 69 11 126l29 164c5 31 17 42 49 42z" />
    <glyph glyph-name="Ograve" unicode="&#xd2;" horiz-adv-x="682" 
d="M339 864l61 60c19 18 41 19 67 3l126 -83c15 -9 14 -21 -3 -38l-34 -34c-10 -10 -26 -11 -47 -4l-172 56c-21 9 -19 19 2 40zM51 274l32 181c31 173 155 270 352 270c97 0 168 -27 214 -80c45 -53 60 -124 45 -212l-31 -181c-31 -172 -155 -267 -352 -267
c-97 0 -169 26 -214 79c-45 52 -61 122 -46 210zM465 256l35 198c11 63 -23 96 -92 96c-73 0 -116 -32 -127 -96l-35 -198c-11 -63 22 -96 93 -96c73 0 115 32 126 96z" />
    <glyph glyph-name="Oacute" unicode="&#xd3;" horiz-adv-x="682" 
d="M328 843l156 81c30 16 52 15 66 -3l40 -58c15 -20 12 -31 -13 -40l-191 -56c-24 -8 -37 -8 -45 5l-21 33c-13 19 -11 27 8 38zM51 274l32 181c31 173 155 270 352 270c97 0 168 -27 214 -80c45 -53 60 -124 45 -212l-31 -181c-31 -172 -155 -267 -352 -267
c-97 0 -169 26 -214 79c-45 52 -61 122 -46 210zM465 256l35 198c11 63 -23 96 -92 96c-73 0 -116 -32 -127 -96l-35 -198c-11 -63 22 -96 93 -96c73 0 115 32 126 96z" />
    <glyph glyph-name="Ocircumflex" unicode="&#xd4;" horiz-adv-x="682" 
d="M463 930h32c36 0 45 -3 66 -30l85 -102c15 -16 8 -34 -21 -34h-82c-41 0 -52 2 -64 21l-22 36l-37 -35c-20 -20 -30 -22 -69 -22h-80c-31 0 -31 18 -10 34l120 102c33 28 39 30 82 30zM51 274l32 181c31 173 155 270 352 270c97 0 168 -27 214 -80
c45 -53 60 -124 45 -212l-31 -181c-31 -172 -155 -267 -352 -267c-97 0 -169 26 -214 79c-45 52 -61 122 -46 210zM465 256l35 198c11 63 -23 96 -92 96c-73 0 -116 -32 -127 -96l-35 -198c-11 -63 22 -96 93 -96c73 0 115 32 126 96z" />
    <glyph glyph-name="Otilde" unicode="&#xd5;" horiz-adv-x="682" 
d="M558 919h61c17 0 22 -7 19 -23c-16 -89 -52 -123 -119 -123c-28 0 -54 7 -78 21s-40 21 -48 21c-9 0 -15 -7 -18 -22c-2 -13 -10 -20 -23 -20h-61c-16 0 -22 8 -19 23c15 91 54 123 117 123c29 0 55 -7 80 -20c25 -14 41 -21 48 -21c10 0 16 7 19 22c3 13 10 19 22 19z
M51 274l32 181c31 173 155 270 352 270c97 0 168 -27 214 -80c45 -53 60 -124 45 -212l-31 -181c-31 -172 -155 -267 -352 -267c-97 0 -169 26 -214 79c-45 52 -61 122 -46 210zM465 256l35 198c11 63 -23 96 -92 96c-73 0 -116 -32 -127 -96l-35 -198
c-11 -63 22 -96 93 -96c73 0 115 32 126 96z" />
    <glyph glyph-name="Odieresis" unicode="&#xd6;" horiz-adv-x="682" 
d="M362 924h7c56 0 71 -18 62 -71l-3 -13c-9 -53 -30 -71 -86 -71h-8c-55 0 -68 18 -59 71l3 13c9 55 28 71 84 71zM577 924h7c56 0 70 -16 61 -71l-3 -13c-9 -53 -29 -71 -85 -71h-7c-56 0 -70 18 -61 71l3 13c9 53 30 71 85 71zM51 274l32 181c31 173 155 270 352 270
c97 0 168 -27 214 -80c45 -53 60 -124 45 -212l-31 -181c-31 -172 -155 -267 -352 -267c-97 0 -169 26 -214 79c-45 52 -61 122 -46 210zM465 256l35 198c11 63 -23 96 -92 96c-73 0 -116 -32 -127 -96l-35 -198c-11 -63 22 -96 93 -96c73 0 115 32 126 96z" />
    <glyph glyph-name="multiply" unicode="&#xd7;" horiz-adv-x="534" 
d="M388 325l87 -106c17 -21 15 -36 -10 -57l-68 -58c-25 -21 -38 -21 -57 0l-87 106l-123 -105c-27 -21 -40 -21 -57 0l-49 58c-17 21 -14 36 11 57l122 105l-86 105c-17 23 -14 36 10 57l69 58c23 19 42 19 57 0l86 -105l124 106c25 21 40 21 57 0l49 -58
c17 -23 14 -36 -11 -57z" />
    <glyph glyph-name="Oslash" unicode="&#xd8;" horiz-adv-x="683" 
d="M639 753h96c13 0 15 -6 6 -18l-96 -114c31 -50 40 -113 28 -188l-32 -181c-31 -172 -155 -267 -351 -267c-59 0 -109 10 -149 30l-34 -41c-12 -15 -15 -16 -39 -16h-93c-13 0 -14 10 -5 19l89 108c-33 49 -42 112 -29 189l31 181c31 173 156 270 352 270
c61 0 112 -11 152 -33l37 45c12 15 17 16 37 16zM229 276l217 261c-16 9 -36 13 -60 13c-69 0 -116 -33 -127 -96l-27 -153zM443 256l26 147c1 4 3 12 4 24l-214 -256c17 -7 36 -11 58 -11c73 0 115 32 126 96z" />
    <glyph glyph-name="Ugrave" unicode="&#xd9;" horiz-adv-x="692" 
d="M342 854l62 60c19 18 41 19 66 3l126 -83c15 -9 14 -21 -3 -38l-34 -34c-9 -10 -25 -11 -47 -4l-171 56c-23 8 -18 19 1 40zM330 668l-74 -416c-11 -61 19 -92 88 -92s108 31 119 92l74 416c5 31 18 42 49 42h114c31 0 40 -11 35 -42l-75 -423
c-31 -169 -147 -260 -343 -260c-97 0 -167 27 -211 82c-44 54 -58 124 -43 211l69 390c7 31 18 42 50 42h113c32 0 42 -11 35 -42z" />
    <glyph glyph-name="Uacute" unicode="&#xda;" horiz-adv-x="692" 
d="M332 833l155 81c31 15 53 14 66 -3l40 -58c16 -20 12 -31 -12 -40l-191 -56c-25 -8 -38 -8 -46 5l-21 33c-13 19 -10 27 9 38zM330 668l-74 -416c-11 -61 19 -92 88 -92s108 31 119 92l74 416c5 31 18 42 49 42h114c31 0 40 -11 35 -42l-75 -423
c-31 -169 -147 -260 -343 -260c-97 0 -167 27 -211 82c-44 54 -58 124 -43 211l69 390c7 31 18 42 50 42h113c32 0 42 -11 35 -42z" />
    <glyph glyph-name="Ucircumflex" unicode="&#xdb;" horiz-adv-x="692" 
d="M466 920h32c36 0 45 -3 66 -30l85 -102c15 -16 10 -34 -21 -34h-82c-41 0 -52 2 -64 21l-22 36l-37 -35c-20 -20 -29 -22 -69 -22h-80c-32 0 -27 19 -10 34l120 102c33 28 39 30 82 30zM330 668l-74 -416c-11 -61 19 -92 88 -92s108 31 119 92l74 416c5 31 18 42 49 42
h114c31 0 40 -11 35 -42l-75 -423c-31 -169 -147 -260 -343 -260c-97 0 -167 27 -211 82c-44 54 -58 124 -43 211l69 390c7 31 18 42 50 42h113c32 0 42 -11 35 -42z" />
    <glyph glyph-name="Udieresis" unicode="&#xdc;" horiz-adv-x="692" 
d="M365 914h8c56 0 70 -18 61 -71l-2 -13c-9 -53 -31 -71 -87 -71h-7c-56 0 -70 18 -59 71l2 13c9 55 28 71 84 71zM581 914h7c55 0 69 -18 60 -71l-2 -13c-9 -53 -30 -71 -86 -71h-7c-55 0 -71 18 -60 71l2 13c9 53 30 71 86 71zM330 668l-74 -416c-11 -61 19 -92 88 -92
s108 31 119 92l74 416c5 31 18 42 49 42h114c31 0 40 -11 35 -42l-75 -423c-31 -169 -147 -260 -343 -260c-97 0 -167 27 -211 82c-44 54 -58 124 -43 211l69 390c7 31 18 42 50 42h113c32 0 42 -11 35 -42z" />
    <glyph glyph-name="Yacute" unicode="&#xdd;" horiz-adv-x="673" 
d="M310 833l156 81c30 16 52 15 66 -3l40 -58c15 -20 12 -31 -13 -40l-191 -56c-24 -8 -37 -8 -45 5l-21 33c-13 19 -11 27 8 38zM607 710h117c32 0 31 -19 14 -42l-300 -393l-40 -233c-7 -31 -19 -42 -50 -42h-114c-31 0 -39 11 -34 42l40 233l-160 393c-11 23 -1 42 28 42
h116c53 0 65 -4 77 -37l71 -204l147 204c23 33 36 37 88 37z" />
    <glyph glyph-name="Thorn" unicode="&#xde;" horiz-adv-x="637" 
d="M309 620h108c80 0 140 -25 180 -75c39 -51 52 -116 37 -197c-28 -159 -145 -248 -309 -248h-108l-10 -58c-5 -31 -18 -42 -50 -42h-112c-32 0 -42 11 -35 42l110 626c7 31 18 42 50 42h112c32 0 41 -11 36 -42zM248 275h82c52 0 93 36 101 85c9 49 -18 85 -70 85h-83z
" />
    <glyph glyph-name="germandbls" unicode="&#xdf;" horiz-adv-x="588" 
d="M-1 42l88 493c24 139 120 215 280 215c165 0 239 -85 216 -213c-13 -69 -40 -107 -97 -143l-1 -4c60 -29 87 -77 68 -182c-24 -137 -120 -208 -267 -208h-41c-32 0 -41 11 -34 42l16 91c5 32 18 42 49 42h15c37 1 59 20 66 59c7 40 -8 60 -46 60h-14c-32 0 -41 11 -34 43
l15 86c5 32 16 42 43 42h8c31 0 49 19 56 56c7 36 -10 54 -49 54s-61 -19 -67 -57l-84 -476c-5 -31 -18 -42 -50 -42h-101c-32 0 -40 11 -35 42z" />
    <glyph glyph-name="agrave" unicode="&#xe0;" horiz-adv-x="545" 
d="M241 676l63 56c20 18 42 19 66 2l125 -84c15 -11 14 -19 -5 -38l-35 -33c-9 -10 -25 -11 -46 -3l-170 60c-21 9 -19 19 2 40zM31 216l19 108c25 145 115 211 280 211c83 0 147 -11 192 -34c31 -16 35 -25 28 -58l-68 -387c-5 -28 -15 -39 -46 -47
c-66 -16 -138 -24 -217 -24c-149 0 -213 90 -188 231zM346 369c-10 3 -23 4 -39 4c-44 0 -65 -15 -72 -55l-22 -122c-5 -33 11 -50 48 -50c21 0 39 2 52 5l37 211c1 4 0 6 -4 7z" />
    <glyph glyph-name="aacute" unicode="&#xe1;" horiz-adv-x="545" 
d="M229 650l154 84c31 17 53 16 66 -2l42 -56c16 -20 15 -31 -12 -40l-190 -60c-24 -8 -39 -7 -46 3l-23 33c-11 17 -8 29 9 38zM31 216l19 108c25 145 115 211 280 211c83 0 147 -11 192 -34c31 -16 35 -25 28 -58l-68 -387c-5 -28 -15 -39 -46 -47
c-66 -16 -138 -24 -217 -24c-149 0 -213 90 -188 231zM346 369c-10 3 -23 4 -39 4c-44 0 -65 -15 -72 -55l-22 -122c-5 -33 11 -50 48 -50c21 0 39 2 52 5l37 211c1 4 0 6 -4 7z" />
    <glyph glyph-name="acircumflex" unicode="&#xe2;" horiz-adv-x="545" 
d="M369 740h27c37 0 44 -2 67 -29l84 -102c15 -16 8 -35 -21 -35h-78c-40 0 -51 3 -62 22l-23 35l-37 -35c-20 -19 -32 -22 -69 -22h-81c-32 0 -27 19 -9 35l120 102c33 28 39 29 82 29zM31 216l19 108c25 145 115 211 280 211c83 0 147 -11 192 -34c31 -16 35 -25 28 -58
l-68 -387c-5 -28 -15 -39 -46 -47c-66 -16 -138 -24 -217 -24c-149 0 -213 90 -188 231zM346 369c-10 3 -23 4 -39 4c-44 0 -65 -15 -72 -55l-22 -122c-5 -33 11 -50 48 -50c21 0 39 2 52 5l37 211c1 4 0 6 -4 7z" />
    <glyph glyph-name="atilde" unicode="&#xe3;" horiz-adv-x="545" 
d="M460 731h61c16 0 22 -8 19 -23c-16 -91 -53 -123 -120 -123c-28 0 -54 7 -78 21c-24 13 -40 20 -47 20c-10 0 -16 -7 -19 -22c-2 -13 -9 -19 -22 -19h-62c-15 0 -21 8 -19 23c16 89 55 123 118 123c29 0 55 -7 80 -21s41 -21 48 -21c10 0 16 7 19 22c2 13 9 20 22 20z
M31 216l19 108c25 145 115 211 280 211c83 0 147 -11 192 -34c31 -16 35 -25 28 -58l-68 -387c-5 -28 -15 -39 -46 -47c-66 -16 -138 -24 -217 -24c-149 0 -213 90 -188 231zM346 369c-10 3 -23 4 -39 4c-44 0 -65 -15 -72 -55l-22 -122c-5 -33 11 -50 48 -50
c21 0 39 2 52 5l37 211c1 4 0 6 -4 7z" />
    <glyph glyph-name="adieresis" unicode="&#xe4;" horiz-adv-x="545" 
d="M263 733h8c55 0 69 -18 60 -71l-2 -13c-9 -53 -30 -72 -86 -72h-7c-56 0 -71 19 -60 72l2 13c11 55 29 71 85 71zM479 733h7c55 0 70 -16 59 -71l-2 -13c-9 -53 -29 -72 -85 -72h-7c-55 0 -72 19 -61 72l2 13c9 53 31 71 87 71zM31 216l19 108c25 145 115 211 280 211
c83 0 147 -11 192 -34c31 -16 35 -25 28 -58l-68 -387c-5 -28 -15 -39 -46 -47c-66 -16 -138 -24 -217 -24c-149 0 -213 90 -188 231zM346 369c-10 3 -23 4 -39 4c-44 0 -65 -15 -72 -55l-22 -122c-5 -33 11 -50 48 -50c21 0 39 2 52 5l37 211c1 4 0 6 -4 7z" />
    <glyph glyph-name="aring" unicode="&#xe5;" horiz-adv-x="545" 
d="M233 680c12 72 74 117 151 117c76 0 119 -46 106 -117c-12 -71 -72 -116 -147 -116c-77 0 -123 44 -110 116zM398 680c3 21 -9 36 -29 36c-25 0 -39 -12 -44 -36c-4 -20 8 -34 32 -34c20 0 37 13 41 34zM31 216l19 108c25 145 115 211 280 211c83 0 147 -11 192 -34
c31 -16 35 -25 28 -58l-68 -387c-5 -28 -15 -39 -46 -47c-66 -16 -138 -24 -217 -24c-149 0 -213 90 -188 231zM346 369c-10 3 -23 4 -39 4c-44 0 -65 -15 -72 -55l-22 -122c-5 -33 11 -50 48 -50c21 0 39 2 52 5l37 211c1 4 0 6 -4 7z" />
    <glyph glyph-name="ae" unicode="&#xe6;" horiz-adv-x="771" 
d="M426 487c44 32 94 48 150 48c147 0 221 -64 201 -180c-16 -95 -98 -150 -217 -150c-31 0 -65 2 -102 6l-4 -21c-7 -43 9 -65 48 -65c31 0 57 12 79 37c16 21 25 25 53 10l61 -34c23 -13 26 -33 7 -58c-43 -63 -119 -95 -227 -95c-47 0 -87 9 -120 28
c-44 -19 -94 -28 -149 -28c-157 0 -214 63 -197 176c19 113 93 157 260 157c11 0 35 -1 40 -1l4 25c2 22 10 51 -40 51c-22 0 -43 -12 -62 -36c-15 -20 -23 -23 -52 -11l-70 30c-25 11 -31 26 -11 55c51 71 116 104 224 104c53 0 94 -16 124 -48zM595 362
c5 25 -10 41 -45 41c-37 0 -64 -23 -69 -60l-2 -13c27 -3 47 -4 61 -4c33 0 52 12 55 36zM284 178l2 14c-15 1 -29 2 -44 2c-31 0 -49 -14 -54 -42c-5 -27 8 -40 37 -40c15 0 34 2 57 5c-2 20 -1 40 2 61z" />
    <glyph glyph-name="ccedilla" unicode="&#xe7;" horiz-adv-x="517" 
d="M28 214l19 110c25 141 119 211 280 211c119 0 185 -56 198 -140c5 -31 -3 -44 -34 -53l-90 -30c-32 -11 -43 -4 -50 27c-6 27 -24 40 -55 40c-35 0 -56 -18 -63 -55l-23 -129c-7 -36 8 -54 44 -54c29 0 51 14 66 41c17 29 30 36 59 25l92 -29c27 -9 33 -28 16 -56
c-46 -76 -113 -120 -201 -133l-22 -39h7c59 -1 83 -47 67 -104c-17 -64 -72 -96 -164 -96c-23 0 -48 5 -74 16c-17 7 -24 17 -22 31l8 42c3 21 15 27 34 16c18 -10 36 -15 53 -15c23 0 36 8 39 23s-7 22 -39 22h-19c-19 0 -23 10 -10 30l44 72c-131 12 -181 98 -160 227z
" />
    <glyph glyph-name="egrave" unicode="&#xe8;" horiz-adv-x="542" 
d="M238 676l63 56c20 18 42 19 66 2l125 -84c13 -9 12 -21 -5 -38l-34 -33c-10 -10 -26 -11 -47 -3l-170 60c-21 9 -19 19 2 40zM31 220l19 104c24 135 126 211 285 211c149 0 233 -66 217 -185c-15 -92 -95 -145 -223 -145c-35 0 -72 2 -113 6l-4 -21c-7 -43 11 -64 54 -64
c35 0 64 12 87 36c19 20 29 25 58 10l65 -33c24 -13 27 -32 9 -58c-47 -64 -128 -96 -243 -96c-171 0 -236 95 -211 235zM370 362c4 27 -14 41 -55 41c-42 0 -67 -21 -76 -62l-3 -11c25 -3 48 -5 69 -5c39 0 61 12 65 37z" />
    <glyph glyph-name="eacute" unicode="&#xe9;" horiz-adv-x="542" 
d="M227 650l153 84c31 17 53 16 66 -2l43 -56c15 -20 13 -31 -12 -40l-191 -60c-24 -8 -39 -7 -46 3l-22 33c-13 19 -11 29 9 38zM31 220l19 104c24 135 126 211 285 211c149 0 233 -66 217 -185c-15 -92 -95 -145 -223 -145c-35 0 -72 2 -113 6l-4 -21
c-7 -43 11 -64 54 -64c35 0 64 12 87 36c19 20 29 25 58 10l65 -33c24 -13 27 -32 9 -58c-47 -64 -128 -96 -243 -96c-171 0 -236 95 -211 235zM370 362c4 27 -14 41 -55 41c-42 0 -67 -21 -76 -62l-3 -11c25 -3 48 -5 69 -5c39 0 61 12 65 37z" />
    <glyph glyph-name="ecircumflex" unicode="&#xea;" horiz-adv-x="542" 
d="M254 574h-81c-32 0 -27 19 -9 35l121 102c32 28 38 29 81 29h28c36 0 43 -2 66 -29l84 -102c15 -16 8 -35 -21 -35h-77c-41 0 -52 3 -63 22l-23 35l-37 -35c-20 -19 -30 -22 -69 -22zM335 535c149 0 233 -66 217 -185c-15 -92 -95 -145 -223 -145c-35 0 -72 2 -113 6
l-4 -21c-7 -43 11 -64 54 -64c35 0 64 12 87 36c19 20 29 25 58 10l65 -33c24 -13 27 -32 9 -58c-47 -64 -128 -96 -243 -96c-171 0 -236 95 -211 235l19 104c24 135 126 211 285 211zM370 362c4 27 -14 41 -55 41c-42 0 -67 -21 -76 -62l-3 -11c25 -3 48 -5 69 -5
c39 0 61 12 65 37z" />
    <glyph glyph-name="edieresis" unicode="&#xeb;" horiz-adv-x="542" 
d="M260 733h8c55 0 70 -18 61 -71l-2 -13c-11 -53 -31 -72 -86 -72h-8c-55 0 -69 19 -60 72l2 13c11 55 30 71 85 71zM476 733h7c55 0 69 -16 60 -71l-2 -13c-11 -53 -30 -72 -85 -72h-7c-56 0 -71 19 -62 72l2 13c9 53 31 71 87 71zM31 220l19 104c24 135 126 211 285 211
c149 0 233 -66 217 -185c-15 -92 -95 -145 -223 -145c-35 0 -72 2 -113 6l-4 -21c-7 -43 11 -64 54 -64c35 0 64 12 87 36c19 20 29 25 58 10l65 -33c24 -13 27 -32 9 -58c-47 -64 -128 -96 -243 -96c-171 0 -236 95 -211 235zM370 362c4 27 -14 41 -55 41
c-42 0 -67 -21 -76 -62l-3 -11c25 -3 48 -5 69 -5c39 0 61 12 65 37z" />
    <glyph glyph-name="igrave" unicode="&#xec;" horiz-adv-x="269" 
d="M86 685l54 47c20 18 41 18 64 0l115 -91c15 -12 13 -18 -7 -38l-30 -29c-11 -11 -26 -11 -46 0l-155 71c-20 12 -18 20 5 40zM123 520h109c29 0 37 -10 32 -38l-78 -444c-5 -28 -17 -38 -46 -38h-109c-29 0 -37 10 -32 38l78 444c5 28 17 38 46 38z" />
    <glyph glyph-name="iacute" unicode="&#xed;" horiz-adv-x="269" 
d="M68 643l142 91c29 19 52 19 67 2l47 -53c15 -19 14 -31 -11 -40l-180 -69c-24 -11 -39 -11 -46 0l-26 31c-13 19 -12 26 7 38zM123 520h109c29 0 37 -10 32 -38l-78 -444c-5 -28 -17 -38 -46 -38h-109c-29 0 -37 10 -32 38l78 444c5 28 17 38 46 38z" />
    <glyph glyph-name="icircumflex" unicode="&#xee;" horiz-adv-x="269" 
d="M289 707l77 -100c15 -16 8 -34 -21 -34h-75c-39 0 -49 4 -60 23l-17 30l-31 -32c-17 -19 -28 -21 -67 -21h-80c-29 0 -28 18 -9 34l112 100c14 13 26 21 35 24s24 4 45 4h26c36 0 45 -3 65 -28zM120 520h109c29 0 37 -10 32 -38l-78 -444c-5 -28 -17 -38 -46 -38h-109
c-29 0 -37 10 -32 38l78 444c5 28 17 38 46 38z" />
    <glyph glyph-name="idieresis" unicode="&#xef;" horiz-adv-x="269" 
d="M108 733h7c56 0 70 -18 61 -71l-2 -13c-11 -53 -31 -72 -86 -72h-7c-56 0 -71 19 -60 72l2 13c11 55 29 71 85 71zM315 733h7c55 0 70 -16 59 -71l-2 -13c-9 -53 -29 -72 -85 -72h-7c-55 0 -72 19 -61 72l2 13c9 53 31 71 87 71zM123 520h109c29 0 37 -10 32 -38
l-78 -444c-5 -28 -17 -38 -46 -38h-109c-29 0 -37 10 -32 38l78 444c5 28 17 38 46 38z" />
    <glyph glyph-name="eth" unicode="&#xf0;" horiz-adv-x="559" 
d="M455 717l42 41c10 9 19 10 26 1l32 -29c9 -7 8 -16 -3 -27l-32 -30c48 -54 60 -152 35 -293l-32 -182c-24 -137 -124 -213 -285 -213s-234 86 -210 225l17 91c23 127 119 192 255 192c46 0 83 -9 110 -27c3 37 -5 65 -23 85l-39 -35c-12 -11 -15 -10 -27 -2l-30 21
c-9 7 -7 16 4 27l24 24c-19 4 -57 6 -113 6c-31 0 -39 9 -35 40l13 71c5 31 16 41 47 41c101 0 175 -9 224 -27zM337 199l16 92c6 36 -11 54 -52 54c-42 0 -66 -18 -72 -54l-16 -92c-7 -35 10 -53 53 -53c40 0 64 18 71 53z" />
    <glyph glyph-name="ntilde" unicode="&#xf1;" 
d="M439 731h61c16 0 22 -8 19 -23c-16 -91 -53 -123 -120 -123c-28 0 -54 7 -78 21c-24 13 -40 20 -47 20c-10 0 -16 -7 -19 -22c-2 -13 -9 -19 -22 -19h-62c-15 0 -21 8 -19 23c16 89 55 123 118 123c29 0 55 -7 80 -21s41 -21 48 -21c10 0 16 7 19 22c2 13 9 20 22 20z
M120 498c67 25 140 37 219 37c151 0 211 -80 187 -220l-49 -277c-5 -28 -17 -38 -45 -38h-110c-29 0 -36 10 -31 38l48 274c7 39 -9 55 -50 55c-17 0 -32 -1 -45 -4c-1 -1 -3 -2 -4 -4l-56 -321c-5 -28 -17 -38 -46 -38h-109c-29 0 -37 10 -32 38l71 400c7 33 16 47 52 60z
" />
    <glyph glyph-name="ograve" unicode="&#xf2;" horiz-adv-x="550" 
d="M235 676l63 56c20 18 42 19 66 2l125 -84c13 -9 12 -21 -5 -38l-34 -33c-10 -10 -26 -11 -47 -3l-170 60c-21 9 -19 19 2 40zM29 211l19 112c25 137 124 212 285 212c160 0 234 -87 210 -226l-19 -112c-25 -137 -123 -212 -286 -212c-159 0 -233 87 -209 226zM338 199
l21 122c7 36 -10 54 -53 54c-41 0 -65 -18 -72 -54l-21 -122c-7 -35 10 -53 52 -53c41 0 66 18 73 53z" />
    <glyph glyph-name="oacute" unicode="&#xf3;" horiz-adv-x="550" 
d="M224 650l153 84c31 17 53 16 66 -2l43 -56c15 -20 13 -31 -12 -40l-191 -60c-24 -8 -39 -7 -46 3l-22 33c-13 19 -11 29 9 38zM29 211l19 112c25 137 124 212 285 212c160 0 234 -87 210 -226l-19 -112c-25 -137 -123 -212 -286 -212c-159 0 -233 87 -209 226zM338 199
l21 122c7 36 -10 54 -53 54c-41 0 -65 -18 -72 -54l-21 -122c-7 -35 10 -53 52 -53c41 0 66 18 73 53z" />
    <glyph glyph-name="ocircumflex" unicode="&#xf4;" horiz-adv-x="550" 
d="M251 574h-81c-32 0 -27 19 -9 35l121 102c32 28 38 29 81 29h28c36 0 43 -2 66 -29l84 -102c15 -16 8 -35 -21 -35h-77c-41 0 -52 3 -63 22l-23 35l-37 -35c-20 -19 -30 -22 -69 -22zM333 535c160 0 234 -87 210 -226l-19 -112c-25 -137 -123 -212 -286 -212
c-159 0 -233 87 -209 226l19 112c25 137 124 212 285 212zM338 199l21 122c7 36 -10 54 -53 54c-41 0 -65 -18 -72 -54l-21 -122c-7 -35 10 -53 52 -53c41 0 66 18 73 53z" />
    <glyph glyph-name="otilde" unicode="&#xf5;" horiz-adv-x="550" 
d="M454 731h61c16 0 22 -8 19 -23c-16 -91 -53 -123 -120 -123c-28 0 -54 7 -78 21c-24 13 -40 20 -47 20c-10 0 -16 -7 -19 -22c-2 -13 -9 -19 -22 -19h-62c-15 0 -21 8 -19 23c16 89 55 123 118 123c29 0 55 -7 80 -21s41 -21 48 -21c10 0 16 7 19 22c2 13 9 20 22 20z
M29 211l19 112c25 137 124 212 285 212c160 0 234 -87 210 -226l-19 -112c-25 -137 -123 -212 -286 -212c-159 0 -233 87 -209 226zM338 199l21 122c7 36 -10 54 -53 54c-41 0 -65 -18 -72 -54l-21 -122c-7 -35 10 -53 52 -53c41 0 66 18 73 53z" />
    <glyph glyph-name="odieresis" unicode="&#xf6;" horiz-adv-x="550" 
d="M257 733h8c55 0 70 -18 61 -71l-2 -13c-11 -53 -31 -72 -86 -72h-8c-55 0 -69 19 -60 72l2 13c11 55 30 71 85 71zM473 733h7c55 0 69 -16 60 -71l-2 -13c-11 -53 -30 -72 -85 -72h-7c-56 0 -71 19 -62 72l2 13c9 53 31 71 87 71zM29 211l19 112c25 137 124 212 285 212
c160 0 234 -87 210 -226l-19 -112c-25 -137 -123 -212 -286 -212c-159 0 -233 87 -209 226zM338 199l21 122c7 36 -10 54 -53 54c-41 0 -65 -18 -72 -54l-21 -122c-7 -35 10 -53 52 -53c41 0 66 18 73 53z" />
    <glyph glyph-name="divide" unicode="&#xf7;" horiz-adv-x="554" 
d="M310 605h50c57 0 74 -18 63 -75l-2 -11c-11 -57 -33 -76 -90 -76h-50c-57 0 -73 19 -62 76l2 11c11 57 32 75 89 75zM93 411h416c32 0 40 -11 35 -43l-15 -85c-5 -32 -19 -42 -50 -42h-416c-32 0 -40 10 -35 42l15 85c5 32 18 43 50 43zM240 208h50c59 0 73 -18 62 -75
l-1 -11c-11 -57 -33 -76 -89 -76h-50c-57 0 -74 19 -63 76l2 11c11 57 32 75 89 75z" />
    <glyph glyph-name="oslash" unicode="&#xf8;" horiz-adv-x="551" 
d="M498 552h57c14 0 16 -6 6 -18l-52 -64c33 -40 44 -94 32 -161l-19 -112c-24 -137 -122 -212 -285 -212c-41 0 -76 6 -106 17l-19 -23c-8 -9 -20 -14 -35 -14h-57c-14 0 -16 6 -5 18l50 61c-37 41 -49 96 -37 167l19 112c24 137 124 212 285 212c45 0 82 -7 113 -20l19 23
c8 9 19 14 34 14zM216 222l133 164c-8 9 -21 13 -40 13c-42 0 -66 -18 -72 -54l-19 -103c-1 -8 -2 -15 -2 -20zM352 289l-129 -158c9 -6 21 -9 36 -9c43 0 67 18 73 53l18 100c1 5 2 10 2 14z" />
    <glyph glyph-name="ugrave" unicode="&#xf9;" 
d="M238 676l63 56c19 18 41 19 66 2l125 -84c15 -11 14 -19 -5 -38l-35 -33c-9 -10 -25 -11 -47 -3l-169 60c-21 9 -21 19 2 40zM426 520h109c29 0 37 -10 32 -38l-71 -400c-7 -33 -16 -47 -52 -60c-67 -25 -140 -37 -219 -37c-149 0 -210 85 -185 226l47 271
c5 28 17 38 46 38h109c29 0 37 -10 32 -38l-48 -274c-7 -39 8 -55 49 -55c14 0 28 1 41 4c5 1 8 4 9 9l55 316c5 28 17 38 46 38z" />
    <glyph glyph-name="uacute" unicode="&#xfa;" 
d="M226 650l154 84c30 17 52 16 66 -2l42 -56c16 -20 13 -31 -12 -40l-190 -60c-25 -9 -38 -9 -46 3l-23 33c-11 17 -8 29 9 38zM426 520h109c29 0 37 -10 32 -38l-71 -400c-7 -33 -16 -47 -52 -60c-67 -25 -140 -37 -219 -37c-149 0 -210 85 -185 226l47 271
c5 28 17 38 46 38h109c29 0 37 -10 32 -38l-48 -274c-7 -39 8 -55 49 -55c14 0 28 1 41 4c5 1 8 4 9 9l55 316c5 28 17 38 46 38z" />
    <glyph glyph-name="ucircumflex" unicode="&#xfb;" 
d="M366 740h27c37 0 45 -2 66 -29l85 -102c15 -16 9 -35 -22 -35h-77c-41 0 -51 3 -62 22l-23 35l-37 -35c-20 -19 -32 -22 -69 -22h-81c-32 0 -27 19 -9 35l120 102c15 13 28 21 37 24s24 5 45 5zM426 520h109c29 0 37 -10 32 -38l-71 -400c-7 -33 -16 -47 -52 -60
c-67 -25 -140 -37 -219 -37c-149 0 -210 85 -185 226l47 271c5 28 17 38 46 38h109c29 0 37 -10 32 -38l-48 -274c-7 -39 8 -55 49 -55c14 0 28 1 41 4c5 1 8 4 9 9l55 316c5 28 17 38 46 38z" />
    <glyph glyph-name="udieresis" unicode="&#xfc;" 
d="M260 733h7c56 0 70 -18 61 -71l-2 -13c-11 -53 -31 -72 -86 -72h-7c-56 0 -71 19 -60 72l2 13c11 55 29 71 85 71zM475 733h7c56 0 71 -16 60 -71l-2 -13c-11 -53 -30 -72 -85 -72h-7c-55 0 -72 19 -61 72l2 13c9 53 31 71 86 71zM426 520h109c29 0 37 -10 32 -38
l-71 -400c-7 -33 -16 -47 -52 -60c-67 -25 -140 -37 -219 -37c-149 0 -210 85 -185 226l47 271c5 28 17 38 46 38h109c29 0 37 -10 32 -38l-48 -274c-7 -39 8 -55 49 -55c14 0 28 1 41 4c5 1 8 4 9 9l55 316c5 28 17 38 46 38z" />
    <glyph glyph-name="yacute" unicode="&#xfd;" horiz-adv-x="558" 
d="M224 650l154 84c30 17 52 16 66 -2l42 -56c15 -20 13 -31 -12 -40l-191 -60c-24 -8 -39 -7 -45 3l-23 33c-13 19 -11 29 9 38zM423 520h110c29 0 36 -10 31 -38l-85 -487c-27 -150 -121 -225 -280 -225c-109 0 -168 33 -199 101c-11 25 -2 45 28 58l85 39
c35 12 41 8 53 -13c13 -22 32 -33 58 -33c37 0 59 19 66 58l6 39c-18 -3 -41 -4 -68 -4c-149 0 -210 89 -185 230l42 237c5 28 16 38 45 38h110c29 0 36 -10 31 -38l-43 -244c-7 -37 10 -55 51 -55c18 0 34 1 47 4l52 295c5 28 17 38 45 38z" />
    <glyph glyph-name="thorn" unicode="&#xfe;" horiz-adv-x="550" 
d="M-39 -181l155 882c5 29 16 39 45 39h110c29 0 37 -10 32 -39l-30 -169c19 2 40 3 63 3c153 0 216 -85 191 -225l-19 -108c-25 -145 -116 -217 -271 -217c-9 0 -29 2 -60 5l-30 -171c-5 -29 -16 -38 -45 -38h-110c-29 0 -36 9 -31 38zM321 201l22 123c6 33 -10 49 -48 49
c-17 0 -34 -2 -51 -6l-38 -216c13 -3 28 -5 43 -5c41 0 65 18 72 55z" />
    <glyph glyph-name="ydieresis" unicode="&#xff;" horiz-adv-x="558" 
d="M257 733h8c56 0 70 -18 61 -71l-2 -13c-11 -53 -31 -72 -86 -72h-8c-55 0 -70 19 -59 72l2 13c9 55 29 71 84 71zM473 733h7c56 0 71 -16 60 -71l-2 -13c-11 -53 -30 -72 -85 -72h-7c-56 0 -72 19 -61 72l2 13c9 53 30 71 86 71zM423 520h110c29 0 36 -10 31 -38
l-85 -487c-27 -150 -121 -225 -280 -225c-109 0 -168 33 -199 101c-11 25 -2 45 28 58l85 39c35 12 41 8 53 -13c13 -22 32 -33 58 -33c37 0 59 19 66 58l6 39c-18 -3 -41 -4 -68 -4c-149 0 -210 89 -185 230l42 237c5 28 16 38 45 38h110c29 0 36 -10 31 -38l-43 -244
c-7 -37 10 -55 51 -55c18 0 34 1 47 4l52 295c5 28 17 38 45 38z" />
    <glyph glyph-name="Amacron" unicode="&#x100;" horiz-adv-x="688" 
d="M349 892h243c29 0 36 -7 31 -36l-8 -42c-5 -29 -14 -36 -43 -36h-243c-29 0 -35 7 -30 36l8 42c5 28 15 36 42 36zM542 677l119 -636c5 -27 -7 -41 -37 -41h-104c-49 0 -64 10 -67 42l-10 72h-217l-35 -72c-16 -32 -32 -42 -80 -42h-110c-28 0 -34 14 -19 41l342 634
c15 28 27 35 58 35h113c29 0 42 -8 47 -33zM425 271l-16 117c-4 47 -3 91 0 119l3 21h-9c-9 -48 -24 -94 -45 -139l-57 -118h124z" />
    <glyph glyph-name="amacron" unicode="&#x101;" horiz-adv-x="545" 
d="M248 710h244c29 0 35 -7 30 -36l-8 -42c-4 -29 -13 -36 -42 -36h-244c-28 0 -34 7 -30 36l8 42c5 28 15 36 42 36zM31 216l19 108c25 145 115 211 280 211c83 0 147 -11 192 -34c31 -16 35 -25 28 -58l-68 -387c-5 -28 -15 -39 -46 -47c-66 -16 -138 -24 -217 -24
c-149 0 -213 90 -188 231zM346 369c-10 3 -23 4 -39 4c-44 0 -65 -15 -72 -55l-22 -122c-5 -33 11 -50 48 -50c21 0 39 2 52 5l37 211c1 4 0 6 -4 7z" />
    <glyph glyph-name="Abreve" unicode="&#x102;" horiz-adv-x="688" 
d="M643 860c-39 -71 -105 -106 -196 -106c-88 0 -143 38 -158 106c-3 16 4 28 23 35l71 25c23 8 29 5 36 -12c8 -22 24 -33 49 -33c23 0 43 11 60 33c13 17 19 20 38 13l65 -26c17 -7 21 -18 12 -35zM542 677l119 -636c5 -27 -7 -41 -37 -41h-104c-49 0 -64 10 -67 42
l-10 72h-217l-35 -72c-16 -32 -32 -42 -80 -42h-110c-28 0 -34 14 -19 41l342 634c15 28 27 35 58 35h113c29 0 42 -8 47 -33zM425 271l-16 117c-4 47 -3 91 0 119l3 21h-9c-9 -48 -24 -94 -45 -139l-57 -118h124z" />
    <glyph glyph-name="abreve" unicode="&#x103;" horiz-adv-x="545" 
d="M543 680c-39 -71 -104 -106 -195 -106c-88 0 -145 38 -158 106c-5 19 2 27 23 35l68 24c24 8 29 5 37 -12c8 -21 25 -32 50 -32c24 0 44 11 60 33c13 16 18 19 38 12l66 -25c19 -8 20 -16 11 -35zM31 216l19 108c25 145 115 211 280 211c83 0 147 -11 192 -34
c31 -16 35 -25 28 -58l-68 -387c-5 -28 -15 -39 -46 -47c-66 -16 -138 -24 -217 -24c-149 0 -213 90 -188 231zM346 369c-10 3 -23 4 -39 4c-44 0 -65 -15 -72 -55l-22 -122c-5 -33 11 -50 48 -50c21 0 39 2 52 5l37 211c1 4 0 6 -4 7z" />
    <glyph glyph-name="Aogonek" unicode="&#x104;" horiz-adv-x="688" 
d="M382 710h113c29 0 42 -8 47 -33l119 -636c3 -15 0 -27 -9 -35c-55 -47 -83 -87 -84 -121c0 -13 5 -19 15 -19c5 0 12 2 19 6c13 7 21 5 23 -6l13 -51c3 -13 0 -22 -11 -29c-31 -21 -71 -32 -118 -32c-61 0 -93 24 -95 73c-1 57 35 114 107 173c-52 1 -65 10 -68 42
l-10 72h-217l-35 -72c-16 -32 -32 -42 -80 -42h-110c-28 0 -34 14 -19 41l342 634c15 28 27 35 58 35zM425 271l-16 117c-4 47 -3 91 0 119l3 21h-9c-9 -48 -24 -94 -45 -139l-57 -118h124z" />
    <glyph glyph-name="aogonek" unicode="&#x105;" horiz-adv-x="546" 
d="M31 216l19 108c25 145 115 211 280 211c83 0 147 -11 192 -34c31 -16 35 -25 28 -58l-68 -387c-3 -14 -8 -25 -15 -32c-57 -55 -86 -101 -88 -139c0 -13 5 -19 15 -19c6 0 12 2 19 6c12 7 20 5 23 -6l13 -51c3 -13 -1 -22 -11 -29c-31 -21 -71 -32 -118 -32
c-53 0 -95 21 -95 73c0 55 32 109 95 163c-27 -3 -60 -5 -101 -5c-149 0 -213 90 -188 231zM346 369c-10 3 -23 4 -39 4c-44 0 -65 -15 -72 -55l-22 -122c-5 -33 11 -50 48 -50c21 0 39 2 52 5l37 211c1 4 0 6 -4 7z" />
    <glyph glyph-name="Cacute" unicode="&#x106;" horiz-adv-x="647" 
d="M328 833l155 81c31 15 53 14 66 -3l41 -58c15 -20 12 -31 -13 -40l-191 -56c-24 -8 -38 -8 -46 5l-21 33c-11 17 -8 29 9 38zM51 274l33 185c29 172 156 266 353 266c144 0 227 -59 249 -178c7 -29 -2 -45 -34 -54l-103 -35c-32 -9 -43 -4 -50 27c-9 45 -35 65 -91 65
c-77 0 -116 -33 -128 -104l-33 -182c-12 -71 15 -104 92 -104c53 0 91 22 115 65c19 32 31 38 59 27l104 -40c26 -9 32 -27 17 -54c-63 -115 -170 -173 -323 -173c-97 0 -168 26 -213 79c-46 53 -62 123 -47 210z" />
    <glyph glyph-name="cacute" unicode="&#x107;" horiz-adv-x="517" 
d="M208 650l154 84c30 17 52 16 66 -2l42 -56c16 -20 13 -31 -12 -40l-191 -60c-24 -8 -39 -7 -45 3l-23 33c-13 19 -10 27 9 38zM31 214l19 110c25 141 118 211 279 211c119 0 184 -56 199 -140c5 -29 -4 -42 -35 -53l-89 -30c-33 -11 -43 -4 -50 27c-6 27 -24 40 -55 40
c-35 0 -57 -18 -64 -55l-22 -129c-7 -35 10 -54 43 -54c28 0 50 14 67 41c16 29 30 36 59 25l91 -29c27 -9 33 -27 16 -56c-54 -91 -140 -137 -259 -137c-160 0 -224 86 -199 229z" />
    <glyph glyph-name="Ccircumflex" unicode="&#x108;" horiz-adv-x="647" 
d="M463 920h32c36 0 45 -3 66 -30l84 -102c15 -16 9 -34 -20 -34h-83c-41 0 -51 2 -63 21l-22 36l-38 -35c-20 -20 -29 -22 -68 -22h-81c-31 0 -29 18 -9 34l120 102c16 13 28 22 37 25s24 5 45 5zM51 274l33 185c29 172 156 266 353 266c144 0 227 -59 249 -178
c7 -29 -2 -45 -34 -54l-103 -35c-32 -9 -43 -4 -50 27c-9 45 -35 65 -91 65c-77 0 -116 -33 -128 -104l-33 -182c-12 -71 15 -104 92 -104c53 0 91 22 115 65c19 32 31 38 59 27l104 -40c26 -9 32 -27 17 -54c-63 -115 -170 -173 -323 -173c-97 0 -168 26 -213 79
c-46 53 -62 123 -47 210z" />
    <glyph glyph-name="ccircumflex" unicode="&#x109;" horiz-adv-x="517" 
d="M441 711l85 -102c15 -16 9 -35 -22 -35h-77c-41 0 -51 3 -63 22l-22 35l-37 -35c-20 -19 -32 -22 -69 -22h-81c-31 0 -30 19 -9 35l120 102c15 13 28 22 37 25s24 4 45 4h27c36 0 43 -2 66 -29zM329 535c119 0 184 -56 199 -140c5 -29 -4 -42 -35 -53l-89 -30
c-33 -11 -43 -4 -50 27c-6 27 -24 40 -55 40c-35 0 -57 -18 -64 -55l-22 -129c-7 -35 10 -54 43 -54c28 0 50 14 67 41c16 29 30 36 59 25l91 -29c27 -9 33 -27 16 -56c-54 -91 -140 -137 -259 -137c-160 0 -224 86 -199 229l19 110c25 141 118 211 279 211z" />
    <glyph glyph-name="Cdotaccent" unicode="&#x10a;" horiz-adv-x="647" 
d="M471 915h6c57 0 72 -16 61 -75l-2 -8c-11 -59 -30 -75 -87 -75h-6c-57 0 -72 16 -63 75l2 8c11 59 30 75 89 75zM51 274l33 185c29 172 156 266 353 266c144 0 227 -59 249 -178c7 -29 -2 -45 -34 -54l-103 -35c-32 -9 -43 -4 -50 27c-9 45 -35 65 -91 65
c-77 0 -116 -33 -128 -104l-33 -182c-12 -71 15 -104 92 -104c53 0 91 22 115 65c19 32 31 38 59 27l104 -40c26 -9 32 -27 17 -54c-63 -115 -170 -173 -323 -173c-97 0 -168 26 -213 79c-46 53 -62 123 -47 210z" />
    <glyph glyph-name="cdotaccent" unicode="&#x10b;" horiz-adv-x="517" 
d="M351 736h6c57 0 72 -16 61 -75l-2 -8c-9 -57 -28 -75 -87 -75h-6c-57 0 -73 16 -62 75l2 8c9 57 29 75 88 75zM31 214l19 110c25 141 118 211 279 211c119 0 184 -56 199 -140c5 -29 -4 -42 -35 -53l-89 -30c-33 -11 -43 -4 -50 27c-6 27 -24 40 -55 40
c-35 0 -57 -18 -64 -55l-22 -129c-7 -35 10 -54 43 -54c28 0 50 14 67 41c16 29 30 36 59 25l91 -29c27 -9 33 -27 16 -56c-54 -91 -140 -137 -259 -137c-160 0 -224 86 -199 229z" />
    <glyph glyph-name="Ccaron" unicode="&#x10c;" horiz-adv-x="647" 
d="M574 920h76c31 0 27 -19 7 -35l-118 -102c-32 -28 -38 -29 -80 -29h-28c-39 0 -47 2 -67 29l-83 102c-16 16 -12 35 17 35h84c40 0 50 -3 63 -22l24 -34l35 34c20 19 31 22 70 22zM51 274l33 185c29 172 156 266 353 266c144 0 227 -59 249 -178c7 -29 -2 -45 -34 -54
l-103 -35c-32 -9 -43 -4 -50 27c-9 45 -35 65 -91 65c-77 0 -116 -33 -128 -104l-33 -182c-12 -71 15 -104 92 -104c53 0 91 22 115 65c19 32 31 38 59 27l104 -40c26 -9 32 -27 17 -54c-63 -115 -170 -173 -323 -173c-97 0 -168 26 -213 79c-46 53 -62 123 -47 210z" />
    <glyph glyph-name="ccaron" unicode="&#x10d;" horiz-adv-x="517" 
d="M452 739h78c33 0 25 -18 7 -34l-119 -102c-32 -28 -37 -30 -79 -30h-28c-39 0 -45 3 -68 30l-82 102c-16 16 -12 34 17 34h82c40 0 49 -4 62 -21l24 -35l36 34c20 19 31 22 70 22zM329 535c119 0 184 -56 199 -140c5 -29 -4 -42 -35 -53l-89 -30c-33 -11 -43 -4 -50 27
c-6 27 -24 40 -55 40c-35 0 -57 -18 -64 -55l-22 -129c-7 -35 10 -54 43 -54c28 0 50 14 67 41c16 29 30 36 59 25l91 -29c27 -9 33 -27 16 -56c-54 -91 -140 -137 -259 -137c-160 0 -224 86 -199 229l19 110c25 141 118 211 279 211z" />
    <glyph glyph-name="Dcaron" unicode="&#x10e;" horiz-adv-x="677" 
d="M530 920h76c31 0 26 -18 7 -35l-118 -102c-33 -28 -38 -29 -81 -29h-27c-39 0 -47 2 -68 29l-83 102c-15 16 -11 35 18 35h84c40 0 50 -3 62 -22l25 -34l35 34c20 19 31 22 70 22zM170 710h243c97 0 168 -27 213 -81s59 -125 43 -214l-26 -150
c-31 -173 -153 -265 -352 -265h-246c-32 0 -42 11 -35 42l110 626c7 31 18 42 50 42zM448 283l25 144c13 72 -19 108 -97 108h-81l-64 -360h82c77 0 122 36 135 108z" />
    <glyph glyph-name="dcaron" unicode="&#x10f;" horiz-adv-x="655" 
d="M32 219l19 109c25 144 111 207 262 207c5 0 27 -1 67 -3l30 170c5 28 17 38 45 38h110c29 0 36 -10 31 -38l-110 -625c-5 -33 -15 -42 -51 -57c-63 -23 -134 -35 -212 -35c-153 0 -216 91 -191 234zM799 698l-65 -159c-11 -28 -21 -35 -49 -35h-48c-23 0 -31 11 -26 34
l36 160c7 33 16 42 47 42h72c34 0 45 -14 33 -42zM314 156l37 213c-15 3 -29 5 -43 5c-42 0 -66 -18 -73 -55l-21 -123c-6 -33 10 -49 48 -49c19 0 35 1 48 4c1 1 3 2 4 5z" />
    <glyph glyph-name="Dcroat" unicode="&#x110;" horiz-adv-x="705" 
d="M195 710h244c97 0 168 -27 213 -80c45 -54 59 -125 43 -213l-26 -150c-31 -172 -155 -267 -355 -267h-244c-32 0 -40 11 -35 42l45 254h-46c-19 0 -24 5 -20 26l13 76c3 17 13 26 30 26h46l43 244c5 31 17 42 49 42zM474 283l25 144c12 73 -14 108 -97 108h-82l-19 -111
h82c19 0 23 -6 19 -26l-13 -76c-4 -21 -10 -26 -29 -26h-82l-21 -121h81c77 0 123 36 136 108z" />
    <glyph glyph-name="dslash" unicode="&#x111;" horiz-adv-x="548" 
d="M593 682h43c19 0 23 -6 20 -26l-8 -47c-4 -21 -10 -27 -29 -27h-43l-90 -505c-7 -33 -15 -44 -51 -57c-63 -23 -134 -35 -212 -35c-155 0 -217 88 -192 229l19 109c25 141 113 212 263 212c7 0 29 -1 67 -3l9 50h-86c-19 0 -23 6 -20 27l9 47c3 17 12 26 28 26h87l3 20
c5 28 17 38 46 38h109c29 0 37 -10 32 -38zM314 156l37 213c-13 3 -28 5 -43 5c-41 0 -65 -18 -72 -55l-22 -123c-6 -33 10 -49 48 -49c19 0 35 1 48 4c1 1 3 2 4 5z" />
    <glyph glyph-name="Emacron" unicode="&#x112;" horiz-adv-x="588" 
d="M290 892h244c28 0 35 -7 30 -36l-7 -42c-5 -29 -15 -36 -43 -36h-244c-28 0 -34 8 -29 36l7 42c5 28 15 36 42 36zM170 710h419c32 0 41 -11 36 -42l-16 -90c-5 -32 -19 -43 -50 -43h-264l-16 -89h211c32 0 40 -11 35 -42l-16 -90c-7 -32 -18 -43 -50 -43h-211l-17 -96
h273c31 0 39 -10 34 -42l-16 -91c-5 -31 -18 -42 -50 -42h-427c-32 0 -42 11 -35 42l110 626c7 31 18 42 50 42z" />
    <glyph glyph-name="emacron" unicode="&#x113;" horiz-adv-x="542" 
d="M469 596h-244c-28 0 -34 7 -29 36l7 42c5 28 17 36 42 36h244c29 0 35 -7 30 -36l-7 -42c-5 -29 -14 -36 -43 -36zM335 535c149 0 233 -66 217 -185c-15 -92 -95 -145 -223 -145c-35 0 -72 2 -113 6l-4 -21c-7 -43 11 -64 54 -64c35 0 64 12 87 36c19 20 29 25 58 10
l65 -33c24 -13 27 -32 9 -58c-47 -64 -128 -96 -243 -96c-171 0 -236 95 -211 235l19 104c24 135 126 211 285 211zM370 362c4 27 -14 41 -55 41c-42 0 -67 -21 -76 -62l-3 -11c25 -3 48 -5 69 -5c39 0 61 12 65 37z" />
    <glyph glyph-name="Ebreve" unicode="&#x114;" horiz-adv-x="588" 
d="M584 860c-39 -71 -105 -106 -196 -106c-88 0 -144 38 -157 106c-4 16 3 28 22 35l71 25c23 8 29 5 36 -12c8 -22 24 -33 49 -33c23 0 43 11 60 33c13 17 19 20 38 13l65 -26c17 -6 21 -18 12 -35zM170 710h419c32 0 41 -11 36 -42l-16 -90c-5 -32 -19 -43 -50 -43h-264
l-16 -89h211c32 0 40 -11 35 -42l-16 -90c-7 -32 -18 -43 -50 -43h-211l-17 -96h273c31 0 39 -10 34 -42l-16 -91c-5 -31 -18 -42 -50 -42h-427c-32 0 -42 11 -35 42l110 626c7 31 18 42 50 42z" />
    <glyph glyph-name="ebreve" unicode="&#x115;" horiz-adv-x="542" 
d="M540 680c-39 -71 -103 -106 -194 -106c-88 0 -146 38 -159 106c-4 19 2 27 23 35l68 24c24 8 29 5 37 -12c8 -21 25 -32 50 -32s45 11 60 33c13 16 18 19 38 12l66 -25c19 -8 20 -16 11 -35zM31 220l19 104c24 135 126 211 285 211c149 0 233 -66 217 -185
c-15 -92 -95 -145 -223 -145c-35 0 -72 2 -113 6l-4 -21c-7 -43 11 -64 54 -64c35 0 64 12 87 36c19 20 29 25 58 10l65 -33c24 -13 27 -32 9 -58c-47 -64 -128 -96 -243 -96c-171 0 -236 95 -211 235zM370 362c4 27 -14 41 -55 41c-42 0 -67 -21 -76 -62l-3 -11
c25 -3 48 -5 69 -5c39 0 61 12 65 37z" />
    <glyph glyph-name="Edotaccent" unicode="&#x116;" horiz-adv-x="588" 
d="M413 915h6c57 0 73 -16 62 -75l-2 -8c-11 -59 -29 -75 -88 -75h-6c-57 0 -73 16 -62 75l2 8c9 57 29 75 88 75zM170 710h419c32 0 41 -11 36 -42l-16 -90c-5 -32 -19 -43 -50 -43h-264l-16 -89h211c32 0 40 -11 35 -42l-16 -90c-7 -32 -18 -43 -50 -43h-211l-17 -96h273
c31 0 39 -10 34 -42l-16 -91c-5 -31 -18 -42 -50 -42h-427c-32 0 -42 11 -35 42l110 626c7 31 18 42 50 42z" />
    <glyph glyph-name="edotaccent" unicode="&#x117;" horiz-adv-x="542" 
d="M369 736h6c59 0 73 -16 62 -75l-2 -8c-11 -59 -30 -75 -87 -75h-6c-59 0 -74 16 -63 75l2 8c9 57 29 75 88 75zM31 220l19 104c24 135 126 211 285 211c149 0 233 -66 217 -185c-15 -92 -95 -145 -223 -145c-35 0 -72 2 -113 6l-4 -21c-7 -43 11 -64 54 -64
c35 0 64 12 87 36c19 20 29 25 58 10l65 -33c24 -13 27 -32 9 -58c-47 -64 -128 -96 -243 -96c-171 0 -236 95 -211 235zM370 362c4 27 -14 41 -55 41c-42 0 -67 -21 -76 -62l-3 -11c25 -3 48 -5 69 -5c39 0 61 12 65 37z" />
    <glyph glyph-name="Eogonek" unicode="&#x118;" horiz-adv-x="588" 
d="M170 710h419c32 0 41 -11 36 -42l-16 -90c-5 -32 -19 -43 -50 -43h-264l-16 -89h211c32 0 40 -11 35 -42l-16 -90c-7 -32 -18 -43 -50 -43h-211l-17 -96h273c31 0 39 -10 34 -42l-16 -91c-3 -15 -10 -27 -21 -36c-54 -45 -82 -86 -83 -121c0 -13 5 -19 15 -19
c5 0 12 2 19 6c12 7 20 5 23 -6l13 -51c3 -13 -1 -22 -11 -29c-31 -21 -71 -32 -118 -32c-63 0 -94 24 -95 73c-1 56 36 114 109 173h-328c-32 0 -42 11 -35 42l110 626c7 31 18 42 50 42z" />
    <glyph glyph-name="eogonek" unicode="&#x119;" horiz-adv-x="543" 
d="M31 220l19 104c24 135 126 211 285 211c149 0 233 -66 217 -185c-15 -92 -95 -145 -223 -145c-35 0 -72 2 -113 6l-4 -21c-7 -43 11 -64 54 -64c35 0 64 12 87 36c19 20 29 25 58 10l65 -33c24 -13 27 -32 9 -58c-8 -10 -18 -21 -30 -32c-80 -79 -114 -136 -115 -164
c0 -13 5 -19 16 -19c6 0 12 2 19 6c12 7 20 5 23 -6l12 -51c3 -12 0 -22 -10 -29c-31 -21 -71 -32 -118 -32c-62 0 -93 24 -94 73c-2 53 28 106 90 160c-15 -1 -27 -2 -36 -2c-171 0 -236 95 -211 235zM305 325c39 0 61 12 65 37c4 27 -14 41 -55 41c-42 0 -67 -21 -76 -62
l-3 -11c25 -3 48 -5 69 -5z" />
    <glyph glyph-name="Ecaron" unicode="&#x11a;" horiz-adv-x="588" 
d="M517 920h76c31 0 26 -19 6 -35l-118 -102c-16 -13 -28 -21 -36 -24c-9 -3 -23 -5 -44 -5h-27c-39 0 -47 2 -68 29l-83 102c-16 16 -13 35 18 35h84c40 0 50 -3 62 -22l25 -34l35 34c20 19 31 22 70 22zM170 710h419c32 0 41 -11 36 -42l-16 -90c-5 -32 -19 -43 -50 -43
h-264l-16 -89h211c32 0 40 -11 35 -42l-16 -90c-7 -32 -18 -43 -50 -43h-211l-17 -96h273c31 0 39 -10 34 -42l-16 -91c-5 -31 -18 -42 -50 -42h-427c-32 0 -42 11 -35 42l110 626c7 31 18 42 50 42z" />
    <glyph glyph-name="ecaron" unicode="&#x11b;" horiz-adv-x="542" 
d="M470 739h79c31 0 25 -19 6 -34l-118 -102c-16 -14 -28 -22 -36 -25c-9 -3 -23 -5 -44 -5h-27c-39 0 -47 3 -68 30l-83 102c-15 16 -11 34 18 34h81c40 0 50 -4 62 -21l25 -35l35 34c20 19 31 22 70 22zM335 535c149 0 233 -66 217 -185c-15 -92 -95 -145 -223 -145
c-35 0 -72 2 -113 6l-4 -21c-7 -43 11 -64 54 -64c35 0 64 12 87 36c19 20 29 25 58 10l65 -33c24 -13 27 -32 9 -58c-47 -64 -128 -96 -243 -96c-171 0 -236 95 -211 235l19 104c24 135 126 211 285 211zM370 362c4 27 -14 41 -55 41c-42 0 -67 -21 -76 -62l-3 -11
c25 -3 48 -5 69 -5c39 0 61 12 65 37z" />
    <glyph glyph-name="Gcircumflex" unicode="&#x11c;" horiz-adv-x="675" 
d="M464 930h32c36 0 45 -3 65 -30l85 -102c15 -16 10 -34 -21 -34h-82c-41 0 -52 2 -63 21l-23 36l-37 -35c-20 -20 -29 -22 -69 -22h-80c-31 0 -29 18 -9 34l119 102c17 13 29 22 38 25s24 5 45 5zM395 408h253c31 0 39 -11 34 -43l-25 -145c-25 -145 -151 -235 -346 -235
c-97 0 -168 27 -213 81s-60 125 -45 213l32 181c29 173 153 265 352 265c145 0 229 -59 252 -178c7 -31 -3 -45 -35 -54l-102 -31c-33 -9 -43 -4 -50 27c-10 41 -41 61 -94 61c-77 0 -115 -33 -128 -104l-32 -182c-12 -71 14 -104 91 -104c68 0 113 25 121 68l3 20h-96
c-32 0 -40 10 -35 42l13 75c7 32 18 43 50 43z" />
    <glyph glyph-name="gcircumflex" unicode="&#x11d;" horiz-adv-x="548" 
d="M256 574h-81c-31 0 -30 19 -9 35l120 102c15 13 28 22 37 25s24 4 45 4h27c36 0 43 -2 66 -29l85 -102c15 -16 9 -35 -22 -35h-77c-41 0 -51 3 -63 22l-22 35l-37 -35c-20 -19 -32 -22 -69 -22zM521 501c31 -15 36 -25 29 -58l-80 -452c-25 -149 -117 -224 -274 -224
c-105 0 -174 35 -205 104c-12 25 -2 45 29 58l85 39c32 12 41 9 52 -10c14 -24 34 -36 59 -36c37 0 59 19 66 58l7 40c-28 -4 -50 -6 -67 -6c-149 0 -212 90 -187 230l14 82c25 144 116 209 281 209c83 0 147 -11 191 -34zM317 180l32 184c1 2 1 4 -2 5c-9 3 -22 4 -40 4
c-42 0 -66 -18 -73 -55l-16 -93c-6 -33 10 -50 48 -50c1 0 18 2 51 5z" />
    <glyph glyph-name="Gbreve" unicode="&#x11e;" horiz-adv-x="675" 
d="M642 870c-39 -71 -105 -106 -196 -106c-88 0 -144 38 -157 106c-4 19 2 27 23 35l71 25c23 8 28 5 35 -12c9 -22 25 -33 49 -33s44 11 60 33c13 17 19 20 38 13l66 -26c16 -6 20 -18 11 -35zM395 408h253c31 0 39 -11 34 -43l-25 -145c-25 -145 -151 -235 -346 -235
c-97 0 -168 27 -213 81s-60 125 -45 213l32 181c29 173 153 265 352 265c145 0 229 -59 252 -178c7 -31 -3 -45 -35 -54l-102 -31c-33 -9 -43 -4 -50 27c-10 41 -41 61 -94 61c-77 0 -115 -33 -128 -104l-32 -182c-12 -71 14 -104 91 -104c68 0 113 25 121 68l3 20h-96
c-32 0 -40 10 -35 42l13 75c7 32 18 43 50 43z" />
    <glyph glyph-name="gbreve" unicode="&#x11f;" horiz-adv-x="548" 
d="M542 680c-40 -71 -105 -106 -195 -106c-91 0 -144 35 -159 106c-4 19 2 27 23 35l69 24c23 8 29 5 36 -12c8 -21 25 -32 50 -32s45 11 61 33c12 16 18 19 37 12l66 -25c17 -7 21 -19 12 -35zM35 244l14 82c25 144 116 209 281 209c83 0 147 -11 191 -34
c31 -15 36 -25 29 -58l-80 -452c-25 -149 -117 -224 -274 -224c-105 0 -174 35 -205 104c-12 25 -2 45 29 58l85 39c32 12 41 9 52 -10c14 -24 34 -36 59 -36c37 0 59 19 66 58l7 40c-28 -4 -50 -6 -67 -6c-149 0 -212 90 -187 230zM347 369c-9 3 -22 4 -40 4
c-42 0 -66 -18 -73 -55l-16 -93c-6 -33 10 -50 48 -50c1 0 18 2 51 5l32 184c1 2 1 4 -2 5z" />
    <glyph glyph-name="Gdotaccent" unicode="&#x120;" horiz-adv-x="675" 
d="M471 925h6c59 0 73 -16 62 -75l-2 -8c-11 -59 -30 -75 -87 -75h-6c-59 0 -74 16 -63 75l2 8c9 57 29 75 88 75zM395 408h253c31 0 39 -11 34 -43l-25 -145c-25 -145 -151 -235 -346 -235c-97 0 -168 27 -213 81s-60 125 -45 213l32 181c29 173 153 265 352 265
c145 0 229 -59 252 -178c7 -31 -3 -45 -35 -54l-102 -31c-33 -9 -43 -4 -50 27c-10 41 -41 61 -94 61c-77 0 -115 -33 -128 -104l-32 -182c-12 -71 14 -104 91 -104c68 0 113 25 121 68l3 20h-96c-32 0 -40 10 -35 42l13 75c7 32 18 43 50 43z" />
    <glyph glyph-name="gdotaccent" unicode="&#x121;" horiz-adv-x="548" 
d="M371 736h6c57 0 72 -16 61 -75l-2 -8c-9 -57 -28 -75 -87 -75h-6c-57 0 -73 16 -62 75l2 8c9 57 29 75 88 75zM35 244l14 82c25 144 116 209 281 209c83 0 147 -11 191 -34c31 -15 36 -25 29 -58l-80 -452c-25 -149 -117 -224 -274 -224c-105 0 -174 35 -205 104
c-12 25 -2 45 29 58l85 39c32 12 41 9 52 -10c14 -24 34 -36 59 -36c37 0 59 19 66 58l7 40c-28 -4 -50 -6 -67 -6c-149 0 -212 90 -187 230zM347 369c-9 3 -22 4 -40 4c-42 0 -66 -18 -73 -55l-16 -93c-6 -33 10 -50 48 -50c1 0 18 2 51 5l32 184c1 2 1 4 -2 5z" />
    <glyph glyph-name="Gcommaaccent" unicode="&#x122;" horiz-adv-x="675" 
d="M395 408h253c31 0 39 -11 34 -43l-25 -145c-25 -145 -151 -235 -346 -235c-97 0 -168 27 -213 81s-60 125 -45 213l32 181c29 173 153 265 352 265c145 0 229 -59 252 -178c7 -31 -3 -45 -35 -54l-102 -31c-33 -9 -43 -4 -50 27c-10 41 -41 61 -94 61
c-77 0 -115 -33 -128 -104l-32 -182c-12 -71 14 -104 91 -104c68 0 113 25 121 68l3 20h-96c-32 0 -40 10 -35 42l13 75c7 32 18 43 50 43zM393 -90l-73 -137c-11 -22 -29 -33 -52 -33h-63c-21 0 -28 10 -21 30l41 140c8 31 22 42 51 42h90c32 0 41 -14 27 -42z" />
    <glyph glyph-name="gcommaaccent" unicode="&#x123;" horiz-adv-x="548" 
d="M267 618l66 114c15 27 23 33 52 33h58c24 0 31 -8 26 -29l-35 -118c-11 -36 -18 -45 -50 -45h-84c-37 0 -48 15 -33 45zM35 244l14 82c25 144 116 209 281 209c83 0 147 -11 191 -34c31 -15 36 -25 29 -58l-80 -452c-25 -149 -117 -224 -274 -224
c-105 0 -174 35 -205 104c-12 25 -2 45 29 58l85 39c32 12 41 9 52 -10c14 -24 34 -36 59 -36c37 0 59 19 66 58l7 40c-28 -4 -50 -6 -67 -6c-149 0 -212 90 -187 230zM347 369c-9 3 -22 4 -40 4c-42 0 -66 -18 -73 -55l-16 -93c-6 -33 10 -50 48 -50c1 0 18 2 51 5l32 184
c1 2 1 4 -2 5z" />
    <glyph glyph-name="Hcircumflex" unicode="&#x124;" horiz-adv-x="692" 
d="M447 920h32c36 0 45 -3 66 -30l85 -102c15 -16 10 -34 -21 -34h-82c-41 0 -52 2 -64 21l-22 36l-37 -35c-20 -20 -29 -22 -69 -22h-80c-32 0 -27 19 -10 34l120 102c33 28 39 30 82 30zM561 711h114c31 0 39 -11 34 -43l-110 -626c-7 -31 -18 -42 -50 -42h-113
c-32 0 -42 11 -35 42l40 230h-193l-41 -230c-5 -31 -18 -42 -50 -42h-113c-32 0 -40 11 -35 42l111 626c7 32 18 43 50 43h113c32 0 40 -11 35 -43l-39 -221h193l39 221c5 32 19 43 50 43z" />
    <glyph glyph-name="hcircumflex" unicode="&#x125;" horiz-adv-x="558" 
d="M134 783h-81c-33 0 -26 18 -9 34l120 102c33 28 39 30 82 30h27c36 0 44 -3 67 -30l84 -102c15 -16 10 -34 -21 -34h-78c-41 0 -51 2 -62 21l-23 36l-37 -35c-19 -19 -30 -22 -69 -22zM341 535c151 0 211 -79 187 -219l-49 -278c-5 -28 -17 -38 -45 -38h-110
c-29 0 -36 10 -31 38l48 274c7 37 -10 55 -50 55c-21 0 -37 -1 -48 -4l-57 -325c-5 -28 -17 -38 -46 -38h-109c-29 0 -37 10 -32 38l117 664c5 28 17 38 46 38h109c29 0 37 -10 32 -38l-31 -171c24 3 47 4 69 4z" />
    <glyph glyph-name="Hbar" unicode="&#x126;" horiz-adv-x="720" 
d="M716 629h37c19 0 23 -6 19 -26l-9 -54c-4 -21 -10 -26 -29 -26h-38l-84 -481c-7 -31 -18 -42 -50 -42h-113c-32 0 -42 11 -35 42l40 230h-193l-41 -230c-5 -31 -18 -42 -50 -42h-113c-32 0 -40 11 -35 42l85 481h-37c-19 0 -23 5 -19 26l9 54c3 17 13 26 30 26h36l7 39
c7 32 18 43 50 43h113c32 0 40 -11 35 -43l-7 -39h194l6 39c7 32 18 43 50 43h113c32 0 40 -11 35 -43zM498 523h-193l-13 -76h193z" />
    <glyph glyph-name="hbar" unicode="&#x127;" horiz-adv-x="558" 
d="M282 581l-10 -50c24 3 47 4 69 4c151 0 211 -79 187 -219l-49 -278c-5 -28 -17 -38 -45 -38h-110c-29 0 -36 10 -31 38l48 274c7 37 -10 55 -50 55c-21 0 -37 -1 -48 -4l-57 -325c-5 -28 -17 -38 -46 -38h-109c-29 0 -37 10 -32 38l96 543h-34c-20 0 -24 6 -20 27l8 45
c3 17 12 26 29 26h34l4 23c5 28 17 38 46 38h109c29 0 37 -10 32 -38l-4 -23h91c19 0 24 -6 20 -26l-8 -45c-4 -21 -10 -27 -29 -27h-91z" />
    <glyph glyph-name="Itilde" unicode="&#x128;" horiz-adv-x="300" 
d="M347 909h61c17 0 22 -7 19 -23c-16 -89 -54 -123 -119 -123c-28 0 -54 7 -78 21c-25 14 -41 21 -48 21c-9 0 -15 -7 -18 -22c-3 -13 -10 -20 -23 -20h-61c-16 0 -22 8 -19 23c15 91 54 123 117 123c29 0 55 -7 80 -20c25 -14 41 -21 48 -21c10 0 16 7 19 22
c3 13 10 19 22 19zM9 40l111 630c7 31 18 40 47 40h118c31 0 38 -11 33 -40l-111 -630c-5 -29 -16 -40 -47 -40h-118c-29 0 -38 9 -33 40z" />
    <glyph glyph-name="itilde" unicode="&#x129;" horiz-adv-x="269" 
d="M282 738h55c14 0 19 -8 16 -24c-17 -92 -53 -125 -109 -125c-22 0 -42 7 -60 20s-30 19 -37 19c-10 0 -16 -7 -19 -20s-9 -20 -19 -20h-58c-13 0 -18 8 -15 24c15 84 50 126 107 126c23 0 45 -7 64 -21s32 -21 38 -21c9 0 15 7 17 22c3 13 9 20 20 20zM123 520h109
c29 0 37 -10 32 -38l-78 -444c-5 -28 -17 -38 -46 -38h-109c-29 0 -37 10 -32 38l78 444c5 28 17 38 46 38z" />
    <glyph glyph-name="Imacron" unicode="&#x12a;" horiz-adv-x="300" 
d="M136 892h244c29 0 35 -7 30 -36l-7 -42c-7 -29 -14 -36 -43 -36h-244c-28 0 -34 8 -29 36l7 42c5 28 15 36 42 36zM9 40l111 630c7 31 18 40 47 40h118c31 0 38 -11 33 -40l-111 -630c-5 -29 -16 -40 -47 -40h-118c-29 0 -38 9 -33 40z" />
    <glyph glyph-name="imacron" unicode="&#x12b;" horiz-adv-x="269" 
d="M102 707h206c21 0 25 -7 20 -35l-7 -42c-5 -29 -11 -36 -32 -36h-207c-21 0 -25 7 -20 36l7 42c5 27 14 35 33 35zM123 520h109c29 0 37 -10 32 -38l-78 -444c-5 -28 -17 -38 -46 -38h-109c-29 0 -37 10 -32 38l78 444c5 28 17 38 46 38z" />
    <glyph glyph-name="Ibreve" unicode="&#x12c;" horiz-adv-x="300" 
d="M430 860c-39 -71 -105 -106 -196 -106c-87 0 -144 38 -157 106c-3 16 4 28 23 35l71 25c23 8 28 5 35 -12c9 -22 26 -33 50 -33c23 0 43 11 59 33c13 17 19 18 39 13l65 -26c17 -7 21 -18 11 -35zM9 40l111 630c7 31 18 40 47 40h118c31 0 38 -11 33 -40l-111 -630
c-5 -29 -16 -40 -47 -40h-118c-29 0 -38 9 -33 40z" />
    <glyph glyph-name="ibreve" unicode="&#x12d;" horiz-adv-x="269" 
d="M302 740l66 -25c17 -7 20 -19 11 -35c-39 -71 -102 -106 -190 -106c-90 0 -142 35 -155 106c-4 19 2 27 23 35l70 25c24 7 29 5 37 -12c8 -24 19 -32 44 -32c22 0 41 11 57 32c12 16 18 19 37 12zM123 520h109c29 0 37 -10 32 -38l-78 -444c-5 -28 -17 -38 -46 -38h-109
c-29 0 -37 10 -32 38l78 444c5 28 17 38 46 38z" />
    <glyph glyph-name="Iogonek" unicode="&#x12e;" horiz-adv-x="300" 
d="M163 -134l13 -47c3 -13 -1 -23 -11 -30c-34 -23 -73 -35 -118 -35c-61 0 -93 24 -95 72c-1 57 33 115 101 174c-45 0 -53 10 -46 45l110 625c7 31 18 40 47 40h118c31 0 38 -11 33 -40l-111 -630c-3 -17 -9 -29 -19 -36c-51 -45 -78 -85 -79 -120c0 -12 5 -18 15 -18
c5 0 12 2 19 6c13 7 21 5 23 -6z" />
    <glyph glyph-name="iogonek" unicode="&#x12f;" horiz-adv-x="269" 
d="M210 563h-50c-57 0 -72 18 -61 74l1 11c11 56 32 74 88 74h50c57 0 72 -18 61 -74l-2 -11c-11 -56 -30 -74 -87 -74zM153 -135l11 -46c3 -13 0 -23 -10 -30c-34 -23 -73 -35 -116 -35c-61 0 -92 22 -95 67c-3 54 30 114 97 179c-37 0 -47 11 -40 43l77 439
c5 28 17 38 46 38h109c29 0 37 -10 32 -38l-78 -444c-3 -15 -9 -26 -16 -31c-47 -46 -72 -87 -73 -123c0 -12 5 -18 15 -18c6 0 12 2 18 5c13 8 21 6 23 -6z" />
    <glyph glyph-name="Idot" unicode="&#x130;" horiz-adv-x="300" 
d="M260 915h6c57 0 72 -16 61 -75l-2 -8c-11 -59 -30 -75 -87 -75h-6c-57 0 -72 16 -63 75l2 8c11 59 30 75 89 75zM9 40l111 630c7 31 18 40 47 40h118c31 0 38 -11 33 -40l-111 -630c-5 -29 -16 -40 -47 -40h-118c-29 0 -38 9 -33 40z" />
    <glyph glyph-name="dotlessi" unicode="&#x131;" horiz-adv-x="269" 
d="M123 520h109c29 0 37 -10 32 -38l-78 -444c-5 -28 -17 -38 -46 -38h-109c-29 0 -37 10 -32 38l78 444c5 28 17 38 46 38z" />
    <glyph glyph-name="IJ" unicode="&#x132;" horiz-adv-x="886" 
d="M759 711h116c31 0 38 -11 33 -42l-77 -439c-29 -165 -128 -245 -309 -245c-135 0 -214 61 -235 170c-5 29 4 43 36 54l99 33c32 12 45 5 52 -24c9 -39 34 -58 74 -58c49 0 78 29 88 86l74 423c7 31 18 42 49 42zM9 40l111 630c7 31 18 40 47 40h118c31 0 38 -11 33 -40
l-111 -630c-5 -29 -16 -40 -47 -40h-118c-29 0 -38 9 -33 40z" />
    <glyph glyph-name="ij" unicode="&#x133;" horiz-adv-x="540" 
d="M188 722h50c57 0 72 -18 61 -74l-2 -11c-11 -56 -30 -74 -87 -74h-50c-57 0 -72 18 -61 74l1 11c11 56 32 74 88 74zM458 722h50c56 0 71 -18 60 -74l-1 -11c-11 -56 -31 -74 -88 -74h-50c-56 0 -70 18 -61 74l2 11c11 56 31 74 88 74zM123 520h109c29 0 37 -10 32 -38
l-78 -444c-5 -28 -17 -38 -46 -38h-109c-29 0 -37 10 -32 38l78 444c5 28 17 38 46 38zM393 520h108c29 0 37 -10 32 -38l-86 -492c-28 -151 -124 -220 -293 -220c-31 0 -38 10 -33 39l15 85c5 29 17 40 46 40c46 0 73 23 80 68l85 480c5 28 17 38 46 38z" />
    <glyph glyph-name="Jcircumflex" unicode="&#x134;" horiz-adv-x="582" 
d="M539 920h32c36 0 45 -3 66 -30l85 -102c15 -16 8 -34 -21 -34h-82c-41 0 -52 2 -64 21l-22 36l-37 -35c-20 -20 -30 -22 -69 -22h-80c-31 0 -31 18 -10 34l120 102c33 28 39 30 82 30zM456 711h115c31 0 39 -11 34 -42l-77 -439c-29 -163 -132 -245 -309 -245
c-135 0 -213 57 -235 170c-5 29 3 43 35 54l100 33c32 12 44 7 51 -24c9 -39 34 -58 74 -58c49 0 78 29 88 86l75 423c7 32 17 42 49 42z" />
    <glyph glyph-name="jcircumflex" unicode="&#x135;" horiz-adv-x="270" 
d="M204 735h26c36 0 44 -3 65 -28l83 -100c15 -16 10 -34 -21 -34h-74c-40 0 -51 4 -62 21l-22 35l-37 -35c-19 -17 -30 -21 -67 -21h-79c-33 0 -26 18 -9 34l117 100c31 27 37 28 80 28zM124 520h107c29 0 38 -10 33 -38l-87 -492c-27 -151 -122 -220 -293 -220
c-29 0 -37 10 -32 39l15 85c5 31 17 40 46 40c46 0 73 23 80 68l84 480c5 28 18 38 47 38z" />
    <glyph glyph-name="Kcommaaccent" unicode="&#x136;" horiz-adv-x="654" 
d="M517 299l88 -250c9 -28 -3 -49 -35 -49h-108c-53 0 -69 7 -81 42l-56 179c-11 35 -24 50 -60 50h-17l-40 -229c-7 -31 -18 -42 -50 -42h-113c-32 0 -42 11 -35 42l110 626c7 31 18 42 50 42h113c32 0 42 -11 35 -42l-39 -222h13h9l183 227c13 16 24 26 34 31
c10 4 27 6 52 6h116c31 0 37 -17 17 -44l-237 -294c22 -15 39 -40 51 -73zM359 -90l-73 -137c-11 -22 -29 -33 -52 -33h-63c-21 0 -28 10 -21 30l41 140c8 31 22 42 51 42h90c32 0 41 -14 27 -42z" />
    <glyph glyph-name="kcommaaccent" unicode="&#x137;" horiz-adv-x="553" 
d="M436 232l57 -181c12 -36 0 -51 -41 -51h-91c-47 0 -59 6 -66 38l-24 123c-5 20 -18 30 -40 30h-19l-27 -152c-5 -29 -16 -39 -45 -39h-109c-29 0 -37 10 -32 39l117 662c5 29 17 39 46 39h109c29 0 36 -10 31 -39l-63 -361h15h6l109 144c21 29 35 36 78 36h89
c41 0 48 -16 23 -49l-147 -194c11 -11 19 -26 24 -45zM306 -87l-61 -112c-15 -28 -27 -35 -58 -35h-57c-24 0 -29 6 -22 29l31 118c9 33 22 44 57 44h85c33 0 41 -15 25 -44z" />
    <glyph glyph-name="kgreenlandic" unicode="&#x138;" horiz-adv-x="561" 
d="M407 312l73 -263c9 -33 -5 -49 -43 -49h-91c-48 0 -59 5 -67 36l-35 127l-49 -46l-19 -77c-8 -31 -20 -40 -51 -40h-105c-31 0 -38 9 -30 40l108 441c7 29 19 39 50 39h106c31 0 38 -10 31 -39l-31 -106l121 111c28 28 39 34 79 34h113c39 0 41 -20 13 -44z" />
    <glyph glyph-name="Lacute" unicode="&#x139;" horiz-adv-x="542" 
d="M117 833l155 81c31 15 53 14 66 -3l41 -58c15 -20 12 -31 -13 -40l-191 -56c-24 -8 -38 -8 -46 5l-21 33c-11 17 -8 29 9 38zM169 710h113c32 0 41 -11 36 -42l-87 -493h240c32 0 40 -10 35 -42l-16 -91c-7 -31 -18 -42 -50 -42h-396c-32 0 -40 11 -35 42l111 626
c5 31 17 42 49 42z" />
    <glyph glyph-name="lacute" unicode="&#x13a;" horiz-adv-x="272" 
d="M94 861l166 86c31 16 52 15 63 -3l39 -63c14 -21 13 -34 -12 -40l-198 -59c-24 -8 -39 -7 -45 3l-22 38c-12 17 -10 29 9 38zM304 702l-117 -664c-5 -28 -17 -38 -46 -38h-109c-29 0 -37 10 -32 38l117 664c5 28 17 38 46 38h109c29 0 37 -10 32 -38z" />
    <glyph glyph-name="Lcommaaccent" unicode="&#x13b;" horiz-adv-x="542" 
d="M169 710h113c32 0 41 -11 36 -42l-87 -493h240c32 0 40 -10 35 -42l-16 -91c-7 -31 -18 -42 -50 -42h-396c-32 0 -40 11 -35 42l111 626c5 31 17 42 49 42zM304 -90l-73 -137c-11 -22 -28 -33 -51 -33h-64c-21 0 -26 9 -21 30l42 140c8 31 22 42 51 42h90
c33 0 41 -14 26 -42z" />
    <glyph glyph-name="lcommaaccent" unicode="&#x13c;" horiz-adv-x="272" 
d="M303 702l-117 -664c-5 -28 -16 -38 -45 -38h-110c-29 0 -36 10 -31 38l117 664c5 28 16 38 45 38h110c29 0 36 -10 31 -38zM151 -86l-63 -120c-15 -27 -27 -34 -58 -34h-61c-24 0 -27 7 -22 28l33 126c9 35 22 44 57 44h88c35 0 42 -15 26 -44z" />
    <glyph glyph-name="Lcaron" unicode="&#x13d;" horiz-adv-x="550" 
d="M169 710h113c32 0 41 -11 36 -42l-87 -493h240c32 0 40 -10 35 -42l-16 -91c-7 -31 -18 -42 -50 -42h-396c-32 0 -40 11 -35 42l111 626c5 31 17 42 49 42zM580 671l-86 -158c-15 -27 -24 -34 -52 -34h-58c-21 0 -26 6 -19 26l47 166c11 31 22 39 51 39h90
c35 0 42 -14 27 -39z" />
    <glyph glyph-name="lcaron" unicode="&#x13e;" horiz-adv-x="343" 
d="M516 701l-69 -142c-13 -28 -19 -35 -47 -35h-54c-21 0 -28 10 -22 29l38 148c8 31 15 40 44 40h76c35 0 47 -13 34 -40zM304 702l-117 -664c-5 -28 -17 -38 -46 -38h-109c-29 0 -37 10 -32 38l117 664c5 28 17 38 46 38h109c29 0 37 -10 32 -38z" />
    <glyph glyph-name="Ldot" unicode="&#x13f;" horiz-adv-x="545" 
d="M169 710h113c32 0 41 -11 36 -42l-87 -493h240c32 0 40 -10 35 -42l-16 -91c-7 -31 -18 -42 -50 -42h-396c-32 0 -40 11 -35 42l111 626c5 31 17 42 49 42zM420 500h36c57 0 71 -18 62 -74l-7 -38c-11 -56 -31 -74 -87 -74h-36c-57 0 -73 18 -62 74l7 38
c11 56 31 74 87 74z" />
    <glyph glyph-name="ldot" unicode="&#x140;" horiz-adv-x="481" 
d="M304 702l-117 -664c-5 -28 -17 -38 -46 -38h-109c-29 0 -37 10 -32 38l117 664c5 28 17 38 46 38h109c29 0 37 -10 32 -38zM392 476h38c59 0 74 -19 65 -78l-8 -41c-11 -59 -32 -78 -92 -78h-38c-60 0 -76 19 -65 78l7 41c9 59 33 78 93 78z" />
    <glyph glyph-name="Lslash" unicode="&#x141;" horiz-adv-x="584" 
d="M278 175h240c32 0 40 -10 35 -42l-16 -91c-5 -31 -18 -42 -50 -42h-396c-31 0 -39 11 -34 42l36 206l-43 -17c-20 -9 -33 -5 -39 12l-15 51c-5 17 1 29 18 36l100 42l53 296c5 31 18 42 49 42h114c31 0 40 -11 35 -42l-37 -208l121 50c21 9 34 4 40 -13l15 -50
c5 -17 -2 -29 -19 -36l-178 -74z" />
    <glyph glyph-name="lslash" unicode="&#x142;" horiz-adv-x="375" 
d="M391 483l18 -43c6 -15 0 -28 -17 -37l-94 -45l-56 -320c-5 -28 -17 -38 -46 -38h-109c-29 0 -37 10 -32 38l39 220l-28 -14c-21 -10 -34 -7 -41 10l-17 43c-6 15 -1 28 16 37l91 44l57 324c5 28 17 38 46 38h109c29 0 37 -10 32 -38l-40 -225l32 16c19 10 33 7 40 -10z
" />
    <glyph glyph-name="Nacute" unicode="&#x143;" horiz-adv-x="702" 
d="M320 833l156 81c30 16 52 15 66 -3l40 -58c15 -20 12 -31 -13 -40l-191 -56c-24 -8 -37 -8 -45 5l-21 33c-13 19 -11 27 8 38zM579 710h105c32 0 41 -11 36 -42l-111 -626c-5 -31 -18 -42 -50 -42h-110c-18 0 -30 7 -37 20l-111 237c-15 32 -25 63 -32 92s-14 67 -20 114
h-8c5 -96 1 -182 -12 -258l-29 -163c-7 -31 -18 -42 -50 -42h-105c-32 0 -42 11 -35 42l110 626c7 31 18 42 50 42h114c19 0 32 -7 39 -20l118 -256c17 -35 34 -96 52 -183h8c-7 58 -11 100 -11 127c-1 27 3 69 11 126l29 164c5 31 17 42 49 42z" />
    <glyph glyph-name="nacute" unicode="&#x144;" 
d="M208 650l154 84c31 17 53 16 66 -2l42 -56c16 -20 15 -31 -12 -40l-190 -60c-24 -8 -39 -7 -46 3l-23 33c-11 17 -8 29 9 38zM120 498c67 25 140 37 219 37c151 0 211 -80 187 -220l-49 -277c-5 -28 -17 -38 -45 -38h-110c-29 0 -36 10 -31 38l48 274c7 39 -9 55 -50 55
c-17 0 -32 -1 -45 -4c-1 -1 -3 -2 -4 -4l-56 -321c-5 -28 -17 -38 -46 -38h-109c-29 0 -37 10 -32 38l71 400c7 33 16 47 52 60z" />
    <glyph glyph-name="Ncommaaccent" unicode="&#x145;" horiz-adv-x="702" 
d="M579 710h105c32 0 41 -11 36 -42l-111 -626c-5 -31 -18 -42 -50 -42h-110c-18 0 -30 7 -37 20l-111 237c-15 32 -25 63 -32 92s-14 67 -20 114h-8c5 -96 1 -182 -12 -258l-29 -163c-7 -31 -18 -42 -50 -42h-105c-32 0 -42 11 -35 42l110 626c7 31 18 42 50 42h114
c19 0 32 -7 39 -20l118 -256c17 -35 34 -96 52 -183h8c-7 58 -11 100 -11 127c-1 27 3 69 11 126l29 164c5 31 17 42 49 42zM385 -90l-73 -137c-11 -22 -28 -33 -51 -33h-64c-21 0 -26 9 -21 30l41 140c9 31 23 42 52 42h89c33 0 42 -14 27 -42z" />
    <glyph glyph-name="ncommaaccent" unicode="&#x146;" 
d="M120 498c67 25 140 37 219 37c151 0 211 -80 187 -220l-49 -277c-5 -28 -17 -38 -45 -38h-110c-29 0 -36 10 -31 38l48 274c7 39 -9 55 -50 55c-17 0 -32 -1 -45 -4c-1 -1 -3 -2 -4 -4l-56 -321c-5 -28 -17 -38 -46 -38h-109c-29 0 -37 10 -32 38l71 400
c7 33 16 47 52 60zM304 -77l-63 -116c-16 -28 -30 -35 -59 -35h-58c-23 0 -27 6 -20 29l33 122c9 33 24 44 57 44h85c33 0 41 -15 25 -44z" />
    <glyph glyph-name="Ncaron" unicode="&#x147;" horiz-adv-x="702" 
d="M566 920h76c31 0 28 -18 7 -35l-118 -102c-32 -28 -38 -29 -80 -29h-27c-40 0 -47 2 -68 29l-83 102c-16 16 -12 35 17 35h84c40 0 50 -3 63 -22l24 -34l35 34c20 19 31 22 70 22zM579 710h105c32 0 41 -11 36 -42l-111 -626c-5 -31 -18 -42 -50 -42h-110
c-18 0 -30 7 -37 20l-111 237c-15 32 -25 63 -32 92s-14 67 -20 114h-8c5 -96 1 -182 -12 -258l-29 -163c-7 -31 -18 -42 -50 -42h-105c-32 0 -42 11 -35 42l110 626c7 31 18 42 50 42h114c19 0 32 -7 39 -20l118 -256c17 -35 34 -96 52 -183h8c-7 58 -11 100 -11 127
c-1 27 3 69 11 126l29 164c5 31 17 42 49 42z" />
    <glyph glyph-name="ncaron" unicode="&#x148;" 
d="M452 739h79c31 0 25 -19 6 -34l-118 -102c-16 -14 -28 -22 -36 -25c-9 -3 -23 -5 -44 -5h-27c-39 0 -47 3 -68 30l-83 102c-16 16 -13 34 18 34h81c40 0 50 -4 62 -21l24 -35l36 34c20 19 31 22 70 22zM339 535c151 0 211 -80 187 -220l-49 -277c-5 -28 -17 -38 -45 -38
h-110c-29 0 -36 10 -31 38l48 274c7 39 -9 55 -50 55c-17 0 -32 -1 -45 -4c-1 -1 -3 -2 -4 -4l-56 -321c-5 -28 -17 -38 -46 -38h-109c-29 0 -37 10 -32 38l71 400c7 33 16 47 52 60c67 25 140 37 219 37z" />
    <glyph glyph-name="napostrophe" unicode="&#x149;" 
d="M259 697l-104 -136c-17 -23 -24 -26 -51 -26h-73c-20 0 -26 9 -18 26l66 142c13 27 19 33 48 33h107c33 0 42 -16 25 -39zM120 498c67 25 140 37 219 37c151 0 211 -80 187 -220l-49 -277c-5 -28 -17 -38 -45 -38h-110c-29 0 -36 10 -31 38l48 274c7 39 -9 55 -50 55
c-17 0 -32 -1 -45 -4c-1 -1 -3 -2 -4 -4l-56 -321c-5 -28 -17 -38 -46 -38h-109c-29 0 -37 10 -32 38l71 400c7 33 16 47 52 60z" />
    <glyph glyph-name="Eng" unicode="&#x14a;" horiz-adv-x="702" 
d="M577 710h107c32 0 41 -11 36 -42l-120 -678c-27 -151 -122 -220 -293 -220c-29 0 -37 10 -32 39l15 85c5 31 17 40 46 40c44 0 70 23 78 68l1 9l-114 246c-15 33 -26 63 -33 92c-7 28 -13 66 -19 114h-8c5 -96 1 -182 -12 -258l-29 -163c-7 -31 -18 -42 -50 -42h-105
c-32 0 -42 11 -35 42l110 626c7 31 18 42 50 42h113c19 0 31 -7 38 -20l119 -256c15 -32 26 -68 31 -87c3 -17 16 -76 20 -96h8c-7 58 -11 100 -11 127c-1 27 3 69 11 126l29 164c5 31 18 42 49 42z" />
    <glyph glyph-name="eng" unicode="&#x14b;" 
d="M120 498c67 25 140 37 219 37c151 0 211 -80 187 -220l-58 -329c-27 -149 -120 -216 -288 -216c-29 0 -37 10 -32 39l15 84c4 28 16 38 45 38c43 0 68 22 75 67l56 314c7 39 -9 55 -50 55c-17 0 -32 -1 -45 -4c-1 -1 -3 -2 -4 -4l-56 -321c-5 -28 -17 -38 -46 -38h-109
c-29 0 -37 10 -32 38l71 400c7 33 16 47 52 60z" />
    <glyph glyph-name="Omacron" unicode="&#x14c;" horiz-adv-x="682" 
d="M347 902h244c29 0 36 -7 31 -36l-8 -42c-5 -29 -14 -36 -43 -36h-244c-28 0 -34 7 -29 36l8 42c5 28 16 36 41 36zM51 274l32 181c31 173 155 270 352 270c97 0 168 -27 214 -80c45 -53 60 -124 45 -212l-31 -181c-31 -172 -155 -267 -352 -267c-97 0 -169 26 -214 79
c-45 52 -61 122 -46 210zM465 256l35 198c11 63 -23 96 -92 96c-73 0 -116 -32 -127 -96l-35 -198c-11 -63 22 -96 93 -96c73 0 115 32 126 96z" />
    <glyph glyph-name="omacron" unicode="&#x14d;" horiz-adv-x="550" 
d="M466 596h-244c-28 0 -34 7 -29 36l7 42c5 28 17 36 42 36h244c29 0 35 -7 30 -36l-7 -42c-5 -29 -14 -36 -43 -36zM333 535c160 0 234 -87 210 -226l-19 -112c-25 -137 -123 -212 -286 -212c-159 0 -233 87 -209 226l19 112c25 137 124 212 285 212zM338 199l21 122
c7 36 -10 54 -53 54c-41 0 -65 -18 -72 -54l-21 -122c-7 -35 10 -53 52 -53c41 0 66 18 73 53z" />
    <glyph glyph-name="Obreve" unicode="&#x14e;" horiz-adv-x="682" 
d="M642 870c-41 -71 -106 -106 -196 -106c-88 0 -143 38 -158 106c-3 16 4 28 23 35l71 25c23 8 28 5 35 -12c9 -22 25 -33 50 -33c23 0 43 11 59 33c13 17 20 20 39 13l65 -26c17 -7 21 -18 12 -35zM51 274l32 181c31 173 155 270 352 270c97 0 168 -27 214 -80
c45 -53 60 -124 45 -212l-31 -181c-31 -172 -155 -267 -352 -267c-97 0 -169 26 -214 79c-45 52 -61 122 -46 210zM465 256l35 198c11 63 -23 96 -92 96c-73 0 -116 -32 -127 -96l-35 -198c-11 -63 22 -96 93 -96c73 0 115 32 126 96z" />
    <glyph glyph-name="obreve" unicode="&#x14f;" horiz-adv-x="550" 
d="M537 680c-39 -71 -103 -106 -194 -106c-88 0 -146 38 -159 106c-4 19 2 27 23 35l68 24c24 8 29 5 37 -12c8 -21 25 -32 50 -32s45 11 60 33c13 16 18 19 38 12l66 -25c19 -8 20 -16 11 -35zM29 211l19 112c25 137 124 212 285 212c160 0 234 -87 210 -226l-19 -112
c-25 -137 -123 -212 -286 -212c-159 0 -233 87 -209 226zM338 199l21 122c7 36 -10 54 -53 54c-41 0 -65 -18 -72 -54l-21 -122c-7 -35 10 -53 52 -53c41 0 66 18 73 53z" />
    <glyph glyph-name="Ohungarumlaut" unicode="&#x150;" horiz-adv-x="682" 
d="M383 764l-43 8c-23 4 -21 23 -6 38l92 97c20 23 43 31 70 26l21 -5c13 7 27 8 43 3l64 -18c26 -8 25 -27 3 -43l-132 -90c-18 -13 -34 -18 -47 -15l-28 7c-13 -9 -25 -11 -37 -8zM435 725c97 0 168 -27 214 -80c45 -53 60 -124 45 -212l-31 -181
c-31 -172 -155 -267 -352 -267c-97 0 -169 26 -214 79c-45 52 -61 122 -46 210l32 181c31 173 155 270 352 270zM465 256l35 198c11 63 -23 96 -92 96c-73 0 -116 -32 -127 -96l-35 -198c-11 -63 22 -96 93 -96c73 0 115 32 126 96z" />
    <glyph glyph-name="ohungarumlaut" unicode="&#x151;" horiz-adv-x="550" 
d="M278 570l-43 8c-23 4 -21 23 -6 38l91 97c21 23 44 31 70 26l21 -5c13 7 27 8 43 3l66 -18c25 -8 25 -26 2 -43l-132 -89c-24 -16 -32 -20 -48 -15l-28 6c-13 -9 -25 -11 -36 -8zM333 535c160 0 234 -87 210 -226l-19 -112c-25 -137 -123 -212 -286 -212
c-159 0 -233 87 -209 226l19 112c25 137 124 212 285 212zM338 199l21 122c7 36 -10 54 -53 54c-41 0 -65 -18 -72 -54l-21 -122c-7 -35 10 -53 52 -53c41 0 66 18 73 53z" />
    <glyph glyph-name="OE" unicode="&#x152;" horiz-adv-x="884" 
d="M599 175h218c32 0 40 -10 35 -42l-16 -91c-5 -31 -18 -42 -50 -42h-352c-33 -10 -75 -15 -126 -15c-97 0 -167 27 -212 80s-59 124 -44 212l32 180c29 173 157 268 354 268c43 0 81 -5 114 -15h351c32 0 42 -11 35 -42l-16 -90c-5 -32 -18 -43 -50 -43h-210l-15 -89h157
c32 0 40 -11 35 -42l-16 -90c-7 -32 -18 -43 -50 -43h-157zM281 454l-35 -198c-11 -63 22 -96 93 -96c23 0 44 4 62 12l64 366c-15 8 -34 12 -57 12c-73 0 -116 -32 -127 -96z" />
    <glyph glyph-name="oe" unicode="&#x153;" horiz-adv-x="791" 
d="M458 482c44 35 95 53 154 53c143 0 208 -65 188 -180c-16 -95 -95 -150 -214 -150c-31 0 -65 2 -102 6l-4 -21c-7 -43 9 -65 48 -65c31 0 57 12 79 37c16 21 25 25 53 10l62 -34c22 -13 24 -33 6 -58c-43 -63 -119 -95 -226 -95c-56 0 -99 15 -129 45
c-40 -30 -89 -45 -147 -45c-152 0 -219 89 -195 229l19 113c25 139 114 208 268 208c61 0 108 -18 140 -53zM623 362c5 25 -8 41 -44 41s-62 -23 -69 -60l-2 -12c22 -3 42 -5 61 -5c33 0 51 12 54 36zM314 199l22 120c6 37 -8 56 -42 56c-33 0 -52 -17 -58 -51l-23 -128
c-6 -33 7 -50 40 -50c36 0 56 18 61 53z" />
    <glyph glyph-name="Racute" unicode="&#x154;" horiz-adv-x="661" 
d="M286 833l156 81c30 16 52 15 66 -3l40 -58c15 -20 12 -31 -13 -40l-191 -56c-24 -8 -37 -8 -45 5l-21 33c-13 19 -11 27 8 38zM170 710h285c152 0 234 -96 206 -249c-16 -91 -64 -157 -143 -198c6 -12 12 -26 19 -43l60 -171c9 -28 -3 -49 -35 -49h-108
c-52 0 -73 13 -84 48l-40 137c-12 39 -22 51 -62 51h-26l-34 -194c-7 -31 -18 -42 -50 -42h-113c-32 0 -42 11 -35 42l110 626c7 31 18 42 50 42zM456 470c8 40 -11 65 -54 65h-107l-24 -132h108c41 0 70 26 77 67z" />
    <glyph glyph-name="racute" unicode="&#x155;" horiz-adv-x="361" 
d="M135 650l153 84c31 17 53 16 66 -2l43 -56c15 -20 13 -31 -12 -40l-191 -60c-24 -8 -39 -7 -46 3l-22 33c-13 19 -11 29 9 38zM329 535h31c29 0 37 -10 32 -38l-15 -85c-5 -29 -16 -39 -45 -39h-38c-18 0 -34 -1 -47 -4c-3 0 -5 -2 -6 -6l-57 -325
c-5 -28 -17 -38 -46 -38h-109c-29 0 -37 10 -32 38l72 405c7 35 16 48 52 60c52 19 121 29 208 32z" />
    <glyph glyph-name="Rcommaaccent" unicode="&#x156;" horiz-adv-x="661" 
d="M170 710h285c152 0 234 -96 206 -249c-16 -91 -64 -157 -143 -198c6 -12 12 -26 19 -43l60 -171c9 -28 -3 -49 -35 -49h-108c-52 0 -73 13 -84 48l-40 137c-12 39 -22 51 -62 51h-26l-34 -194c-7 -31 -18 -42 -50 -42h-113c-32 0 -42 11 -35 42l110 626c7 31 18 42 50 42
zM456 470c8 40 -11 65 -54 65h-107l-24 -132h108c41 0 70 26 77 67zM364 -90l-73 -137c-11 -22 -28 -33 -51 -33h-64c-21 0 -26 9 -21 30l41 140c9 31 23 42 52 42h89c33 0 42 -14 27 -42z" />
    <glyph glyph-name="rcommaaccent" unicode="&#x157;" horiz-adv-x="361" 
d="M328 535h32c28 0 36 -10 31 -38l-14 -85c-7 -29 -17 -39 -45 -39h-38c-18 0 -34 -1 -47 -4c-3 0 -6 -2 -7 -6l-57 -325c-5 -28 -16 -38 -45 -38h-110c-28 0 -36 10 -31 38l71 405c7 33 17 47 52 60c52 19 121 29 208 32zM152 -83l-62 -114c-15 -27 -27 -34 -58 -34h-58
c-24 0 -28 5 -21 28l33 120c9 33 22 44 57 44h84c33 0 41 -15 25 -44z" />
    <glyph glyph-name="Rcaron" unicode="&#x158;" horiz-adv-x="661" 
d="M532 920h76c31 0 28 -18 7 -35l-118 -102c-32 -28 -38 -29 -80 -29h-27c-40 0 -47 2 -68 29l-83 102c-16 16 -12 35 17 35h84c40 0 50 -3 63 -22l24 -34l35 34c20 19 31 22 70 22zM170 710h285c152 0 234 -96 206 -249c-16 -91 -64 -157 -143 -198c6 -12 12 -26 19 -43
l60 -171c9 -28 -3 -49 -35 -49h-108c-52 0 -73 13 -84 48l-40 137c-12 39 -22 51 -62 51h-26l-34 -194c-7 -31 -18 -42 -50 -42h-113c-32 0 -42 11 -35 42l110 626c7 31 18 42 50 42zM456 470c8 40 -11 65 -54 65h-107l-24 -132h108c41 0 70 26 77 67z" />
    <glyph glyph-name="rcaron" unicode="&#x159;" horiz-adv-x="361" 
d="M378 739h79c31 0 25 -19 6 -34l-118 -102c-16 -14 -28 -22 -36 -25c-9 -3 -23 -5 -44 -5h-27c-39 0 -47 3 -68 30l-83 102c-15 16 -11 34 18 34h81c40 0 50 -4 62 -21l25 -35l35 34c20 19 31 22 70 22zM329 535h31c29 0 37 -10 32 -38l-15 -85c-5 -29 -16 -39 -45 -39
h-38c-18 0 -34 -1 -47 -4c-3 0 -5 -2 -6 -6l-57 -325c-5 -28 -17 -38 -46 -38h-109c-29 0 -37 10 -32 38l72 405c7 35 16 48 52 60c52 19 121 29 208 32z" />
    <glyph glyph-name="Sacute" unicode="&#x15a;" horiz-adv-x="642" 
d="M294 843l155 81c31 15 53 14 66 -3l41 -58c15 -20 12 -31 -13 -40l-191 -56c-24 -8 -38 -8 -46 5l-21 33c-11 17 -8 29 9 38zM73 518c24 133 138 207 327 207c143 0 215 -51 247 -148c9 -29 3 -39 -30 -52l-99 -39c-29 -12 -39 -8 -50 21c-12 35 -43 52 -92 52
c-63 0 -98 -17 -104 -52c-7 -39 33 -50 121 -61c112 -17 256 -67 222 -251c-26 -140 -138 -210 -337 -210c-152 0 -255 55 -275 155c-5 27 8 45 37 55l100 34c32 11 46 6 55 -22c12 -35 46 -53 103 -53c71 0 111 19 118 57c7 36 -31 48 -107 59c-55 8 -90 14 -141 38
c-25 12 -45 26 -60 43c-29 33 -47 92 -35 167z" />
    <glyph glyph-name="sacute" unicode="&#x15b;" horiz-adv-x="516" 
d="M192 650l153 84c31 17 53 16 66 -2l43 -56c15 -20 13 -31 -12 -40l-191 -60c-24 -8 -39 -7 -46 3l-22 33c-13 19 -11 29 9 38zM47 375c19 107 102 160 250 160c121 0 180 -38 208 -107c9 -25 -1 -43 -30 -55l-76 -32c-35 -14 -37 -3 -50 14c-14 18 -37 27 -69 27
c-48 0 -64 -7 -67 -27c-4 -21 12 -28 76 -33c153 -13 210 -62 191 -169c-19 -108 -112 -168 -264 -168c-128 0 -201 40 -218 119c-5 25 6 42 33 52l85 28c35 9 39 5 50 -15c9 -21 32 -32 69 -32c48 0 74 10 78 31c4 25 -12 32 -89 37c-131 8 -197 59 -177 170z" />
    <glyph glyph-name="Scircumflex" unicode="&#x15c;" horiz-adv-x="642" 
d="M429 930h32c36 0 45 -3 65 -30l85 -102c15 -16 10 -34 -21 -34h-82c-41 0 -52 2 -63 21l-23 36l-37 -35c-20 -20 -29 -22 -69 -22h-80c-31 0 -29 18 -9 34l119 102c17 13 29 22 38 25s24 5 45 5zM73 518c24 133 138 207 327 207c143 0 215 -51 247 -148
c9 -29 3 -39 -30 -52l-99 -39c-29 -12 -39 -8 -50 21c-12 35 -43 52 -92 52c-63 0 -98 -17 -104 -52c-7 -39 33 -50 121 -61c112 -17 256 -67 222 -251c-26 -140 -138 -210 -337 -210c-152 0 -255 55 -275 155c-5 27 8 45 37 55l100 34c32 11 46 6 55 -22
c12 -35 46 -53 103 -53c71 0 111 19 118 57c7 36 -31 48 -107 59c-55 8 -90 14 -141 38c-25 12 -45 26 -60 43c-29 33 -47 92 -35 167z" />
    <glyph glyph-name="scircumflex" unicode="&#x15d;" horiz-adv-x="516" 
d="M425 711l84 -102c15 -16 8 -35 -21 -35h-77c-41 0 -52 3 -63 22l-23 35l-37 -35c-20 -19 -30 -22 -69 -22h-81c-32 0 -27 19 -9 35l121 102c32 28 38 29 81 29h28c36 0 43 -2 66 -29zM297 535c121 0 180 -38 208 -107c9 -25 -1 -43 -30 -55l-76 -32
c-35 -14 -37 -3 -50 14c-14 18 -37 27 -69 27c-48 0 -64 -7 -67 -27c-4 -21 12 -28 76 -33c153 -13 210 -62 191 -169c-19 -108 -112 -168 -264 -168c-128 0 -201 40 -218 119c-5 25 6 42 33 52l85 28c35 9 39 5 50 -15c9 -21 32 -32 69 -32c48 0 74 10 78 31
c4 25 -12 32 -89 37c-131 8 -197 59 -177 170c19 107 102 160 250 160z" />
    <glyph glyph-name="Scedilla" unicode="&#x15e;" horiz-adv-x="642" 
d="M73 518c24 133 138 207 327 207c143 0 215 -51 247 -148c9 -29 3 -39 -30 -52l-99 -39c-29 -12 -39 -8 -50 21c-12 35 -43 52 -92 52c-63 0 -98 -17 -104 -52c-7 -39 33 -50 121 -61c112 -17 256 -67 222 -251c-21 -121 -109 -189 -262 -206l-22 -41h6
c59 -1 84 -47 67 -104c-19 -67 -84 -95 -163 -95c-24 0 -49 5 -75 15c-17 7 -24 17 -21 31l7 42c3 22 15 27 34 16c18 -10 36 -15 54 -15c23 0 36 8 39 23c3 16 -8 22 -40 22h-20c-19 0 -22 9 -10 27l46 75c-141 7 -233 60 -252 155c-5 27 8 45 37 55l100 34
c32 11 46 6 55 -22c12 -35 46 -53 103 -53c71 0 111 19 118 57c7 36 -31 48 -107 59c-55 8 -90 14 -141 38c-25 12 -45 26 -60 43c-29 33 -47 92 -35 167z" />
    <glyph glyph-name="scedilla" unicode="&#x15f;" horiz-adv-x="516" 
d="M47 375c19 107 102 160 250 160c121 0 180 -38 208 -107c9 -25 -1 -43 -30 -55l-76 -32c-35 -14 -37 -3 -50 14c-14 18 -37 27 -69 27c-48 0 -64 -7 -67 -27c-4 -21 12 -28 76 -33c153 -13 210 -62 191 -169c-15 -89 -83 -147 -194 -163l-22 -40h6c59 -1 84 -47 67 -104
c-19 -68 -84 -96 -163 -96c-23 0 -48 5 -75 16c-17 7 -24 17 -21 31l7 42c3 22 15 27 34 16c18 -10 36 -15 54 -15c23 0 36 8 39 23s-10 22 -40 22h-20c-17 0 -21 9 -11 27l46 74c-111 6 -174 45 -189 118c-5 25 6 42 33 52l85 28c35 9 39 5 50 -15c9 -21 32 -32 69 -32
c48 0 74 10 78 31c4 25 -12 32 -89 37c-131 8 -197 59 -177 170z" />
    <glyph glyph-name="Scaron" unicode="&#x160;" horiz-adv-x="642" 
d="M540 930h76c31 0 26 -18 7 -35l-118 -102c-33 -28 -38 -29 -81 -29h-27c-39 0 -47 2 -68 29l-83 102c-15 16 -11 35 18 35h84c40 0 50 -3 62 -22l25 -34l35 34c20 19 31 22 70 22zM73 518c24 133 138 207 327 207c143 0 215 -51 247 -148c9 -29 3 -39 -30 -52l-99 -39
c-29 -12 -39 -8 -50 21c-12 35 -43 52 -92 52c-63 0 -98 -17 -104 -52c-7 -39 33 -50 121 -61c112 -17 256 -67 222 -251c-26 -140 -138 -210 -337 -210c-152 0 -255 55 -275 155c-5 27 8 45 37 55l100 34c32 11 46 6 55 -22c12 -35 46 -53 103 -53c71 0 111 19 118 57
c7 36 -31 48 -107 59c-55 8 -90 14 -141 38c-25 12 -45 26 -60 43c-29 33 -47 92 -35 167z" />
    <glyph glyph-name="scaron" unicode="&#x161;" horiz-adv-x="516" 
d="M435 739h79c31 0 25 -19 6 -34l-118 -102c-16 -14 -28 -22 -36 -25c-9 -3 -23 -5 -44 -5h-27c-39 0 -47 3 -68 30l-83 102c-15 16 -11 34 18 34h81c40 0 50 -4 62 -21l25 -35l35 34c20 19 31 22 70 22zM297 535c121 0 180 -38 208 -107c9 -25 -1 -43 -30 -55l-76 -32
c-35 -14 -37 -3 -50 14c-14 18 -37 27 -69 27c-48 0 -64 -7 -67 -27c-4 -21 12 -28 76 -33c153 -13 210 -62 191 -169c-19 -108 -112 -168 -264 -168c-128 0 -201 40 -218 119c-5 25 6 42 33 52l85 28c35 9 39 5 50 -15c9 -21 32 -32 69 -32c48 0 74 10 78 31
c4 25 -12 32 -89 37c-131 8 -197 59 -177 170c19 107 102 160 250 160z" />
    <glyph glyph-name="Tcaron" unicode="&#x164;" horiz-adv-x="602" 
d="M513 920h76c31 0 28 -18 7 -35l-118 -102c-16 -13 -28 -21 -36 -24c-9 -3 -23 -5 -44 -5h-27c-39 0 -47 2 -68 29l-83 102c-16 16 -13 35 18 35h84c40 0 49 -3 62 -22l24 -34l35 34c20 19 33 22 70 22zM129 710h495c32 0 42 -11 35 -42l-16 -90c-5 -32 -18 -43 -50 -43
h-148l-87 -493c-7 -31 -18 -42 -50 -42h-113c-32 0 -42 11 -35 42l87 493h-149c-32 0 -40 11 -35 43l16 90c7 31 18 42 50 42z" />
    <glyph glyph-name="tcaron" unicode="&#x165;" horiz-adv-x="399" 
d="M554 698l-63 -109c-15 -27 -28 -34 -56 -34h-57c-23 0 -25 5 -20 28l29 115c8 32 22 42 55 42h87c34 0 42 -14 25 -42zM189 640h110c28 0 36 -10 32 -38l-15 -82h70c28 0 36 -10 31 -38l-13 -75c-5 -29 -17 -39 -45 -39h-69l-27 -147c-9 -53 5 -70 56 -70
c31 0 38 -10 33 -39l-16 -86c-5 -29 -15 -39 -46 -39c-177 -3 -244 57 -215 221l28 160h-43c-29 0 -37 10 -32 39l14 75c5 28 16 38 44 38h44l14 82c5 28 17 38 45 38z" />
    <glyph glyph-name="Tbar" unicode="&#x166;" horiz-adv-x="615" 
d="M135 710h495c32 0 42 -11 35 -42l-16 -90c-5 -32 -18 -43 -50 -43h-148l-29 -163h96c19 0 24 -6 20 -26l-12 -67c-4 -21 -10 -27 -30 -27h-95l-37 -210c-7 -31 -18 -42 -50 -42h-113c-32 0 -42 11 -35 42l37 210h-95c-20 0 -24 6 -20 27l11 67c3 17 13 26 30 26h95
l29 163h-149c-32 0 -40 11 -35 43l16 90c7 31 18 42 50 42z" />
    <glyph glyph-name="tbar" unicode="&#x167;" horiz-adv-x="400" 
d="M189 640h109c29 0 37 -9 32 -38l-14 -82h69c29 0 36 -9 32 -38l-14 -75c-5 -29 -16 -38 -44 -38h-70l-9 -53h68c19 0 23 -6 19 -26l-7 -46c-4 -21 -10 -27 -29 -27h-69l-1 -5c-8 -49 9 -60 57 -60c29 0 38 -9 33 -40l-15 -86c-5 -29 -17 -39 -46 -39
c-177 -3 -244 57 -216 222l2 8h-44c-19 0 -23 6 -19 27l8 46c3 17 13 26 29 26h43l10 53h-44c-29 0 -36 9 -31 38l13 75c5 29 16 38 45 38h43l15 82c5 29 16 38 45 38z" />
    <glyph glyph-name="Utilde" unicode="&#x168;" horiz-adv-x="692" 
d="M562 909h60c17 0 22 -7 19 -23c-16 -89 -52 -123 -119 -123c-28 0 -54 7 -78 21s-40 21 -47 21c-10 0 -16 -7 -19 -22c-2 -13 -9 -20 -22 -20h-62c-16 0 -22 8 -19 23c15 91 54 123 117 123c29 0 56 -7 81 -20c25 -14 41 -21 48 -21c9 0 15 7 18 22c3 13 10 19 23 19z
M330 668l-74 -416c-11 -61 19 -92 88 -92s108 31 119 92l74 416c5 31 18 42 49 42h114c31 0 40 -11 35 -42l-75 -423c-31 -169 -147 -260 -343 -260c-97 0 -167 27 -211 82c-44 54 -58 124 -43 211l69 390c7 31 18 42 50 42h113c32 0 42 -11 35 -42z" />
    <glyph glyph-name="utilde" unicode="&#x169;" 
d="M457 731h60c17 0 23 -8 20 -23c-16 -91 -53 -123 -120 -123c-28 0 -54 7 -78 21c-24 13 -40 20 -48 20c-9 0 -15 -7 -18 -22c-2 -13 -10 -19 -23 -19h-61c-15 0 -22 8 -19 23c16 89 56 123 117 123c29 0 56 -7 81 -21s41 -21 48 -21c10 0 16 7 18 22c3 13 10 20 23 20z
M426 520h109c29 0 37 -10 32 -38l-71 -400c-7 -33 -16 -47 -52 -60c-67 -25 -140 -37 -219 -37c-149 0 -210 85 -185 226l47 271c5 28 17 38 46 38h109c29 0 37 -10 32 -38l-48 -274c-7 -39 8 -55 49 -55c14 0 28 1 41 4c5 1 8 4 9 9l55 316c5 28 17 38 46 38z" />
    <glyph glyph-name="Umacron" unicode="&#x16a;" horiz-adv-x="692" 
d="M351 892h244c28 0 35 -7 30 -36l-7 -42c-5 -29 -15 -36 -43 -36h-244c-28 0 -34 8 -29 36l7 42c5 28 15 36 42 36zM330 668l-74 -416c-11 -61 19 -92 88 -92s108 31 119 92l74 416c5 31 18 42 49 42h114c31 0 40 -11 35 -42l-75 -423c-31 -169 -147 -260 -343 -260
c-97 0 -167 27 -211 82c-44 54 -58 124 -43 211l69 390c7 31 18 42 50 42h113c32 0 42 -11 35 -42z" />
    <glyph glyph-name="umacron" unicode="&#x16b;" 
d="M245 710h244c29 0 35 -7 30 -36l-8 -42c-4 -29 -13 -36 -42 -36h-244c-28 0 -34 7 -30 36l8 42c5 28 15 36 42 36zM426 520h109c29 0 37 -10 32 -38l-71 -400c-7 -33 -16 -47 -52 -60c-67 -25 -140 -37 -219 -37c-149 0 -210 85 -185 226l47 271c5 28 17 38 46 38h109
c29 0 37 -10 32 -38l-48 -274c-7 -39 8 -55 49 -55c14 0 28 1 41 4c5 1 8 4 9 9l55 316c5 28 17 38 46 38z" />
    <glyph glyph-name="Ubreve" unicode="&#x16c;" horiz-adv-x="692" 
d="M645 860c-39 -71 -105 -106 -196 -106c-88 0 -144 38 -157 106c-4 16 3 28 22 35l71 25c23 8 29 5 36 -12c8 -22 24 -33 49 -33c23 0 43 11 60 33c13 17 19 20 38 13l65 -26c17 -6 21 -18 12 -35zM330 668l-74 -416c-11 -61 19 -92 88 -92s108 31 119 92l74 416
c5 31 18 42 49 42h114c31 0 40 -11 35 -42l-75 -423c-31 -169 -147 -260 -343 -260c-97 0 -167 27 -211 82c-44 54 -58 124 -43 211l69 390c7 31 18 42 50 42h113c32 0 42 -11 35 -42z" />
    <glyph glyph-name="ubreve" unicode="&#x16d;" 
d="M540 680c-39 -71 -104 -106 -195 -106s-144 35 -159 106c-4 19 1 27 24 35l68 24c23 8 29 5 36 -12c9 -21 25 -32 50 -32s45 11 61 33c13 16 18 19 37 12l67 -25c16 -7 20 -19 11 -35zM426 520h109c29 0 37 -10 32 -38l-71 -400c-7 -33 -16 -47 -52 -60
c-67 -25 -140 -37 -219 -37c-149 0 -210 85 -185 226l47 271c5 28 17 38 46 38h109c29 0 37 -10 32 -38l-48 -274c-7 -39 8 -55 49 -55c14 0 28 1 41 4c5 1 8 4 9 9l55 316c5 28 17 38 46 38z" />
    <glyph glyph-name="Uring" unicode="&#x16e;" horiz-adv-x="692" 
d="M360 770c-21 21 -28 49 -21 85s24 65 52 86c27 21 60 31 99 31c75 0 119 -46 107 -117c-13 -71 -73 -116 -148 -116c-39 0 -68 10 -89 31zM504 855c4 21 -8 36 -28 36c-25 0 -40 -12 -45 -36c-3 -20 9 -34 33 -34c20 0 37 14 40 34zM330 668l-74 -416
c-11 -61 19 -92 88 -92s108 31 119 92l74 416c5 31 18 42 49 42h114c31 0 40 -11 35 -42l-75 -423c-31 -169 -147 -260 -343 -260c-97 0 -167 27 -211 82c-44 54 -58 124 -43 211l69 390c7 31 18 42 50 42h113c32 0 42 -11 35 -42z" />
    <glyph glyph-name="uring" unicode="&#x16f;" 
d="M227 651c12 72 74 117 151 117c76 0 119 -46 106 -117c-12 -71 -72 -116 -147 -116c-77 0 -123 44 -110 116zM392 651c3 21 -9 35 -29 35c-25 0 -40 -12 -44 -35c-4 -20 8 -35 32 -35c20 0 37 14 41 35zM426 520h109c29 0 37 -10 32 -38l-71 -400c-7 -33 -16 -47 -52 -60
c-67 -25 -140 -37 -219 -37c-149 0 -210 85 -185 226l47 271c5 28 17 38 46 38h109c29 0 37 -10 32 -38l-48 -274c-7 -39 8 -55 49 -55c14 0 28 1 41 4c5 1 8 4 9 9l55 316c5 28 17 38 46 38z" />
    <glyph glyph-name="Uhungarumlaut" unicode="&#x170;" horiz-adv-x="692" 
d="M387 754l-43 8c-24 5 -23 22 -6 38l91 97c21 23 44 31 70 26l21 -5c13 7 27 8 43 3l65 -18c26 -8 25 -27 3 -43l-133 -90c-18 -13 -33 -18 -46 -15l-29 7c-12 -9 -24 -11 -36 -8zM586 710h114c31 0 40 -11 35 -42l-75 -423c-31 -169 -147 -260 -343 -260
c-97 0 -167 27 -211 82c-44 54 -58 124 -43 211l69 390c7 31 18 42 50 42h113c32 0 42 -11 35 -42l-74 -416c-11 -61 19 -92 88 -92s108 31 119 92l74 416c5 31 18 42 49 42z" />
    <glyph glyph-name="uhungarumlaut" unicode="&#x171;" 
d="M281 570l-43 8c-24 5 -23 22 -6 38l91 97c21 23 44 31 70 26l21 -4c13 6 28 7 43 2l65 -18c26 -8 25 -27 3 -43l-133 -89c-23 -16 -31 -20 -47 -15l-28 6c-13 -9 -25 -11 -36 -8zM426 520h109c29 0 37 -10 32 -38l-71 -400c-7 -33 -16 -47 -52 -60
c-67 -25 -140 -37 -219 -37c-149 0 -210 85 -185 226l47 271c5 28 17 38 46 38h109c29 0 37 -10 32 -38l-48 -274c-7 -39 8 -55 49 -55c14 0 28 1 41 4c5 1 8 4 9 9l55 316c5 28 17 38 46 38z" />
    <glyph glyph-name="Uogonek" unicode="&#x172;" horiz-adv-x="692" 
d="M586 710h114c31 0 40 -11 35 -42l-75 -423c-14 -81 -53 -147 -116 -198c-87 -71 -118 -130 -119 -162c0 -13 5 -19 15 -19c6 0 12 2 19 6c12 7 20 5 23 -6l13 -51c3 -13 -1 -22 -11 -29c-31 -21 -71 -32 -118 -32c-63 0 -94 24 -95 73c-1 53 30 106 93 160
c-11 -1 -26 -2 -47 -2c-97 0 -167 27 -211 82c-44 54 -58 124 -43 211l69 390c7 31 18 42 50 42h113c32 0 42 -11 35 -42l-74 -416c-11 -61 19 -92 88 -92s108 31 119 92l74 416c5 31 18 42 49 42z" />
    <glyph glyph-name="uogonek" unicode="&#x173;" 
d="M426 520h109c29 0 37 -10 32 -38l-71 -400c-3 -18 -8 -32 -17 -41c-67 -69 -98 -127 -98 -154c-1 -12 4 -18 15 -18c6 0 12 2 19 6c13 7 21 5 23 -6l12 -50c3 -13 -1 -23 -11 -30c-34 -23 -73 -35 -118 -35c-62 0 -94 22 -95 67c-1 54 32 111 97 171
c-33 -5 -65 -7 -98 -7c-149 0 -210 87 -185 228l47 269c5 28 17 38 46 38h109c29 0 37 -10 32 -38l-48 -274c-7 -39 8 -55 49 -55c14 0 28 1 41 4c5 1 8 4 9 9l55 316c5 28 17 38 46 38z" />
    <glyph glyph-name="Wcircumflex" unicode="&#x174;" horiz-adv-x="935" 
d="M571 920h32c36 0 45 -3 66 -30l85 -102c15 -16 10 -34 -21 -34h-82c-41 0 -52 2 -64 21l-22 36l-37 -35c-20 -20 -29 -22 -69 -22h-80c-32 0 -27 19 -10 34l120 102c33 28 39 30 82 30zM856 710h113c29 0 33 -13 20 -41l-264 -634c-12 -28 -27 -35 -58 -35h-124
c-29 0 -45 8 -46 33l-12 233c-2 60 2 120 13 180h-9c-13 -62 -31 -122 -53 -180l-94 -231c-12 -28 -28 -35 -59 -35h-120c-29 0 -45 11 -46 33l-40 636c-3 29 5 41 34 41h121c37 0 50 -6 51 -37l-1 -262c-1 -57 -7 -116 -18 -177h7c13 67 30 126 50 177l108 262
c12 31 29 37 62 37h107c35 0 49 -8 50 -37l14 -262c3 -45 -1 -104 -11 -177h8c9 49 24 108 45 177l89 262c11 29 26 37 63 37z" />
    <glyph glyph-name="wcircumflex" unicode="&#x175;" horiz-adv-x="772" 
d="M349 574h-80c-31 0 -30 19 -9 35l120 102c15 13 28 22 37 25s24 4 45 4h27c36 0 43 -2 66 -29l84 -102c16 -16 10 -35 -21 -35h-77c-41 0 -51 3 -63 22l-22 35l-37 -35c-21 -19 -31 -22 -70 -22zM677 520h92c36 0 40 -9 24 -44l-191 -442c-11 -23 -30 -34 -58 -34h-103
c-31 0 -46 11 -47 34l-9 134c-1 36 2 91 5 120l2 22h-7c-14 -55 -29 -102 -46 -142l-57 -134c-9 -23 -29 -34 -58 -34h-92c-29 0 -45 11 -47 34l-40 442c-4 35 4 44 40 44h92c47 0 57 -6 57 -38l1 -133c0 -31 -7 -92 -12 -129l-4 -27h8c15 69 30 121 43 156l54 132
c12 32 24 39 71 39h64c47 0 56 -6 56 -38l8 -133c1 -32 -4 -93 -8 -129l-4 -27h8c13 65 27 117 40 156l47 132c11 32 24 39 71 39z" />
    <glyph glyph-name="Ycircumflex" unicode="&#x176;" horiz-adv-x="673" 
d="M445 920h32c36 0 45 -3 66 -30l85 -102c15 -16 8 -34 -21 -34h-82c-41 0 -52 2 -64 21l-22 36l-37 -35c-20 -20 -30 -22 -69 -22h-80c-31 0 -31 18 -10 34l120 102c33 28 39 30 82 30zM607 710h117c32 0 31 -19 14 -42l-300 -393l-40 -233c-7 -31 -19 -42 -50 -42h-114
c-31 0 -39 11 -34 42l40 233l-160 393c-11 23 -1 42 28 42h116c53 0 65 -4 77 -37l71 -204l147 204c23 33 36 37 88 37z" />
    <glyph glyph-name="ycircumflex" unicode="&#x177;" horiz-adv-x="558" 
d="M251 574h-80c-31 0 -30 19 -9 35l120 102c15 13 28 22 37 25s24 4 45 4h27c36 0 43 -2 66 -29l84 -102c16 -16 10 -35 -21 -35h-77c-41 0 -51 3 -63 22l-22 35l-37 -35c-21 -19 -31 -22 -70 -22zM423 520h110c29 0 36 -10 31 -38l-85 -487c-27 -150 -121 -225 -280 -225
c-109 0 -168 33 -199 101c-11 25 -2 45 28 58l85 39c35 12 41 8 53 -13c13 -22 32 -33 58 -33c37 0 59 19 66 58l6 39c-18 -3 -41 -4 -68 -4c-149 0 -210 89 -185 230l42 237c5 28 16 38 45 38h110c29 0 36 -10 31 -38l-43 -244c-7 -37 10 -55 51 -55c18 0 34 1 47 4l52 295
c5 28 17 38 45 38z" />
    <glyph glyph-name="Ydieresis" unicode="&#x178;" horiz-adv-x="673" 
d="M344 914h7c56 0 71 -18 62 -71l-3 -13c-9 -53 -30 -71 -86 -71h-8c-55 0 -68 18 -59 71l3 13c9 55 28 71 84 71zM559 914h7c56 0 70 -16 61 -71l-3 -13c-9 -53 -29 -71 -85 -71h-7c-56 0 -70 18 -61 71l3 13c9 53 30 71 85 71zM607 710h117c32 0 31 -19 14 -42l-300 -393
l-40 -233c-7 -31 -19 -42 -50 -42h-114c-31 0 -39 11 -34 42l40 233l-160 393c-11 23 -1 42 28 42h116c53 0 65 -4 77 -37l71 -204l147 204c23 33 36 37 88 37z" />
    <glyph glyph-name="Zacute" unicode="&#x179;" horiz-adv-x="609" 
d="M277 833l155 81c31 15 53 14 66 -3l41 -58c15 -20 12 -31 -13 -40l-191 -56c-24 -8 -38 -8 -46 5l-21 33c-11 17 -8 29 9 38zM148 710h464c32 0 42 -11 35 -42l-10 -60c-3 -16 -11 -31 -22 -44l-349 -389h257c32 0 40 -10 35 -42l-16 -91c-7 -31 -18 -42 -50 -42h-474
c-31 0 -39 11 -34 42l10 61c3 16 10 30 21 42l349 390h-246c-32 0 -40 11 -35 43l16 90c5 31 18 42 49 42z" />
    <glyph glyph-name="zacute" unicode="&#x17a;" horiz-adv-x="492" 
d="M181 650l154 84c30 17 52 16 66 -2l42 -56c16 -20 13 -31 -12 -40l-191 -60c-24 -8 -39 -7 -45 3l-23 33c-13 19 -10 27 9 38zM231 158h177c29 0 36 -9 31 -37l-14 -83c-5 -28 -16 -38 -45 -38h-366c-29 0 -37 10 -32 38l14 78c3 16 10 29 22 40l221 206h-156
c-29 0 -36 9 -31 37l14 83c5 28 16 38 45 38h356c28 0 36 -10 31 -38l-14 -78c-3 -16 -12 -31 -28 -46z" />
    <glyph glyph-name="Zdotaccent" unicode="&#x17b;" horiz-adv-x="609" 
d="M420 915h6c57 0 72 -16 61 -75l-2 -8c-11 -59 -30 -75 -87 -75h-6c-57 0 -72 16 -63 75l2 8c11 59 30 75 89 75zM148 710h464c32 0 42 -11 35 -42l-10 -60c-3 -16 -11 -31 -22 -44l-349 -389h257c32 0 40 -10 35 -42l-16 -91c-7 -31 -18 -42 -50 -42h-474
c-31 0 -39 11 -34 42l10 61c3 16 10 30 21 42l349 390h-246c-32 0 -40 11 -35 43l16 90c5 31 18 42 49 42z" />
    <glyph glyph-name="zdotaccent" unicode="&#x17c;" horiz-adv-x="492" 
d="M324 736h6c57 0 72 -16 61 -75l-2 -8c-9 -57 -28 -75 -87 -75h-6c-57 0 -73 16 -62 75l2 8c9 57 29 75 88 75zM231 158h177c29 0 36 -9 31 -37l-14 -83c-5 -28 -16 -38 -45 -38h-366c-29 0 -37 10 -32 38l14 78c3 16 10 29 22 40l221 206h-156c-29 0 -36 9 -31 37l14 83
c5 28 16 38 45 38h356c28 0 36 -10 31 -38l-14 -78c-3 -16 -12 -31 -28 -46z" />
    <glyph glyph-name="Zcaron" unicode="&#x17d;" horiz-adv-x="609" 
d="M523 920h76c31 0 27 -19 7 -35l-118 -102c-32 -28 -38 -29 -80 -29h-28c-39 0 -47 2 -67 29l-83 102c-16 16 -12 35 17 35h84c40 0 50 -3 63 -22l24 -34l35 34c20 19 31 22 70 22zM148 710h464c32 0 42 -11 35 -42l-10 -60c-3 -16 -11 -31 -22 -44l-349 -389h257
c32 0 40 -10 35 -42l-16 -91c-7 -31 -18 -42 -50 -42h-474c-31 0 -39 11 -34 42l10 61c3 16 10 30 21 42l349 390h-246c-32 0 -40 11 -35 43l16 90c5 31 18 42 49 42z" />
    <glyph glyph-name="zcaron" unicode="&#x17e;" horiz-adv-x="492" 
d="M425 739h78c33 0 25 -18 7 -34l-119 -102c-32 -28 -37 -30 -79 -30h-28c-39 0 -45 3 -68 30l-82 102c-16 16 -12 34 17 34h82c40 0 49 -4 62 -21l24 -35l36 34c20 19 31 22 70 22zM111 520h356c28 0 36 -10 31 -38l-14 -78c-3 -16 -12 -31 -28 -46l-225 -200h177
c29 0 36 -9 31 -37l-14 -83c-5 -28 -16 -38 -45 -38h-366c-29 0 -37 10 -32 38l14 78c3 16 10 29 22 40l221 206h-156c-29 0 -36 9 -31 37l14 83c5 28 16 38 45 38z" />
    <glyph glyph-name="longs" unicode="&#x17f;" horiz-adv-x="332" 
d="M127 520v3c27 149 124 217 293 217c29 0 37 -10 32 -39l-13 -73c-5 -31 -17 -40 -46 -40c-45 0 -71 -23 -80 -68l-85 -482c-5 -28 -17 -38 -46 -38h-108c-29 0 -37 10 -32 38l58 330h-33c-28 0 -36 10 -31 39l13 75c5 28 16 38 45 38h33z" />
    <glyph glyph-name="florin" unicode="&#x192;" horiz-adv-x="460" 
d="M154 424l16 88c29 152 126 228 292 228c29 0 39 -10 36 -39l-8 -85c-1 -29 -13 -40 -42 -40c-60 0 -82 -21 -93 -77l-15 -75h75c29 0 38 -10 35 -39l-8 -87c-1 -28 -13 -38 -41 -38h-92l-47 -244c-30 -157 -128 -236 -293 -236c-29 0 -38 10 -35 39l8 85
c1 29 13 40 42 40c59 0 82 24 93 77l46 239h-66c-28 0 -36 9 -35 38l8 87c3 29 13 39 42 39h82z" />
    <glyph glyph-name="Aringacute" unicode="&#x1fa;" horiz-adv-x="687" 
d="M369 932l136 52c29 11 50 11 62 -1l38 -45c14 -15 10 -24 -11 -29l-176 -42c-23 -5 -37 -4 -43 3l-22 30c-11 13 -6 23 16 32zM297 729c15 80 81 123 169 123c85 0 135 -52 122 -133c-5 -29 -21 -53 -49 -73l122 -605c6 -27 -6 -41 -36 -41h-105c-51 0 -65 10 -68 42
l-9 72h-217l-36 -72c-15 -32 -31 -42 -80 -42h-108c-29 0 -36 14 -20 41l337 605c-21 20 -29 48 -22 83zM483 723c5 24 -8 41 -32 41c-29 0 -46 -14 -51 -41c-3 -24 10 -41 37 -41c23 0 42 17 46 41zM424 271l-16 117c-4 47 -2 91 2 119l2 21h-10c-8 -48 -23 -94 -44 -139
l-58 -118h124z" />
    <glyph glyph-name="aringacute" unicode="&#x1fb;" horiz-adv-x="545" 
d="M244 855l144 62c29 12 49 12 62 -1l39 -42c14 -15 10 -25 -11 -30l-178 -44c-23 -6 -38 -5 -43 2l-21 24c-11 12 -8 22 8 29zM233 672c12 71 71 113 146 113c73 0 116 -45 104 -113c-12 -69 -70 -113 -143 -113c-76 0 -120 44 -107 113zM393 672c4 21 -8 34 -28 34
c-23 0 -39 -13 -43 -34c-3 -20 10 -34 31 -34c20 0 37 14 40 34zM31 216l19 108c25 145 115 211 280 211c83 0 147 -11 192 -34c31 -16 35 -25 28 -58l-68 -387c-5 -28 -15 -39 -46 -47c-66 -16 -138 -24 -217 -24c-149 0 -213 90 -188 231zM346 369c-10 3 -23 4 -39 4
c-44 0 -65 -15 -72 -55l-22 -122c-5 -33 11 -50 48 -50c21 0 39 2 52 5l37 211c1 4 0 6 -4 7z" />
    <glyph glyph-name="AEacute" unicode="&#x1fc;" horiz-adv-x="906" 
d="M612 833l155 81c31 15 53 14 66 -3l41 -58c15 -20 12 -31 -13 -40l-191 -56c-24 -8 -38 -8 -46 5l-21 33c-11 17 -8 29 9 38zM619 175h204c32 0 40 -10 35 -42l-16 -91c-7 -31 -18 -42 -50 -42h-339c-32 0 -40 11 -35 42l12 63h-202l-54 -68c-24 -29 -36 -37 -85 -37
h-109c-31 0 -39 16 -20 41l516 634c23 28 31 35 58 35h375c32 0 42 -11 35 -42l-16 -90c-5 -32 -18 -43 -50 -43h-195l-16 -89h143c31 0 39 -11 34 -42l-16 -90c-5 -32 -18 -43 -49 -43h-143zM456 256l44 206l-147 -206h103z" />
    <glyph glyph-name="aeacute" unicode="&#x1fd;" horiz-adv-x="771" 
d="M326 650l154 84c31 17 53 16 66 -2l42 -56c16 -20 15 -31 -12 -40l-190 -60c-24 -8 -39 -7 -46 3l-23 33c-11 17 -8 29 9 38zM426 487c44 32 94 48 150 48c147 0 221 -64 201 -180c-16 -95 -98 -150 -217 -150c-31 0 -65 2 -102 6l-4 -21c-7 -43 9 -65 48 -65
c31 0 57 12 79 37c16 21 25 25 53 10l61 -34c23 -13 26 -33 7 -58c-43 -63 -119 -95 -227 -95c-47 0 -87 9 -120 28c-44 -19 -94 -28 -149 -28c-157 0 -214 63 -197 176c19 113 93 157 260 157c11 0 35 -1 40 -1l4 25c2 22 10 51 -40 51c-22 0 -43 -12 -62 -36
c-15 -20 -23 -23 -52 -11l-70 30c-25 11 -31 26 -11 55c51 71 116 104 224 104c53 0 94 -16 124 -48zM595 362c5 25 -10 41 -45 41c-37 0 -64 -23 -69 -60l-2 -13c27 -3 47 -4 61 -4c33 0 52 12 55 36zM284 178l2 14c-15 1 -29 2 -44 2c-31 0 -49 -14 -54 -42
c-5 -27 8 -40 37 -40c15 0 34 2 57 5c-2 20 -1 40 2 61z" />
    <glyph glyph-name="Oslashacute" unicode="&#x1fe;" horiz-adv-x="683" 
d="M307 843l155 81c31 15 53 14 66 -3l40 -58c16 -20 12 -31 -12 -40l-191 -56c-25 -8 -38 -8 -46 5l-21 33c-13 19 -10 27 9 38zM639 753h96c13 0 15 -6 6 -18l-96 -114c31 -50 40 -113 28 -188l-32 -181c-31 -172 -155 -267 -351 -267c-59 0 -109 10 -149 30l-34 -41
c-12 -15 -15 -16 -39 -16h-93c-13 0 -14 10 -5 19l89 108c-33 49 -42 112 -29 189l31 181c31 173 156 270 352 270c61 0 112 -11 152 -33l37 45c12 15 17 16 37 16zM229 276l217 261c-16 9 -36 13 -60 13c-69 0 -116 -33 -127 -96l-27 -153zM443 256l26 147c1 4 3 12 4 24
l-214 -256c17 -7 36 -11 58 -11c73 0 115 32 126 96z" />
    <glyph glyph-name="oslashacute" unicode="&#x1ff;" horiz-adv-x="551" 
d="M224 650l154 84c30 17 52 16 66 -2l42 -56c15 -20 13 -31 -12 -40l-191 -60c-24 -8 -39 -7 -45 3l-23 33c-13 19 -11 29 9 38zM498 552h57c14 0 16 -6 6 -18l-52 -64c33 -40 44 -94 32 -161l-19 -112c-24 -137 -122 -212 -285 -212c-41 0 -76 6 -106 17l-19 -23
c-8 -9 -20 -14 -35 -14h-57c-14 0 -16 6 -5 18l50 61c-37 41 -49 96 -37 167l19 112c24 137 124 212 285 212c45 0 82 -7 113 -20l19 23c8 9 19 14 34 14zM216 222l133 164c-8 9 -21 13 -40 13c-42 0 -66 -18 -72 -54l-19 -103c-1 -8 -2 -15 -2 -20zM352 289l-129 -158
c9 -6 21 -9 36 -9c43 0 67 18 73 53l18 100c1 5 2 10 2 14z" />
    <glyph glyph-name="Scommaaccent" unicode="&#x218;" horiz-adv-x="642" 
d="M73 518c24 133 138 207 327 207c143 0 215 -51 247 -148c9 -29 3 -39 -30 -52l-99 -39c-29 -12 -39 -8 -50 21c-12 35 -43 52 -92 52c-63 0 -98 -17 -104 -52c-7 -39 33 -50 121 -61c112 -17 256 -67 222 -251c-26 -140 -138 -210 -337 -210c-152 0 -255 55 -275 155
c-5 27 8 45 37 55l100 34c32 11 46 6 55 -22c12 -35 46 -53 103 -53c71 0 111 19 118 57c7 36 -31 48 -107 59c-55 8 -90 14 -141 38c-25 12 -45 26 -60 43c-29 33 -47 92 -35 167zM356 -90l-73 -137c-11 -22 -28 -33 -51 -33h-64c-21 0 -28 10 -21 30l41 140
c9 31 22 42 51 42h90c32 0 41 -14 27 -42z" />
    <glyph glyph-name="scommaaccent" unicode="&#x219;" horiz-adv-x="516" 
d="M47 375c19 107 102 160 250 160c121 0 180 -38 208 -107c9 -25 -1 -43 -30 -55l-76 -32c-35 -14 -37 -3 -50 14c-14 18 -37 27 -69 27c-48 0 -64 -7 -67 -27c-4 -21 12 -28 76 -33c153 -13 210 -62 191 -169c-19 -108 -112 -168 -264 -168c-128 0 -201 40 -218 119
c-5 25 6 42 33 52l85 28c35 9 39 5 50 -15c9 -21 32 -32 69 -32c48 0 74 10 78 31c4 25 -12 32 -89 37c-131 8 -197 59 -177 170zM301 -95l-57 -101c-16 -28 -30 -35 -59 -35h-58c-24 0 -27 6 -20 29l28 107c9 35 22 45 57 45h85c33 0 41 -15 24 -45z" />
    <glyph glyph-name="uni021A" unicode="&#x21a;" horiz-adv-x="602" 
d="M129 710h495c32 0 42 -11 35 -42l-16 -90c-5 -32 -18 -43 -50 -43h-148l-87 -493c-7 -31 -18 -42 -50 -42h-113c-32 0 -42 11 -35 42l87 493h-149c-32 0 -40 11 -35 43l16 90c7 31 18 42 50 42zM323 -90l-73 -137c-11 -22 -28 -33 -51 -33h-64c-21 0 -26 9 -21 30l42 140
c8 31 22 42 51 42h90c33 0 41 -14 26 -42z" />
    <glyph glyph-name="uni021B" unicode="&#x21b;" horiz-adv-x="399" 
d="M189 640h110c28 0 36 -10 32 -38l-15 -82h70c28 0 36 -10 31 -38l-13 -75c-5 -29 -17 -39 -45 -39h-69l-27 -147c-9 -53 5 -70 56 -70c31 0 38 -10 33 -39l-16 -86c-5 -29 -15 -39 -46 -39c-177 -3 -244 57 -215 221l28 160h-43c-29 0 -37 10 -32 39l14 75
c5 28 16 38 44 38h44l14 82c5 28 17 38 45 38zM253 -90l-73 -137c-11 -22 -28 -33 -51 -33h-64c-21 0 -28 10 -21 30l41 140c9 31 22 42 51 42h90c32 0 41 -14 27 -42z" />
    <glyph glyph-name="dotlessj" unicode="&#x237;" horiz-adv-x="271" 
d="M124 520h107c29 0 38 -10 33 -38l-87 -492c-27 -151 -122 -220 -293 -220c-29 0 -38 10 -33 39l15 85c5 29 16 40 47 40c45 0 71 23 80 68l84 480c5 28 18 38 47 38z" />
    <glyph glyph-name="circumflex" unicode="&#x2c6;" horiz-adv-x="401" 
d="M275 740h27c36 0 45 -3 66 -30l85 -102c15 -16 9 -34 -22 -34h-77c-41 0 -51 2 -62 21l-23 36l-37 -35c-19 -19 -30 -22 -69 -22h-81c-33 0 -26 18 -9 34l120 102c15 13 28 22 37 25s24 5 45 5z" />
    <glyph glyph-name="caron" unicode="&#x2c7;" horiz-adv-x="419" 
d="M393 739h78c33 0 25 -18 7 -34l-118 -102c-32 -28 -38 -30 -80 -30h-27c-39 0 -46 3 -69 30l-82 102c-16 16 -13 34 18 34h81c40 0 50 -4 62 -21l24 -35l36 34c20 19 31 22 70 22z" />
    <glyph glyph-name="breve" unicode="&#x2d8;" horiz-adv-x="287" 
d="M393 680c-39 -71 -104 -106 -195 -106s-144 35 -159 106c-4 19 1 27 24 35l68 24c23 8 29 5 36 -12c9 -21 25 -32 50 -32s45 11 61 33c13 16 18 19 37 12l67 -25c16 -7 20 -19 11 -35z" />
    <glyph glyph-name="dotaccent" unicode="&#x2d9;" horiz-adv-x="220" 
d="M199 736h6c59 0 73 -16 62 -75l-2 -8c-11 -59 -30 -75 -87 -75h-6c-59 0 -74 16 -63 75l2 8c9 57 29 75 88 75z" />
    <glyph glyph-name="ring" unicode="&#x2da;" horiz-adv-x="240" 
d="M71 658c13 73 74 118 151 118c76 0 120 -47 107 -118s-72 -115 -148 -115c-77 0 -123 43 -110 115zM236 658c4 21 -8 36 -28 36c-25 0 -40 -12 -45 -36c-3 -20 9 -34 32 -34c21 0 38 13 41 34z" />
    <glyph glyph-name="ogonek" unicode="&#x2db;" horiz-adv-x="252" 
d="M46 1l124 3c-52 -48 -79 -88 -80 -119c0 -13 5 -19 15 -19c5 0 12 2 19 6c13 7 21 5 23 -6l13 -51c3 -13 0 -22 -11 -29c-31 -21 -71 -32 -118 -32c-61 0 -93 24 -95 73c-1 55 36 113 110 174z" />
    <glyph glyph-name="tilde" unicode="&#x2dc;" horiz-adv-x="305" 
d="M328 731h61c16 0 22 -8 19 -23c-16 -91 -53 -123 -120 -123c-28 0 -54 7 -78 21c-24 13 -40 20 -47 20c-10 0 -16 -7 -19 -22c-2 -13 -9 -19 -22 -19h-62c-15 0 -21 8 -19 23c16 89 55 123 118 123c29 0 55 -7 80 -21s41 -21 48 -21c10 0 16 7 19 22c2 13 9 20 22 20z
" />
    <glyph glyph-name="hungarumlaut" unicode="&#x2dd;" horiz-adv-x="395" 
d="M369 737l66 -18c25 -8 25 -26 2 -43l-132 -89c-24 -16 -32 -20 -48 -15l-28 6c-13 -9 -25 -11 -36 -8l-43 8c-23 4 -21 23 -6 38l91 97c21 23 44 31 70 26l21 -5c13 7 27 8 43 3z" />
    <glyph glyph-name="uni0326" unicode="&#x326;" horiz-adv-x="0" 
d="M173 -90l-73 -137c-11 -22 -28 -33 -51 -33h-64c-21 0 -26 9 -21 30l42 140c8 31 22 42 51 42h90c33 0 41 -14 26 -42z" />
    <glyph glyph-name="pi" unicode="&#x3c0;" horiz-adv-x="677" 
d="M215 520h447c29 0 36 -9 31 -38l-15 -85c-5 -29 -16 -39 -44 -39h-22l-32 -181c-5 -33 -5 -60 2 -81c8 -27 -3 -45 -32 -56l-105 -40c-29 -12 -43 -9 -50 19c-11 45 -12 94 -3 147l34 192h-99l-57 -320c-5 -28 -16 -38 -45 -38h-110c-28 0 -36 10 -31 38l56 320
c-11 -1 -25 -5 -44 -12c-27 -11 -42 -8 -47 17l-21 78c-7 27 -1 38 27 50c50 19 103 29 160 29z" />
    <glyph glyph-name="uni0401" unicode="&#x401;" horiz-adv-x="588" 
d="M312 906h7c56 0 70 -18 61 -71l-2 -13c-11 -53 -31 -72 -86 -72h-8c-55 0 -70 19 -59 72l2 13c11 55 29 71 85 71zM527 906h7c56 0 71 -16 60 -71l-2 -13c-11 -53 -30 -72 -85 -72h-7c-56 0 -72 19 -61 72l2 13c9 53 31 71 86 71zM170 710h419c32 0 41 -11 36 -42
l-16 -90c-5 -32 -19 -43 -50 -43h-264l-16 -89h211c32 0 40 -11 35 -42l-16 -90c-7 -32 -18 -43 -50 -43h-211l-17 -96h273c31 0 39 -10 34 -42l-16 -91c-5 -31 -18 -42 -50 -42h-427c-32 0 -42 11 -35 42l110 626c7 31 18 42 50 42z" />
    <glyph glyph-name="uni0410" unicode="&#x410;" horiz-adv-x="688" 
d="M542 677l119 -636c5 -27 -7 -41 -37 -41h-104c-49 0 -64 10 -67 42l-10 72h-217l-35 -72c-16 -32 -32 -42 -80 -42h-110c-28 0 -34 14 -19 41l342 634c15 28 27 35 58 35h113c29 0 42 -8 47 -33zM425 271l-16 117c-4 47 -3 91 0 119l3 21h-9c-9 -48 -24 -94 -45 -139
l-57 -118h124z" />
    <glyph glyph-name="uni0411" unicode="&#x411;" horiz-adv-x="641" 
d="M170 711h441c31 0 39 -11 34 -43l-13 -78c-5 -32 -18 -42 -50 -42h-285l-16 -89h130c71 0 126 -22 164 -67s51 -102 38 -173c-24 -140 -125 -219 -269 -219h-301c-31 0 -39 11 -34 40l111 628c7 32 18 43 50 43zM414 230c7 44 -13 66 -61 66h-101l-23 -133h100
c49 0 78 22 85 67z" />
    <glyph glyph-name="uni0412" unicode="&#x412;" horiz-adv-x="658" 
d="M170 711h293c137 0 209 -77 188 -197c-13 -67 -41 -104 -98 -140l-1 -4c61 -29 84 -89 69 -180c-23 -125 -129 -190 -276 -190h-300c-32 0 -42 11 -35 42l110 626c7 32 18 43 50 43zM445 494c7 37 -11 56 -52 56h-96l-19 -110h96c41 0 64 18 71 54zM419 221
c8 39 -10 58 -54 58h-115l-21 -117h116c43 0 67 20 74 59z" />
    <glyph glyph-name="uni0413" unicode="&#x413;" horiz-adv-x="533" 
d="M170 710h384c32 0 41 -11 36 -42l-16 -90c-5 -32 -19 -43 -50 -43h-229l-87 -493c-7 -31 -18 -42 -50 -42h-113c-32 0 -42 11 -35 42l110 626c7 31 18 42 50 42z" />
    <glyph glyph-name="uni0414" unicode="&#x414;" horiz-adv-x="791" 
d="M280 710h437c32 0 42 -11 35 -42l-86 -493h48c31 0 39 -10 34 -41l-43 -245c-5 -31 -18 -42 -50 -42h-110c-32 0 -40 11 -35 42l20 111h-366l-20 -111c-5 -31 -18 -42 -50 -42h-110c-32 0 -40 11 -35 42l43 245c7 31 18 41 50 41h22c31 23 57 55 77 94s37 96 50 171
l40 228c5 31 18 42 49 42zM531 535h-132l-17 -94c-21 -114 -52 -203 -93 -266h179z" />
    <glyph glyph-name="uni0415" unicode="&#x415;" horiz-adv-x="588" 
d="M170 710h419c32 0 41 -11 36 -42l-16 -90c-5 -32 -19 -43 -50 -43h-264l-16 -89h211c32 0 40 -11 35 -42l-16 -90c-7 -32 -18 -43 -50 -43h-211l-17 -96h273c31 0 39 -10 34 -42l-16 -91c-5 -31 -18 -42 -50 -42h-427c-32 0 -42 11 -35 42l110 626c7 31 18 42 50 42z" />
    <glyph glyph-name="uni0416" unicode="&#x416;" horiz-adv-x="979" 
d="M892 710h116c29 0 36 -17 17 -44l-213 -300c14 -19 25 -42 33 -67l81 -250c9 -28 -2 -49 -34 -49h-107c-55 0 -71 7 -80 42l-50 184c-9 35 -22 46 -59 46h-8l-41 -230c-5 -31 -18 -42 -50 -42h-113c-32 0 -40 11 -35 42l41 230h-8c-36 0 -50 -11 -73 -46l-116 -184
c-21 -35 -40 -42 -95 -42h-108c-33 0 -38 22 -18 49l170 250c19 27 38 50 58 67l-108 300c-10 29 0 44 31 44h114c52 0 62 -5 73 -37l79 -228c5 1 13 1 24 1h7l40 222c5 31 17 42 49 42h113c32 0 41 -11 36 -42l-40 -222h8c9 0 17 0 22 -1l158 228c21 32 34 37 86 37z" />
    <glyph glyph-name="uni0417" unicode="&#x417;" horiz-adv-x="649" 
d="M642 505c-13 -67 -44 -104 -101 -133c63 -35 87 -93 71 -176c-26 -141 -132 -211 -319 -211c-172 0 -269 58 -291 175c-5 27 7 45 36 54l104 35c31 11 42 4 49 -27c9 -43 47 -65 114 -65c68 0 96 18 103 59c8 39 -10 59 -53 59h-95c-32 0 -41 11 -36 42l15 83
c7 32 18 43 50 43h79c40 0 64 18 71 55s-16 55 -68 55c-63 0 -107 -22 -132 -65c-17 -32 -30 -38 -59 -27l-90 35c-26 9 -32 27 -17 54c65 117 178 175 339 175c171 0 257 -84 230 -220z" />
    <glyph glyph-name="uni0418" unicode="&#x418;" horiz-adv-x="706" 
d="M569 711h120c32 0 40 -11 35 -43l-110 -626c-7 -31 -19 -42 -50 -42h-113c-32 0 -40 11 -35 43l31 170c5 28 10 53 14 70s12 43 16 55c3 11 16 44 21 54c3 6 24 58 29 69h-7c-43 -80 -87 -149 -130 -206l-179 -235c-11 -13 -26 -20 -46 -20h-121c-32 0 -40 11 -35 42
l111 626c5 31 17 42 49 42h113c32 0 41 -11 36 -42l-30 -171c-10 -54 -20 -95 -29 -124s-27 -70 -52 -123h7c32 57 56 97 71 121s35 53 61 87l178 233c11 13 26 20 45 20z" />
    <glyph glyph-name="uni0419" unicode="&#x419;" horiz-adv-x="706" 
d="M439 754c-87 0 -144 38 -157 106c-3 16 4 28 23 35l71 25c23 8 28 5 35 -12c9 -22 25 -33 50 -33c23 0 43 11 59 33c13 17 19 18 39 13l65 -26c17 -7 21 -18 11 -35c-39 -71 -105 -106 -196 -106zM569 711h120c32 0 40 -11 35 -43l-110 -626c-7 -31 -19 -42 -50 -42h-113
c-32 0 -40 11 -35 43l31 170c5 28 10 53 14 70s12 43 16 55c3 11 16 44 21 54c3 6 24 58 29 69h-7c-43 -80 -87 -149 -130 -206l-179 -235c-11 -13 -26 -20 -46 -20h-121c-32 0 -40 11 -35 42l111 626c5 31 17 42 49 42h113c32 0 41 -11 36 -42l-30 -171
c-10 -54 -20 -95 -29 -124s-27 -70 -52 -123h7c32 57 56 97 71 121s35 53 61 87l178 233c11 13 26 20 45 20z" />
    <glyph glyph-name="uni041A" unicode="&#x41a;" horiz-adv-x="654" 
d="M517 299l88 -250c9 -28 -3 -49 -35 -49h-108c-53 0 -69 7 -81 42l-56 179c-11 35 -24 50 -60 50h-17l-40 -229c-7 -31 -18 -42 -50 -42h-113c-32 0 -42 11 -35 42l110 626c7 31 18 42 50 42h113c32 0 42 -11 35 -42l-39 -222h13h9l183 227c13 16 24 26 34 31
c10 4 27 6 52 6h116c31 0 37 -17 17 -44l-237 -294c22 -15 39 -40 51 -73z" />
    <glyph glyph-name="uni041B" unicode="&#x41b;" horiz-adv-x="699" 
d="M257 710h427c32 0 41 -11 36 -42l-111 -626c-5 -31 -18 -42 -50 -42h-113c-32 0 -40 11 -35 42l87 493h-120l-16 -94c-25 -141 -64 -244 -116 -311c-52 -68 -101 -105 -172 -137c-31 -15 -42 -9 -53 20l-41 96c-9 27 -1 42 31 58c39 21 71 50 96 88c25 37 45 99 60 185
l40 228c7 31 18 42 50 42z" />
    <glyph glyph-name="uni041C" unicode="&#x41c;" horiz-adv-x="827" 
d="M708 711h101c32 0 40 -10 35 -42l-110 -628c-7 -31 -18 -41 -50 -41h-109c-32 0 -40 10 -35 41l25 143c12 71 42 159 89 262h-10c-27 -56 -59 -111 -96 -165l-76 -113c-13 -19 -31 -29 -53 -29h-65c-27 0 -35 6 -43 29l-38 113c-15 40 -26 95 -34 165h-9
c9 -109 7 -197 -6 -263l-24 -142c-5 -31 -19 -41 -50 -41h-106c-32 0 -40 10 -35 41l111 628c5 32 18 42 50 42h93c35 0 46 -6 54 -31l107 -328l222 327c17 27 29 32 62 32z" />
    <glyph glyph-name="uni041D" unicode="&#x41d;" horiz-adv-x="692" 
d="M561 711h114c31 0 39 -11 34 -43l-110 -626c-7 -31 -18 -42 -50 -42h-113c-32 0 -42 11 -35 42l40 230h-193l-41 -230c-5 -31 -18 -42 -50 -42h-113c-32 0 -40 11 -35 42l111 626c7 32 18 43 50 43h113c32 0 40 -11 35 -43l-39 -221h193l39 221c5 32 19 43 50 43z" />
    <glyph glyph-name="uni041E" unicode="&#x41e;" horiz-adv-x="682" 
d="M51 274l32 181c31 173 155 270 352 270c97 0 168 -27 214 -80c45 -53 60 -124 45 -212l-31 -181c-31 -172 -155 -267 -352 -267c-97 0 -169 26 -214 79c-45 52 -61 122 -46 210zM465 256l35 198c11 63 -23 96 -92 96c-73 0 -116 -32 -127 -96l-35 -198
c-11 -63 22 -96 93 -96c73 0 115 32 126 96z" />
    <glyph glyph-name="uni041F" unicode="&#x41f;" horiz-adv-x="687" 
d="M170 710h499c32 0 41 -11 36 -42l-111 -626c-5 -31 -18 -42 -50 -42h-113c-32 0 -40 11 -35 42l87 493h-188l-87 -493c-7 -31 -18 -42 -50 -42h-113c-32 0 -42 11 -35 42l110 626c7 31 18 42 50 42z" />
    <glyph glyph-name="uni0420" unicode="&#x420;" horiz-adv-x="648" 
d="M170 710h276c78 0 136 -24 174 -72c38 -49 50 -113 37 -193c-27 -155 -137 -232 -297 -232h-122l-30 -171c-7 -31 -18 -42 -50 -42h-113c-32 0 -42 11 -35 42l110 626c7 31 18 42 50 42zM269 388h98c47 0 80 29 88 73c8 45 -15 74 -62 74h-98z" />
    <glyph glyph-name="uni0421" unicode="&#x421;" horiz-adv-x="647" 
d="M51 274l33 185c29 172 156 266 353 266c144 0 227 -59 249 -178c7 -29 -2 -45 -34 -54l-103 -35c-32 -9 -43 -4 -50 27c-9 45 -35 65 -91 65c-77 0 -116 -33 -128 -104l-33 -182c-12 -71 15 -104 92 -104c53 0 91 22 115 65c19 32 31 38 59 27l104 -40
c26 -9 32 -27 17 -54c-63 -115 -170 -173 -323 -173c-97 0 -168 26 -213 79c-46 53 -62 123 -47 210z" />
    <glyph glyph-name="uni0422" unicode="&#x422;" horiz-adv-x="602" 
d="M129 710h495c32 0 42 -11 35 -42l-16 -90c-5 -32 -18 -43 -50 -43h-148l-87 -493c-7 -31 -18 -42 -50 -42h-113c-32 0 -42 11 -35 42l87 493h-149c-32 0 -40 11 -35 43l16 90c7 31 18 42 50 42z" />
    <glyph glyph-name="uni0423" unicode="&#x423;" horiz-adv-x="629" 
d="M557 710h125c28 0 31 -14 14 -42l-376 -631c-19 -31 -31 -37 -76 -37h-129c-27 0 -31 14 -14 42l107 172l-133 454c-8 28 2 42 30 42h118c51 0 62 -4 70 -37l59 -223l131 223c19 33 29 37 74 37z" />
    <glyph glyph-name="uni0424" unicode="&#x424;" horiz-adv-x="862" 
d="M476 735h112c32 0 42 -11 35 -42l-7 -43h27c184 0 268 -104 240 -275l-9 -53c-31 -168 -144 -257 -331 -257h-30l-8 -43c-7 -32 -18 -43 -50 -43h-113c-32 0 -40 11 -35 43l8 43h-30c-183 0 -266 105 -237 277l9 53c29 168 144 255 331 255h30l8 43c5 31 18 42 50 42z
M388 480h-21c-62 0 -98 -29 -109 -88l-12 -69c-10 -59 16 -88 78 -88h21zM672 323l12 69c11 59 -15 88 -78 88h-21l-43 -245h21c63 0 99 29 109 88z" />
    <glyph glyph-name="uni0425" unicode="&#x425;" horiz-adv-x="662" 
d="M572 710h129c28 0 32 -19 13 -40l-253 -308l153 -320c12 -21 0 -42 -29 -42h-127c-53 0 -64 4 -77 37l-66 164l-120 -164c-12 -16 -23 -26 -34 -30c-11 -5 -29 -7 -56 -7h-124c-31 0 -35 18 -14 42l262 320l-142 308c-11 21 0 40 27 40h119c52 0 64 -4 77 -35l63 -154
l116 154c12 16 23 26 33 30c9 3 26 5 50 5z" />
    <glyph glyph-name="uni0426" unicode="&#x426;" horiz-adv-x="733" 
d="M615 175h41c32 0 40 -10 35 -41l-43 -245c-7 -32 -18 -43 -50 -43h-103c-32 0 -40 11 -35 43l20 111h-435c-32 0 -42 11 -35 42l110 626c7 31 18 42 50 42h113c32 0 42 -11 35 -42l-87 -493h186l87 493c7 31 18 42 50 42h113c32 0 42 -11 35 -42z" />
    <glyph glyph-name="uni0427" unicode="&#x427;" horiz-adv-x="657" 
d="M547 710h113c32 0 42 -11 35 -42l-110 -626c-7 -31 -18 -42 -50 -42h-113c-32 0 -42 11 -35 42l34 195c-33 -5 -67 -7 -103 -7c-195 0 -261 103 -228 292l26 146c5 31 17 42 49 42h113c32 0 41 -11 36 -42l-29 -160c-12 -68 12 -92 95 -92c27 0 52 2 74 7l43 245
c7 31 18 42 50 42z" />
    <glyph glyph-name="uni0428" unicode="&#x428;" horiz-adv-x="952" 
d="M821 710h113c32 0 41 -11 36 -42l-111 -626c-5 -31 -18 -42 -50 -42h-764c-32 0 -42 11 -35 42l110 626c7 31 18 42 50 42h113c32 0 42 -11 35 -42l-87 -493h128l87 493c5 31 18 42 49 42h114c31 0 40 -11 35 -42l-87 -493h128l87 493c5 31 17 42 49 42z" />
    <glyph glyph-name="uni0429" unicode="&#x429;" horiz-adv-x="1001" 
d="M883 175h41c32 0 40 -10 35 -41l-43 -246c-5 -32 -19 -42 -50 -42h-103c-32 0 -40 10 -35 42l19 112h-702c-32 0 -42 11 -35 42l110 626c7 31 18 42 50 42h113c32 0 42 -11 35 -42l-87 -493h128l87 493c5 31 18 42 49 42h114c31 0 40 -11 35 -42l-87 -493h128l87 493
c5 31 17 42 49 42h113c32 0 41 -11 36 -42z" />
    <glyph glyph-name="uni042A" unicode="&#x42a;" horiz-adv-x="780" 
d="M420 497h113c79 0 139 -24 180 -71c41 -48 54 -111 40 -190c-28 -156 -134 -236 -294 -236h-283c-31 0 -39 11 -34 42l86 493h-130c-32 0 -40 10 -35 42l16 91c7 31 18 42 50 42h286c31 0 40 -11 35 -42zM363 175h98c48 0 81 30 88 74c8 44 -14 73 -61 73h-99z" />
    <glyph glyph-name="uni042B" unicode="&#x42b;" horiz-adv-x="939" 
d="M619 238c-28 -156 -134 -238 -293 -238h-282c-32 0 -40 11 -35 42l111 626c5 31 17 42 49 42h113c32 0 41 -11 36 -42l-30 -171h114c79 0 138 -23 178 -70s53 -110 39 -189zM649 40l111 630c7 31 18 40 47 40h118c31 0 38 -11 33 -40l-111 -630c-5 -29 -16 -40 -47 -40
h-118c-29 0 -38 9 -33 40zM417 249c8 44 -16 73 -61 73h-99l-27 -147h99c47 0 81 30 88 74z" />
    <glyph glyph-name="uni042C" unicode="&#x42c;" horiz-adv-x="645" 
d="M619 238c-28 -156 -133 -238 -292 -238h-282c-32 0 -42 11 -35 42l110 626c7 31 18 42 50 42h113c32 0 42 -11 35 -42l-30 -171h115c79 0 138 -23 178 -70c39 -47 52 -110 38 -189zM417 249c8 44 -14 73 -61 73h-99l-26 -147h98c48 0 81 30 88 74z" />
    <glyph glyph-name="uni042D" unicode="&#x42d;" horiz-adv-x="653" 
d="M72 550c63 117 171 175 322 175c97 0 167 -27 212 -80s59 -124 44 -212l-31 -181c-31 -173 -152 -267 -348 -267c-153 0 -245 62 -268 175c-5 27 7 45 36 54l105 35c31 11 42 4 49 -27c8 -43 42 -65 101 -65c74 0 116 32 126 96l4 21h-166c-32 0 -40 11 -35 43l15 84
c5 32 18 43 50 43h166l3 17c11 60 -22 92 -93 92c-59 0 -101 -22 -126 -65c-17 -31 -30 -36 -59 -27l-90 35c-26 9 -32 27 -17 54z" />
    <glyph glyph-name="uni042E" unicode="&#x42e;" horiz-adv-x="969" 
d="M368 447l4 23c13 80 51 143 112 188s137 67 230 67c95 0 164 -26 207 -79s57 -123 42 -211l-31 -181c-31 -173 -153 -269 -345 -269c-93 0 -162 24 -207 73c-45 48 -61 113 -47 194l4 20h-89l-41 -230c-5 -31 -18 -42 -50 -42h-113c-32 0 -40 11 -35 42l111 626
c5 31 17 42 49 42h113c32 0 41 -11 36 -42l-39 -221h89zM733 255l36 200c10 63 -18 95 -85 95c-65 0 -108 -34 -117 -95l-36 -200c-11 -61 20 -95 84 -95c67 0 107 32 118 95z" />
    <glyph glyph-name="uni042F" unicode="&#x42f;" horiz-adv-x="661" 
d="M98 483c27 151 133 227 289 227h285c32 0 42 -11 35 -42l-110 -626c-7 -31 -18 -42 -50 -42h-113c-32 0 -42 11 -35 42l34 194h-26c-45 0 -63 -11 -87 -51l-84 -143c-20 -35 -40 -42 -96 -42h-108c-33 0 -39 16 -17 49l112 171c20 31 34 50 41 58c-60 39 -87 112 -70 205
zM486 535h-108c-43 0 -68 -22 -77 -65c-7 -43 11 -64 55 -64h107z" />
    <glyph glyph-name="uni0430" unicode="&#x430;" horiz-adv-x="545" 
d="M31 216l19 108c25 145 115 211 280 211c83 0 147 -11 192 -34c31 -16 35 -25 28 -58l-68 -387c-5 -28 -15 -39 -46 -47c-66 -16 -138 -24 -217 -24c-149 0 -213 90 -188 231zM346 369c-10 3 -23 4 -39 4c-44 0 -65 -15 -72 -55l-22 -122c-5 -33 11 -50 48 -50
c21 0 39 2 52 5l37 211c1 4 0 6 -4 7z" />
    <glyph glyph-name="uni0431" unicode="&#x431;" horiz-adv-x="559" 
d="M422 729h32c29 0 54 4 74 12c32 13 44 6 49 -26l13 -73c4 -29 -4 -40 -33 -55c-24 -11 -64 -16 -120 -16h-41c-77 0 -119 -25 -128 -85l-2 -9c30 19 63 28 98 28c136 0 206 -81 182 -226l-14 -83c-26 -141 -120 -211 -282 -211c-160 0 -236 88 -212 227l33 193
c21 117 58 201 111 250s133 74 240 74zM346 199l16 92c6 36 -11 54 -52 54c-42 0 -66 -18 -72 -54l-16 -92c-7 -35 10 -53 51 -53s66 18 73 53z" />
    <glyph glyph-name="uni0432" unicode="&#x432;" horiz-adv-x="541" 
d="M135 507c53 19 117 28 192 28c137 0 208 -69 191 -164c-8 -44 -36 -77 -84 -100c51 -17 80 -61 71 -117c-17 -112 -108 -168 -272 -169c-85 0 -149 9 -191 27c-29 12 -41 35 -35 69l62 351c7 37 29 62 66 75zM336 361c5 24 -12 38 -43 38c-19 0 -34 -2 -44 -5
c-3 -1 -5 -3 -5 -6l-12 -65h48c33 0 51 13 56 38zM319 164c4 27 -15 42 -55 42h-52l-15 -78c0 -2 1 -3 3 -4c11 -3 26 -4 47 -4c43 0 67 15 72 44z" />
    <glyph glyph-name="uni0433" unicode="&#x433;" horiz-adv-x="516" 
d="M75 428c51 71 123 107 247 107c140 0 214 -68 195 -169c-10 -57 -33 -96 -70 -117s-92 -34 -165 -39c-65 -4 -100 -19 -105 -44c-4 -24 18 -31 66 -31c40 0 69 11 88 33c19 20 27 23 58 14l68 -26c25 -10 30 -28 15 -53c-45 -79 -130 -118 -256 -118
c-149 0 -227 71 -207 174c10 51 34 89 71 114s97 40 178 47c61 5 86 12 91 36c3 20 -12 29 -63 29c-33 -1 -59 -10 -79 -29c-20 -20 -26 -23 -57 -12l-64 29c-26 11 -30 30 -11 55z" />
    <glyph glyph-name="uni0434" unicode="&#x434;" horiz-adv-x="559" 
d="M168 633l13 70c4 31 16 41 47 41c115 0 194 -10 236 -31c104 -53 127 -158 92 -334l-32 -182c-24 -137 -123 -212 -284 -212s-236 83 -211 220l16 95c23 125 119 193 255 193c47 0 83 -11 110 -33c8 67 -13 93 -54 113c-27 13 -78 19 -153 19c-32 0 -40 10 -35 41z
M337 199l17 92c5 36 -12 54 -52 54c-43 0 -67 -18 -72 -54l-17 -92c-6 -35 12 -53 53 -53s65 18 71 53z" />
    <glyph glyph-name="uni0435" unicode="&#x435;" horiz-adv-x="542" 
d="M31 220l19 104c24 135 126 211 285 211c149 0 233 -66 217 -185c-15 -92 -95 -145 -223 -145c-35 0 -72 2 -113 6l-4 -21c-7 -43 11 -64 54 -64c35 0 64 12 87 36c19 20 29 25 58 10l65 -33c24 -13 27 -32 9 -58c-47 -64 -128 -96 -243 -96c-171 0 -236 95 -211 235z
M370 362c4 27 -14 41 -55 41c-42 0 -67 -21 -76 -62l-3 -11c25 -3 48 -5 69 -5c39 0 61 12 65 37z" />
    <glyph glyph-name="uni0436" unicode="&#x436;" horiz-adv-x="790" 
d="M383 520h109c29 0 36 -10 31 -39l-24 -141h10h5l90 144c19 29 34 36 77 36h92c37 0 44 -16 22 -49l-135 -203c7 -7 14 -19 19 -36l50 -181c11 -36 0 -51 -40 -51h-92c-47 0 -61 7 -66 38l-18 120c-4 17 -15 27 -32 29c-1 1 -4 1 -9 1l-27 -149c-5 -29 -16 -39 -45 -39
h-109c-29 0 -36 10 -31 39l26 149c-3 0 -6 0 -8 -1c-19 -1 -33 -10 -43 -29l-61 -120c-16 -31 -32 -38 -79 -38h-92c-41 0 -45 16 -22 51l114 185c12 18 22 30 31 37l-64 198c-10 33 4 49 41 49h88c43 0 57 -7 65 -36l42 -144h6h9l25 141c5 29 16 39 45 39z" />
    <glyph glyph-name="uni0437" unicode="&#x437;" horiz-adv-x="520" 
d="M52 403c46 88 131 132 256 132c141 0 216 -61 199 -162c-7 -49 -33 -84 -77 -104v-3c43 -23 59 -64 49 -122c-16 -100 -85 -159 -250 -159c-135 0 -215 50 -236 138c-7 29 6 47 37 55l77 22c35 9 42 3 47 -21c8 -33 35 -50 82 -50c48 0 64 12 68 37c4 20 -7 31 -34 31
h-65c-25 0 -33 9 -28 34l11 61c4 25 15 34 40 34h62c25 0 40 10 45 30c3 23 -14 35 -47 35c-57 0 -80 -15 -97 -44c-15 -24 -21 -30 -53 -22l-69 23c-26 9 -32 27 -17 55z" />
    <glyph glyph-name="uni0438" unicode="&#x438;" 
d="M426 520h109c29 0 37 -10 32 -38l-71 -400c-7 -33 -16 -47 -52 -60c-67 -25 -140 -37 -219 -37c-149 0 -210 85 -185 226l47 271c5 28 17 38 46 38h109c29 0 37 -10 32 -38l-48 -274c-7 -39 8 -55 49 -55c14 0 28 1 41 4c5 1 8 4 9 9l55 316c5 28 17 38 46 38z" />
    <glyph glyph-name="uni0439" unicode="&#x439;" 
d="M539 669c-41 -74 -109 -111 -204 -111c-93 0 -154 39 -167 111c-5 20 1 29 24 37l72 26c25 7 30 4 38 -13c9 -23 26 -34 53 -34c25 0 46 12 63 35c15 17 20 20 40 13l69 -27c20 -8 23 -16 12 -37zM426 520h109c29 0 37 -10 32 -38l-71 -400c-7 -33 -16 -47 -52 -60
c-67 -25 -140 -37 -219 -37c-149 0 -210 85 -185 226l47 271c5 28 17 38 46 38h109c29 0 37 -10 32 -38l-48 -274c-7 -39 8 -55 49 -55c14 0 28 1 41 4c5 1 8 4 9 9l55 316c5 28 17 38 46 38z" />
    <glyph glyph-name="uni043A" unicode="&#x43a;" horiz-adv-x="551" 
d="M435 231l57 -180c11 -36 0 -51 -41 -51h-89c-45 0 -56 6 -64 38l-28 120c-5 21 -18 31 -37 31h-21l-27 -150c-5 -29 -16 -39 -45 -39h-109c-29 0 -37 10 -32 39l78 442c5 29 17 39 46 39h109c29 0 36 -10 31 -39l-24 -141h14h6l110 144c21 29 35 36 78 36h89
c40 0 47 -17 20 -52l-147 -195c11 -8 20 -22 26 -42z" />
    <glyph glyph-name="uni043B" unicode="&#x43b;" horiz-adv-x="566" 
d="M183 520h345c29 0 36 -10 31 -38l-76 -444c-5 -28 -16 -38 -45 -38h-110c-29 0 -36 10 -31 38l56 318h-69l-13 -56c-19 -93 -47 -164 -71 -204c-12 -20 -27 -38 -46 -53c-40 -34 -49 -36 -96 -56c-21 -8 -35 -1 -44 20l-39 94c-7 21 -2 31 22 43c25 13 30 17 53 43
s40 74 56 147l32 148c7 28 17 38 45 38z" />
    <glyph glyph-name="uni043C" unicode="&#x43c;" horiz-adv-x="663" 
d="M531 520h92c33 0 39 -10 34 -41l-78 -441c-5 -29 -16 -38 -45 -38h-90c-29 0 -37 10 -32 39l14 78c8 48 29 109 63 182h-7c-21 -42 -40 -75 -56 -98l-52 -73c-16 -23 -25 -29 -52 -29h-47c-25 0 -34 6 -42 30l-26 72c-8 24 -15 57 -20 98h-7c7 -83 6 -144 -1 -183
l-14 -77c-5 -29 -18 -39 -47 -39h-88c-29 0 -36 7 -31 38l77 441c7 31 18 41 50 41h85c31 0 41 -7 50 -31l69 -203l142 202c17 24 30 32 59 32z" />
    <glyph glyph-name="uni043D" unicode="&#x43d;" horiz-adv-x="558" 
d="M412 520h110c29 0 36 -10 31 -38l-78 -444c-5 -28 -16 -38 -45 -38h-110c-28 0 -36 10 -31 38l25 144h-103l-26 -144c-5 -28 -16 -38 -45 -38h-110c-29 0 -36 10 -31 38l78 444c5 28 16 38 45 38h110c29 0 36 -10 31 -38l-24 -136h104l24 136c5 28 17 38 45 38z" />
    <glyph glyph-name="uni043E" unicode="&#x43e;" horiz-adv-x="550" 
d="M29 211l19 112c25 137 124 212 285 212c160 0 234 -87 210 -226l-19 -112c-25 -137 -123 -212 -286 -212c-159 0 -233 87 -209 226zM338 199l21 122c7 36 -10 54 -53 54c-41 0 -65 -18 -72 -54l-21 -122c-7 -35 10 -53 52 -53c41 0 66 18 73 53z" />
    <glyph glyph-name="uni043F" unicode="&#x43f;" 
d="M120 498c67 25 140 37 219 37c151 0 211 -80 187 -220l-49 -277c-5 -28 -17 -38 -45 -38h-110c-29 0 -36 10 -31 38l48 274c7 39 -9 55 -50 55c-17 0 -32 -1 -45 -4c-1 -1 -3 -2 -4 -4l-56 -321c-5 -28 -17 -38 -46 -38h-109c-29 0 -37 10 -32 38l71 400
c7 33 16 47 52 60z" />
    <glyph glyph-name="uni0440" unicode="&#x440;" horiz-adv-x="547" 
d="M120 501c61 23 133 34 214 34c153 0 215 -86 190 -226l-19 -109c-25 -143 -115 -215 -270 -215c-9 0 -29 2 -60 5l-30 -171c-5 -29 -16 -38 -45 -38h-110c-29 0 -36 9 -31 38l110 624c7 33 15 45 51 58zM319 201l22 123c6 33 -10 49 -48 49c-20 0 -36 -2 -47 -5
c-2 -1 -4 -3 -5 -6l-37 -211c13 -3 28 -5 43 -5c41 0 65 18 72 55z" />
    <glyph glyph-name="uni0441" unicode="&#x441;" horiz-adv-x="517" 
d="M31 214l19 110c25 141 118 211 279 211c119 0 184 -56 199 -140c5 -29 -4 -42 -35 -53l-89 -30c-33 -11 -43 -4 -50 27c-6 27 -24 40 -55 40c-35 0 -57 -18 -64 -55l-22 -129c-7 -35 10 -54 43 -54c28 0 50 14 67 41c16 29 30 36 59 25l91 -29c27 -9 33 -27 16 -56
c-54 -91 -140 -137 -259 -137c-160 0 -224 86 -199 229z" />
    <glyph glyph-name="uni0442" unicode="&#x442;" horiz-adv-x="814" 
d="M448 508c53 18 105 27 158 27c145 0 203 -80 178 -220l-49 -277c-5 -28 -17 -38 -45 -38h-110c-29 0 -36 10 -31 38l48 276c7 35 -7 53 -41 53c-13 0 -28 -2 -43 -5c0 -13 -2 -28 -5 -46l-49 -278c-5 -28 -16 -38 -45 -38h-110c-28 0 -36 10 -31 38l49 276
c5 39 -6 53 -42 53c-11 0 -23 -1 -35 -3c-2 -1 -4 -3 -5 -6l-56 -320c-5 -28 -17 -38 -46 -38h-109c-29 0 -37 10 -32 38l71 400c7 33 16 47 52 60c67 25 137 37 210 37c49 0 89 -9 118 -27z" />
    <glyph glyph-name="uni0443" unicode="&#x443;" horiz-adv-x="558" 
d="M423 520h110c29 0 36 -10 31 -38l-85 -487c-27 -150 -121 -225 -280 -225c-109 0 -168 33 -199 101c-11 25 -2 45 28 58l85 39c35 12 41 8 53 -13c13 -22 32 -33 58 -33c37 0 59 19 66 58l6 39c-18 -3 -41 -4 -68 -4c-149 0 -210 89 -185 230l42 237c5 28 16 38 45 38
h110c29 0 36 -10 31 -38l-43 -244c-7 -37 10 -55 51 -55c18 0 34 1 47 4l52 295c5 28 17 38 45 38z" />
    <glyph glyph-name="uni0444" unicode="&#x444;" horiz-adv-x="760" 
d="M566 701l-30 -167c5 1 14 1 25 1c156 0 221 -95 192 -251l-13 -73c-27 -152 -115 -226 -275 -226c-11 0 -20 0 -25 1l-30 -168c-5 -28 -17 -38 -46 -38h-109c-29 0 -37 10 -32 38l30 168c-5 -1 -14 -1 -25 -1c-156 0 -221 93 -192 250l13 73c27 151 118 227 275 227
c11 0 20 0 25 -1l30 167c5 29 17 39 45 39h110c29 0 37 -10 32 -39zM234 307l-16 -94c-8 -45 7 -67 46 -67c5 0 18 1 22 1l39 225c-4 1 -11 1 -20 1c-40 0 -64 -22 -71 -66zM555 213l16 94c9 44 -7 66 -46 66c-10 0 -17 0 -22 -1l-40 -225c4 0 17 -1 22 -1c39 0 63 22 70 67
z" />
    <glyph glyph-name="uni0445" unicode="&#x445;" horiz-adv-x="552" 
d="M437 520h108c38 0 44 -15 18 -45l-172 -207l105 -223c16 -31 7 -45 -36 -45h-96c-44 0 -52 4 -64 33l-44 114l-81 -114c-20 -29 -32 -33 -76 -33h-104c-44 0 -48 14 -21 45l185 222l-102 208c-15 30 -3 45 38 45h93c43 0 54 -5 65 -33l39 -97l73 97c20 29 31 33 72 33z
" />
    <glyph glyph-name="uni0446" unicode="&#x446;" horiz-adv-x="606" 
d="M133 520h109c29 0 37 -10 32 -38l-48 -274c-7 -39 8 -55 49 -55c17 0 33 2 48 5l57 324c5 28 17 38 46 38h109c29 0 37 -10 32 -38l-57 -318c55 4 77 -26 65 -90l-29 -175c-5 -28 -17 -38 -45 -38h-104c-28 0 -37 10 -32 38l14 81c3 17 -3 24 -23 20
c-42 -10 -87 -15 -135 -15c-151 0 -206 88 -181 231l47 266c5 28 17 38 46 38z" />
    <glyph glyph-name="uni0447" unicode="&#x447;" horiz-adv-x="528" 
d="M46 355l22 127c5 28 17 38 45 38h110c29 0 36 -10 31 -38l-22 -125c-5 -35 7 -48 43 -48c16 0 32 2 39 5l5 2l29 166c5 28 17 38 45 38h110c29 0 36 -10 31 -38l-78 -444c-5 -28 -16 -38 -45 -38h-110c-28 0 -36 10 -31 38l20 112c-21 -3 -48 -5 -80 -5
c-132 0 -185 81 -164 210z" />
    <glyph glyph-name="uni0448" unicode="&#x448;" horiz-adv-x="814" 
d="M684 520h109c29 0 37 -10 32 -38l-71 -400c-7 -33 -16 -47 -52 -60c-67 -25 -137 -37 -210 -37c-49 0 -89 9 -118 26c-51 -17 -103 -26 -157 -26c-148 0 -202 89 -177 233l47 264c5 28 17 38 46 38h109c29 0 37 -10 32 -38l-49 -276c-6 -35 8 -53 42 -53c13 0 27 2 42 5
c0 13 2 28 5 46l49 278c5 28 16 38 45 38h110c29 0 36 -10 31 -38l-48 -276c-7 -35 7 -53 41 -53c11 0 22 1 34 3c4 0 6 3 6 8l56 318c5 28 17 38 46 38z" />
    <glyph glyph-name="uni0449" unicode="&#x449;" horiz-adv-x="864" 
d="M40 218l47 264c5 28 17 38 46 38h109c29 0 37 -10 32 -38l-49 -276c-6 -35 8 -53 42 -53c13 0 27 2 42 5c0 13 2 28 5 46l49 278c5 28 16 38 45 38h110c29 0 36 -10 31 -38l-48 -276c-7 -35 7 -53 41 -53c15 0 28 2 39 5l57 324c5 28 17 38 46 38h109c29 0 37 -10 32 -38
l-57 -318c55 4 77 -26 65 -90l-29 -175c-5 -28 -17 -38 -45 -38h-104c-28 0 -37 10 -32 38l14 81c3 17 -2 24 -23 19c-49 -9 -89 -14 -122 -14c-49 0 -89 9 -118 26c-51 -17 -103 -26 -157 -26c-148 0 -202 89 -177 233z" />
    <glyph glyph-name="uni044A" unicode="&#x44a;" horiz-adv-x="614" 
d="M355 482l-17 -97c27 4 50 6 69 6c106 0 204 -53 176 -206c-21 -127 -111 -200 -256 -200c-77 0 -142 11 -195 34c-31 15 -36 25 -31 58l50 286h-89c-29 0 -37 10 -32 38l15 81c5 28 16 38 45 38h234c29 0 36 -10 31 -38zM298 146c10 -3 24 -5 42 -5c37 0 59 17 65 51
c7 35 -10 53 -51 53c-13 0 -27 -2 -44 -5l-15 -88c-1 -3 0 -5 3 -6z" />
    <glyph glyph-name="uni044B" unicode="&#x44b;" horiz-adv-x="760" 
d="M258 482l-18 -100c27 4 50 6 69 6c60 0 108 -16 143 -49s47 -85 34 -156c-23 -127 -111 -198 -256 -198c-76 0 -141 11 -196 34c-31 15 -36 25 -31 58l72 405c5 28 17 38 46 38h105c29 0 37 -10 32 -38zM613 520h110c29 0 36 -10 31 -38l-78 -444c-5 -28 -16 -38 -45 -38
h-110c-29 0 -36 10 -31 38l78 444c5 28 16 38 45 38zM200 146c10 -3 24 -5 43 -5c37 0 59 17 65 52c5 35 -12 52 -52 52c-13 0 -28 -2 -43 -5l-16 -88c0 -3 1 -5 3 -6z" />
    <glyph glyph-name="uni044C" unicode="&#x44c;" horiz-adv-x="517" 
d="M258 482l-18 -100c27 4 50 6 69 6c60 0 108 -16 143 -49s47 -85 34 -156c-23 -127 -111 -198 -256 -198c-76 0 -141 11 -196 34c-31 15 -36 25 -31 58l72 405c5 28 17 38 46 38h105c29 0 37 -10 32 -38zM200 146c10 -3 24 -5 43 -5c37 0 59 17 65 52c5 35 -12 52 -52 52
c-13 0 -28 -2 -43 -5l-16 -88c0 -3 1 -5 3 -6z" />
    <glyph glyph-name="uni044D" unicode="&#x44d;" horiz-adv-x="520" 
d="M48 402c47 89 129 133 246 133c165 0 235 -88 211 -228l-19 -109c-25 -141 -107 -213 -268 -213c-125 0 -198 46 -219 138c-7 27 5 46 36 56l77 22c33 8 43 2 48 -19c7 -17 9 -23 18 -35s26 -17 49 -17c44 0 69 19 75 57l2 8l-97 1c-25 0 -33 9 -28 34l11 64
c4 25 15 34 40 34h97l1 7c8 40 -9 56 -56 56c-41 0 -61 -15 -82 -47c-16 -23 -25 -29 -56 -20l-69 23c-26 9 -32 28 -17 55z" />
    <glyph glyph-name="uni044E" unicode="&#x44e;" horiz-adv-x="788" 
d="M285 346l2 9c29 119 124 180 272 180c159 0 231 -88 207 -228l-19 -113c-25 -139 -118 -209 -280 -209c-148 0 -220 66 -211 191v6h-45l-26 -144c-5 -28 -16 -38 -45 -38h-110c-29 0 -36 10 -31 38l78 444c5 28 16 38 45 38h110c29 0 36 -10 31 -38l-24 -136h46zM561 199
l22 122c6 36 -11 54 -51 54c-39 0 -62 -18 -69 -54l-21 -122c-7 -35 9 -53 49 -53c41 0 64 18 70 53z" />
    <glyph glyph-name="uni044F" unicode="&#x44f;" horiz-adv-x="547" 
d="M264 520h246c29 0 37 -10 32 -38l-78 -444c-5 -28 -16 -38 -45 -38h-110c-29 0 -36 10 -31 38l20 117h-41l-74 -118c-19 -31 -35 -37 -80 -37h-95c-44 0 -47 18 -22 51l102 141c-41 33 -56 85 -44 154c20 115 101 174 220 174zM337 376h-62c-25 0 -40 -13 -45 -39
c-5 -23 7 -38 31 -38h63z" />
    <glyph glyph-name="uni0451" unicode="&#x451;" horiz-adv-x="542" 
d="M260 733h8c55 0 70 -18 61 -71l-2 -13c-11 -53 -31 -72 -86 -72h-8c-55 0 -69 19 -60 72l2 13c11 55 30 71 85 71zM476 733h7c55 0 69 -16 60 -71l-2 -13c-11 -53 -30 -72 -85 -72h-7c-56 0 -71 19 -62 72l2 13c9 53 31 71 87 71zM31 220l19 104c24 135 126 211 285 211
c149 0 233 -66 217 -185c-15 -92 -95 -145 -223 -145c-35 0 -72 2 -113 6l-4 -21c-7 -43 11 -64 54 -64c35 0 64 12 87 36c19 20 29 25 58 10l65 -33c24 -13 27 -32 9 -58c-47 -64 -128 -96 -243 -96c-171 0 -236 95 -211 235zM370 362c4 27 -14 41 -55 41
c-42 0 -67 -21 -76 -62l-3 -11c25 -3 48 -5 69 -5c39 0 61 12 65 37z" />
    <glyph glyph-name="Wgrave" unicode="&#x1e80;" horiz-adv-x="935" 
d="M447 854l62 60c19 18 41 19 66 3l126 -83c15 -9 14 -21 -3 -38l-34 -34c-9 -10 -25 -11 -47 -4l-171 56c-23 8 -18 19 1 40zM856 710h113c29 0 33 -13 20 -41l-264 -634c-12 -28 -27 -35 -58 -35h-124c-29 0 -45 8 -46 33l-12 233c-2 60 2 120 13 180h-9
c-13 -62 -31 -122 -53 -180l-94 -231c-12 -28 -28 -35 -59 -35h-120c-29 0 -45 11 -46 33l-40 636c-3 29 5 41 34 41h121c37 0 50 -6 51 -37l-1 -262c-1 -57 -7 -116 -18 -177h7c13 67 30 126 50 177l108 262c12 31 29 37 62 37h107c35 0 49 -8 50 -37l14 -262
c3 -45 -1 -104 -11 -177h8c9 49 24 108 45 177l89 262c11 29 26 37 63 37z" />
    <glyph glyph-name="wgrave" unicode="&#x1e81;" horiz-adv-x="772" 
d="M333 676l64 56c19 18 41 19 66 2l124 -84c16 -11 14 -19 -5 -38l-34 -33c-10 -10 -26 -11 -47 -3l-170 60c-21 11 -19 19 2 40zM677 520h92c36 0 40 -9 24 -44l-191 -442c-11 -23 -30 -34 -58 -34h-103c-31 0 -46 11 -47 34l-9 134c-1 36 2 91 5 120l2 22h-7
c-14 -55 -29 -102 -46 -142l-57 -134c-9 -23 -29 -34 -58 -34h-92c-29 0 -45 11 -47 34l-40 442c-4 35 4 44 40 44h92c47 0 57 -6 57 -38l1 -133c0 -31 -7 -92 -12 -129l-4 -27h8c15 69 30 121 43 156l54 132c12 32 24 39 71 39h64c47 0 56 -6 56 -38l8 -133
c1 -32 -4 -93 -8 -129l-4 -27h8c13 65 27 117 40 156l47 132c11 32 24 39 71 39z" />
    <glyph glyph-name="Wacute" unicode="&#x1e82;" horiz-adv-x="935" 
d="M437 833l155 81c31 15 53 14 66 -3l40 -58c16 -20 12 -31 -12 -40l-191 -56c-25 -8 -38 -8 -46 5l-21 33c-13 19 -10 27 9 38zM856 710h113c29 0 33 -13 20 -41l-264 -634c-12 -28 -27 -35 -58 -35h-124c-29 0 -45 8 -46 33l-12 233c-2 60 2 120 13 180h-9
c-13 -62 -31 -122 -53 -180l-94 -231c-12 -28 -28 -35 -59 -35h-120c-29 0 -45 11 -46 33l-40 636c-3 29 5 41 34 41h121c37 0 50 -6 51 -37l-1 -262c-1 -57 -7 -116 -18 -177h7c13 67 30 126 50 177l108 262c12 31 29 37 62 37h107c35 0 49 -8 50 -37l14 -262
c3 -45 -1 -104 -11 -177h8c9 49 24 108 45 177l89 262c11 29 26 37 63 37z" />
    <glyph glyph-name="wacute" unicode="&#x1e83;" horiz-adv-x="772" 
d="M322 650l154 84c30 17 52 16 66 -2l42 -56c15 -20 13 -31 -12 -40l-191 -60c-24 -8 -39 -7 -45 3l-23 33c-13 19 -11 29 9 38zM677 520h92c36 0 40 -9 24 -44l-191 -442c-11 -23 -30 -34 -58 -34h-103c-31 0 -46 11 -47 34l-9 134c-1 36 2 91 5 120l2 22h-7
c-14 -55 -29 -102 -46 -142l-57 -134c-9 -23 -29 -34 -58 -34h-92c-29 0 -45 11 -47 34l-40 442c-4 35 4 44 40 44h92c47 0 57 -6 57 -38l1 -133c0 -31 -7 -92 -12 -129l-4 -27h8c15 69 30 121 43 156l54 132c12 32 24 39 71 39h64c47 0 56 -6 56 -38l8 -133
c1 -32 -4 -93 -8 -129l-4 -27h8c13 65 27 117 40 156l47 132c11 32 24 39 71 39z" />
    <glyph glyph-name="Wdieresis" unicode="&#x1e84;" horiz-adv-x="935" 
d="M470 914h8c56 0 70 -18 61 -71l-2 -13c-9 -53 -31 -71 -87 -71h-7c-56 0 -70 18 -59 71l2 13c9 55 28 71 84 71zM686 914h7c55 0 69 -18 60 -71l-2 -13c-9 -53 -30 -71 -86 -71h-7c-55 0 -71 18 -60 71l2 13c9 53 30 71 86 71zM856 710h113c29 0 33 -13 20 -41l-264 -634
c-12 -28 -27 -35 -58 -35h-124c-29 0 -45 8 -46 33l-12 233c-2 60 2 120 13 180h-9c-13 -62 -31 -122 -53 -180l-94 -231c-12 -28 -28 -35 -59 -35h-120c-29 0 -45 11 -46 33l-40 636c-3 29 5 41 34 41h121c37 0 50 -6 51 -37l-1 -262c-1 -57 -7 -116 -18 -177h7
c13 67 30 126 50 177l108 262c12 31 29 37 62 37h107c35 0 49 -8 50 -37l14 -262c3 -45 -1 -104 -11 -177h8c9 49 24 108 45 177l89 262c11 29 26 37 63 37z" />
    <glyph glyph-name="wdieresis" unicode="&#x1e85;" horiz-adv-x="772" 
d="M355 733h8c56 0 70 -18 61 -71l-2 -13c-11 -53 -31 -72 -86 -72h-8c-55 0 -70 19 -59 72l2 13c9 55 29 71 84 71zM571 733h7c56 0 71 -16 60 -71l-2 -13c-11 -53 -30 -72 -85 -72h-7c-56 0 -72 19 -61 72l2 13c9 53 30 71 86 71zM677 520h92c36 0 40 -9 24 -44l-191 -442
c-11 -23 -30 -34 -58 -34h-103c-31 0 -46 11 -47 34l-9 134c-1 36 2 91 5 120l2 22h-7c-14 -55 -29 -102 -46 -142l-57 -134c-9 -23 -29 -34 -58 -34h-92c-29 0 -45 11 -47 34l-40 442c-4 35 4 44 40 44h92c47 0 57 -6 57 -38l1 -133c0 -31 -7 -92 -12 -129l-4 -27h8
c15 69 30 121 43 156l54 132c12 32 24 39 71 39h64c47 0 56 -6 56 -38l8 -133c1 -32 -4 -93 -8 -129l-4 -27h8c13 65 27 117 40 156l47 132c11 32 24 39 71 39z" />
    <glyph glyph-name="Ygrave" unicode="&#x1ef2;" horiz-adv-x="673" 
d="M321 854l61 60c19 18 41 19 67 3l126 -83c15 -9 14 -21 -3 -38l-34 -34c-10 -10 -26 -11 -47 -4l-172 56c-21 9 -19 19 2 40zM607 710h117c32 0 31 -19 14 -42l-300 -393l-40 -233c-7 -31 -19 -42 -50 -42h-114c-31 0 -39 11 -34 42l40 233l-160 393c-11 23 -1 42 28 42
h116c53 0 65 -4 77 -37l71 -204l147 204c23 33 36 37 88 37z" />
    <glyph glyph-name="ygrave" unicode="&#x1ef3;" horiz-adv-x="558" 
d="M235 676l64 56c19 18 41 19 66 2l124 -84c16 -11 14 -19 -5 -38l-34 -33c-10 -10 -26 -11 -47 -3l-170 60c-21 11 -19 19 2 40zM423 520h110c29 0 36 -10 31 -38l-85 -487c-27 -150 -121 -225 -280 -225c-109 0 -168 33 -199 101c-11 25 -2 45 28 58l85 39
c35 12 41 8 53 -13c13 -22 32 -33 58 -33c37 0 59 19 66 58l6 39c-18 -3 -41 -4 -68 -4c-149 0 -210 89 -185 230l42 237c5 28 16 38 45 38h110c29 0 36 -10 31 -38l-43 -244c-7 -37 10 -55 51 -55c18 0 34 1 47 4l52 295c5 28 17 38 45 38z" />
    <glyph glyph-name="endash" unicode="&#x2013;" horiz-adv-x="566" 
d="M97 351h395c32 0 41 -10 36 -42l-15 -85c-5 -32 -19 -42 -50 -42h-395c-32 0 -40 10 -35 42l15 85c5 32 17 42 49 42z" />
    <glyph glyph-name="emdash" unicode="&#x2014;" horiz-adv-x="779" 
d="M99 352h607c32 0 40 -11 35 -43l-16 -86c-5 -32 -18 -42 -50 -42h-607c-31 0 -39 10 -34 42l15 86c7 32 18 43 50 43z" />
    <glyph glyph-name="quoteleft" unicode="&#x2018;" horiz-adv-x="259" 
d="M74 455l96 219c12 28 26 38 57 38h60c24 0 30 -6 25 -29l-54 -228c-9 -37 -23 -51 -58 -51h-92c-37 0 -49 17 -34 51z" />
    <glyph glyph-name="quoteright" unicode="&#x2019;" horiz-adv-x="256" 
d="M302 661l-96 -219c-12 -28 -26 -38 -57 -38h-60c-24 0 -30 6 -25 29l54 228c9 37 23 51 58 51h92c37 0 49 -17 34 -51z" />
    <glyph glyph-name="quotesinglbase" unicode="&#x201a;" horiz-adv-x="230" 
d="M163 72l-54 -188c-8 -28 -20 -38 -48 -38h-63c-29 0 -36 10 -31 38l33 188c5 28 16 38 45 38h87c29 0 39 -10 31 -38z" />
    <glyph glyph-name="quotedblleft" unicode="&#x201c;" horiz-adv-x="467" 
d="M78 459l96 219c12 28 26 38 57 38h59c25 0 30 -6 25 -29l-54 -228c-9 -37 -23 -51 -58 -51h-92c-38 0 -49 17 -33 51zM286 459l96 219c12 28 26 38 57 38h59c25 0 30 -6 25 -29l-54 -228c-9 -37 -23 -51 -58 -51h-92c-38 0 -49 17 -33 51z" />
    <glyph glyph-name="quotedblright" unicode="&#x201d;" horiz-adv-x="465" 
d="M300 654l-96 -220c-12 -28 -26 -38 -57 -38h-59c-25 0 -30 6 -25 29l54 229c9 37 23 50 58 50h92c38 0 49 -17 33 -50zM508 654l-96 -220c-12 -28 -26 -38 -57 -38h-59c-25 0 -30 6 -25 29l54 229c9 37 23 50 58 50h92c38 0 49 -17 33 -50z" />
    <glyph glyph-name="quotedblbase" unicode="&#x201e;" horiz-adv-x="466" 
d="M201 129l-96 -219c-12 -28 -26 -38 -57 -38h-60c-24 0 -30 6 -25 29l54 228c9 37 23 51 58 51h92c37 0 49 -17 34 -51zM409 129l-96 -219c-12 -28 -26 -38 -57 -38h-60c-24 0 -30 6 -25 29l54 228c9 37 23 51 58 51h92c37 0 49 -17 34 -51z" />
    <glyph glyph-name="dagger" unicode="&#x2020;" horiz-adv-x="542" 
d="M409 531h112c32 0 42 -11 35 -42l-16 -91c-5 -32 -19 -42 -50 -42h-113l-72 -414c-7 -31 -18 -42 -49 -42h-103c-32 0 -42 11 -35 42l72 414h-112c-32 0 -40 10 -35 42l16 91c7 31 19 42 50 42h113l24 137c7 32 18 43 50 43h102c32 0 40 -11 35 -43z" />
    <glyph glyph-name="daggerdbl" unicode="&#x2021;" horiz-adv-x="564" 
d="M306 711h103c32 0 40 -11 35 -43l-24 -137h112c32 0 40 -11 35 -42l-16 -91c-5 -32 -19 -42 -51 -42h-112l-18 -102h113c32 0 40 -10 35 -42l-16 -91c-5 -31 -18 -42 -50 -42h-112l-24 -137c-7 -31 -18 -42 -50 -42h-102c-32 0 -41 11 -36 42l24 137h-111
c-32 0 -42 11 -35 42l16 91c5 32 17 42 49 42h112l18 102h-112c-32 0 -40 10 -35 42l16 91c7 31 18 42 50 42h112l24 137c5 32 19 43 50 43z" />
    <glyph glyph-name="bullet" unicode="&#x2022;" horiz-adv-x="396" 
d="M176 114c-85 0 -136 65 -121 150c7 43 28 78 61 107c33 28 70 42 113 42s75 -14 98 -42c23 -29 30 -64 23 -107c-7 -42 -28 -77 -61 -106s-71 -44 -113 -44z" />
    <glyph glyph-name="ellipsis" unicode="&#x2026;" horiz-adv-x="798" 
d="M101 190h38c60 0 76 -20 65 -79l-7 -41c-11 -59 -33 -78 -92 -78h-38c-60 0 -77 19 -66 78l8 41c11 59 33 79 92 79zM369 190h38c60 0 76 -20 65 -79l-7 -41c-11 -59 -33 -78 -92 -78h-38c-60 0 -77 19 -66 78l8 41c11 59 33 79 92 79zM637 190h38c60 0 76 -20 65 -79
l-7 -41c-11 -59 -33 -78 -92 -78h-38c-60 0 -77 19 -66 78l8 41c11 59 33 79 92 79z" />
    <glyph glyph-name="perthousand" unicode="&#x2030;" horiz-adv-x="1286" 
d="M72 493l13 76c17 97 91 156 206 156s169 -59 150 -156l-13 -76c-17 -96 -90 -154 -205 -154s-168 58 -151 154zM752 710h96c28 0 33 -19 13 -40l-575 -633c-15 -16 -28 -26 -38 -30c-10 -5 -27 -7 -52 -7h-91c-29 0 -34 21 -13 42l576 633c14 15 26 25 35 29s26 6 49 6z
M295 504l9 56c4 24 -8 36 -35 36c-29 0 -46 -12 -50 -36l-9 -56c-5 -25 7 -37 36 -37c27 0 44 12 49 37zM507 140l13 75c17 99 91 157 206 157s167 -58 151 -157l-14 -75c-17 -97 -90 -155 -205 -155s-170 58 -151 155zM889 140l14 75c17 99 91 157 206 157
s167 -58 151 -157l-14 -75c-17 -97 -90 -155 -205 -155s-169 58 -152 155zM730 150l10 56c4 24 -8 36 -36 36c-29 0 -45 -12 -49 -36l-10 -56c-4 -24 8 -36 36 -36c29 0 45 12 49 36zM1113 150l10 56c4 24 -8 36 -36 36c-29 0 -45 -12 -49 -36l-10 -56c-4 -24 8 -36 36 -36
c29 0 45 12 49 36z" />
    <glyph glyph-name="guilsinglleft" unicode="&#x2039;" horiz-adv-x="375" 
d="M225 265l94 -113c13 -15 10 -31 -8 -48l-65 -58c-17 -17 -33 -17 -48 0l-159 192c-13 16 -10 32 9 48l229 196c18 16 34 16 48 0l46 -53c15 -19 12 -28 -9 -47z" />
    <glyph glyph-name="guilsinglright" unicode="&#x203a;" horiz-adv-x="378" 
d="M177 268l-96 117c-15 17 -13 30 8 47l64 54c19 17 35 17 48 0l162 -200c15 -17 13 -31 -8 -48l-226 -192c-19 -15 -35 -15 -47 0l-50 62c-13 16 -10 32 8 47z" />
    <glyph glyph-name="fraction" unicode="&#x2044;" horiz-adv-x="264" 
d="M-182 42l466 633c21 31 31 35 78 35h96c29 0 36 -17 20 -40l-465 -633c-12 -16 -23 -26 -32 -30c-9 -5 -26 -7 -51 -7h-91c-29 0 -38 19 -21 42z" />
    <glyph glyph-name="zerosuperior" unicode="&#x2070;" horiz-adv-x="385" 
d="M84 560l20 113c16 91 83 141 190 141c104 0 156 -62 141 -155l-20 -113c-16 -92 -83 -143 -190 -143c-104 0 -157 64 -141 157zM278 550l20 117c4 17 -4 26 -23 26s-30 -9 -34 -26l-20 -117c-4 -18 4 -27 24 -27c18 0 29 9 33 27z" />
    <glyph glyph-name="foursuperior" unicode="&#x2074;" horiz-adv-x="397" 
d="M388 587h11c27 0 31 -7 28 -30l-8 -46c-5 -24 -11 -31 -39 -31h-11l-6 -35c-5 -23 -17 -34 -38 -34h-65c-24 0 -30 10 -25 34l6 35h-159c-28 0 -34 10 -29 35l4 31c4 19 11 34 22 43l194 192c21 21 31 25 62 25h51c32 0 39 -8 34 -40zM260 587l11 66l-66 -66h55z" />
    <glyph glyph-name="fivesuperior" unicode="&#x2075;" horiz-adv-x="375" 
d="M191 806h215c23 0 29 -6 25 -29l-7 -45c-4 -24 -11 -29 -36 -29h-139l-7 -25h31c103 0 146 -53 133 -134c-16 -85 -82 -141 -183 -141c-93 0 -139 29 -155 93c-6 24 3 40 26 48l51 18c28 11 40 10 48 -18c5 -20 19 -30 42 -30c25 0 39 12 43 35c3 23 -7 34 -32 34h-119
c-29 0 -36 9 -29 36l45 157c7 23 19 30 48 30z" />
    <glyph glyph-name="sixsuperior" unicode="&#x2076;" horiz-adv-x="385" 
d="M242 670l-3 -13c16 4 33 6 51 6c100 0 143 -43 128 -129c-15 -85 -84 -131 -191 -131c-109 0 -159 57 -142 157l21 115c16 93 82 139 198 139c72 0 118 -23 137 -70c7 -17 1 -30 -20 -39l-60 -28c-16 -8 -28 -6 -35 6c-13 14 -26 21 -40 21c-26 0 -41 -11 -44 -34z
M221 552l-2 -9c-4 -21 5 -31 26 -31s33 8 36 23c3 16 -5 23 -28 23c-7 0 -17 -2 -32 -6z" />
    <glyph glyph-name="sevensuperior" unicode="&#x2077;" horiz-adv-x="342" 
d="M139 806h249c27 0 33 -7 29 -32l-6 -32c-3 -15 -8 -29 -17 -40l-170 -267c-13 -20 -21 -24 -57 -24h-57c-35 0 -38 14 -18 45l151 233h-128c-25 0 -29 7 -25 35l8 47c5 28 13 35 41 35z" />
    <glyph glyph-name="eightsuperior" unicode="&#x2078;" horiz-adv-x="392" 
d="M113 700c13 73 82 115 182 115c103 0 157 -45 145 -113c-6 -35 -25 -62 -57 -82c33 -25 45 -58 37 -97c-14 -80 -79 -120 -196 -120c-119 0 -168 44 -155 113c5 37 30 67 74 92c-27 23 -37 54 -30 92zM306 694c3 13 -3 22 -27 22c-21 0 -32 -7 -34 -21
c-3 -13 9 -21 34 -30c17 9 26 18 27 29zM281 523c3 15 -9 22 -37 34c-21 -10 -32 -21 -35 -33c-3 -13 7 -24 34 -24c23 0 35 8 38 23z" />
    <glyph glyph-name="ninesuperior" unicode="&#x2079;" horiz-adv-x="386" 
d="M277 547l2 13c-21 -4 -38 -6 -51 -6c-100 0 -141 51 -126 135c15 83 78 125 190 125c111 0 159 -53 142 -152l-20 -116c-19 -99 -79 -143 -194 -143c-77 0 -129 28 -146 68c-8 17 -1 31 21 42l59 28c17 8 29 6 36 -6c10 -15 24 -22 42 -22c26 0 41 11 45 34zM297 665l2 9
c4 21 -5 31 -27 31c-21 0 -32 -8 -34 -23c-3 -15 4 -22 27 -22c10 0 21 2 32 5z" />
    <glyph glyph-name="zeroinferior" unicode="&#x2080;" horiz-adv-x="385" 
d="M-10 29l20 113c16 91 83 141 190 141c104 0 157 -63 141 -155l-20 -113c-16 -91 -84 -143 -189 -143s-158 64 -142 157zM184 20l21 116c3 17 -5 26 -24 26s-30 -9 -33 -26l-21 -116c-4 -19 4 -28 24 -28c18 0 29 9 33 28z" />
    <glyph glyph-name="oneinferior" unicode="&#x2081;" horiz-adv-x="295" 
d="M186 275h28c39 0 49 -13 42 -48l-54 -307c-5 -29 -18 -40 -50 -40h-53c-32 0 -40 11 -35 40l34 191l-29 -14c-27 -14 -46 -9 -56 14l-17 39c-9 23 0 40 25 53l116 61c14 7 30 11 49 11z" />
    <glyph glyph-name="twoinferior" unicode="&#x2082;" horiz-adv-x="373" 
d="M13 189c36 63 95 94 178 94c95 0 146 -54 135 -127c-11 -72 -45 -116 -118 -136l-46 -12c-15 -3 -22 -7 -23 -10v-2h116c28 0 35 -8 30 -35l-8 -47c-4 -24 -15 -34 -40 -34h-247c-27 0 -34 9 -30 34l6 33c13 76 41 109 118 134l56 19c28 9 39 17 43 40c3 15 -4 23 -19 23
s-28 -8 -38 -23c-21 -28 -26 -32 -55 -24l-46 18c-25 9 -29 24 -12 55z" />
    <glyph glyph-name="threeinferior" unicode="&#x2083;" horiz-adv-x="380" 
d="M10 191c34 61 95 92 182 92c96 0 148 -46 136 -121c-5 -33 -23 -58 -53 -77c31 -20 42 -52 34 -96c-14 -78 -75 -117 -182 -117c-96 0 -149 32 -158 95c-4 24 4 39 24 46l47 16c32 9 41 6 49 -21c5 -17 22 -26 49 -26c23 0 35 6 36 19c4 16 -2 23 -26 23h-28
c-23 0 -27 5 -23 29l10 50c4 25 8 31 35 31h20c20 0 31 7 34 22c3 13 -6 21 -26 21c-29 0 -49 -9 -61 -27c-16 -25 -24 -31 -55 -20l-34 17c-19 8 -22 23 -10 44z" />
    <glyph glyph-name="fourinferior" unicode="&#x2084;" horiz-adv-x="397" 
d="M294 56h11c28 0 32 -6 28 -29l-8 -47c-5 -24 -11 -31 -39 -31h-11l-6 -34c-4 -25 -14 -35 -38 -35h-65c-24 0 -29 10 -25 35l6 34h-159c-28 0 -34 10 -29 35l4 31c4 18 11 32 22 43l194 193c21 20 31 24 63 24h50c32 0 39 -8 34 -39zM166 56l12 66l-67 -66h55z" />
    <glyph glyph-name="fiveinferior" unicode="&#x2085;" horiz-adv-x="375" 
d="M97 275h215c23 0 29 -6 25 -29l-7 -45c-4 -24 -11 -29 -36 -29h-139l-7 -25h31c103 0 146 -53 133 -134c-16 -85 -82 -141 -183 -141c-93 0 -139 29 -155 93c-6 24 3 40 26 48l51 18c28 11 40 10 48 -18c5 -20 19 -30 42 -30c25 0 39 12 43 35c3 23 -7 34 -32 34h-119
c-29 0 -36 9 -29 36l45 157c7 24 19 30 48 30z" />
    <glyph glyph-name="sixinferior" unicode="&#x2086;" horiz-adv-x="385" 
d="M149 139l-2 -13c16 4 33 6 51 6c100 0 143 -43 128 -128c-16 -87 -84 -132 -192 -132c-111 0 -160 57 -141 157l20 116c17 92 83 138 198 138c72 0 118 -23 137 -70c8 -17 2 -30 -19 -39l-60 -28c-15 -7 -27 -5 -36 6c-11 14 -24 21 -39 21c-26 0 -41 -11 -45 -34z
M129 21l-2 -8c-4 -21 5 -32 26 -32s33 8 35 23c9 24 -26 29 -59 17z" />
    <glyph glyph-name="seveninferior" unicode="&#x2087;" horiz-adv-x="342" 
d="M46 275h249c27 0 33 -7 29 -31l-5 -33c-3 -14 -8 -27 -17 -40l-171 -267c-12 -20 -21 -24 -56 -24h-58c-33 0 -38 14 -17 46l151 232h-128c-27 0 -30 8 -26 35l9 48c4 28 12 34 40 34z" />
    <glyph glyph-name="eightinferior" unicode="&#x2088;" horiz-adv-x="393" 
d="M18 169c13 75 82 116 183 116c103 0 156 -45 145 -113c-7 -35 -26 -63 -58 -83c33 -23 45 -55 38 -96c-14 -81 -80 -121 -197 -121c-119 0 -167 45 -155 113c6 37 31 68 74 92c-26 25 -36 56 -30 92zM212 164c3 15 -7 22 -28 22s-32 -7 -34 -21c-1 -13 10 -21 35 -30
c15 8 24 18 27 29zM187 -7c3 15 -9 22 -37 34c-22 -12 -34 -23 -35 -33c-3 -15 7 -24 34 -24c21 0 34 8 38 23z" />
    <glyph glyph-name="nineinferior" unicode="&#x2089;" horiz-adv-x="386" 
d="M181 17l3 13c-16 -4 -33 -6 -51 -6c-101 0 -142 51 -127 135c15 83 79 125 190 125s160 -53 143 -152l-21 -116c-17 -99 -78 -143 -193 -143c-77 0 -130 27 -147 68c-7 17 1 30 22 41l59 29c15 7 27 5 36 -6c10 -15 24 -22 42 -22c26 0 41 11 44 34zM202 135l2 9
c4 21 -5 31 -27 31c-20 0 -32 -8 -35 -23c-3 -16 6 -23 27 -23c7 0 18 2 33 6z" />
    <glyph glyph-name="Euro" unicode="&#x20ac;" horiz-adv-x="761" 
d="M182 482l3 11c27 151 155 232 339 232c126 0 206 -45 240 -134c11 -27 1 -47 -30 -60l-89 -32c-32 -11 -42 -7 -55 12c-8 8 -25 39 -93 39c-61 0 -106 -23 -113 -63l-2 -5h165c23 0 30 -11 19 -33l-23 -49c-10 -21 -26 -31 -49 -31h-137l-7 -37h127c24 0 30 -9 19 -33
l-23 -49c-10 -21 -27 -31 -51 -31h-83l-1 -7c-8 -41 22 -56 75 -56c45 0 83 15 115 44c19 21 30 25 61 13l92 -38c28 -13 32 -33 12 -62c-59 -85 -156 -128 -292 -128c-187 0 -293 69 -266 221l2 13h-99c-25 0 -30 9 -19 33l23 49c12 24 23 31 50 31h63l7 37h-53
c-25 0 -31 9 -20 32l24 50c11 24 22 31 49 31h20z" />
    <glyph glyph-name="uni20BD" unicode="&#x20bd;" horiz-adv-x="702" 
d="M292 241l-7 -41h254c29 0 36 -10 31 -38l-9 -47c-7 -29 -17 -39 -45 -39h-254l-5 -34c-7 -31 -19 -42 -50 -42h-114c-31 0 -39 11 -34 42l5 34h-35c-29 0 -37 10 -32 39l9 47c5 28 16 38 45 38h36l82 468c7 31 18 42 49 42h291c151 0 227 -97 200 -248
c-25 -148 -127 -221 -282 -221h-135zM345 541l-24 -131h102c47 0 75 22 83 66c8 43 -12 65 -61 65h-100z" />
    <glyph glyph-name="uni2113" unicode="&#x2113;" horiz-adv-x="496" 
d="M133 306l37 212c28 163 130 214 222 214c113 0 159 -68 139 -177c-10 -57 -34 -113 -72 -166c-38 -54 -99 -110 -184 -167l-4 -25c-8 -48 31 -67 80 -33c17 12 30 11 39 -3l49 -73c9 -15 6 -29 -9 -41c-45 -35 -98 -53 -159 -53c-100 0 -160 32 -161 127v5l-12 -6
c-24 -12 -35 -10 -44 10l-30 75c-11 19 -6 35 15 47c32 17 63 35 94 54zM378 556c3 20 -2 30 -13 30c-17 0 -30 -23 -38 -69l-15 -83c36 36 58 77 66 122z" />
    <glyph glyph-name="uni2116" unicode="&#x2116;" horiz-adv-x="1081" 
d="M1094 563l-13 -76c-17 -96 -89 -149 -205 -149c-113 0 -166 65 -149 164l13 75c17 97 89 148 205 148c113 0 166 -63 149 -162zM578 710h105c32 0 42 -11 35 -42l-110 -626c-7 -31 -18 -42 -50 -42h-110c-19 0 -31 7 -38 20l-111 237c-15 31 -25 61 -32 90
c-7 28 -13 67 -20 116h-7c5 -87 4 -157 -13 -258l-29 -163c-5 -31 -18 -42 -50 -42h-105c-32 0 -40 11 -35 42l111 626c5 31 17 42 49 42h114c19 0 32 -7 39 -20l119 -256c14 -31 25 -59 32 -90c3 -16 4 -17 8 -36c2 -9 3 -15 4 -18c0 -5 6 -35 7 -39h9
c-8 57 -12 100 -12 127c-1 27 3 69 11 126l29 164c7 31 18 42 50 42zM873 559l-10 -56c-5 -24 7 -36 36 -36c27 0 44 12 49 36l10 56c4 24 -8 36 -36 36c-29 0 -45 -12 -49 -36zM735 311h274c32 0 40 -11 35 -42l-12 -64c-5 -32 -17 -42 -49 -42h-274c-32 0 -40 10 -35 42
l11 64c5 31 18 42 50 42z" />
    <glyph glyph-name="uni2117" unicode="&#x2117;" horiz-adv-x="778" 
d="M64 350c17 101 67 186 150 256c82 69 173 104 274 104c100 0 179 -35 236 -104c57 -70 76 -155 59 -256s-67 -186 -148 -255c-82 -69 -173 -104 -274 -104s-180 35 -237 105s-77 155 -60 254zM157 350c-13 -75 1 -138 44 -189c42 -52 101 -78 176 -78s142 26 203 78
c60 51 97 114 110 189c13 76 -1 140 -43 191s-101 76 -176 76s-143 -25 -203 -76c-61 -51 -98 -115 -111 -191zM355 534h134c85 0 130 -56 115 -141c-15 -83 -74 -126 -162 -126h-56l-14 -82c-4 -23 -9 -27 -33 -27h-49c-24 0 -28 4 -24 27l57 321c3 23 8 28 32 28zM404 364
h44c26 0 41 12 44 35c5 23 -6 35 -31 35h-45z" />
    <glyph glyph-name="trademark" unicode="&#x2122;" horiz-adv-x="629" 
d="M128 695h187c31 0 35 -4 30 -33l-4 -21c-5 -29 -10 -33 -41 -33h-40l-24 -136c-4 -23 -12 -29 -40 -29h-32c-27 0 -31 5 -28 29l25 136h-48c-24 0 -29 6 -25 27l6 33c3 20 10 27 34 27zM597 695h21c29 0 33 -4 28 -33l-33 -190c-4 -24 -10 -29 -37 -29h-24
c-25 0 -29 5 -25 29l6 33c1 11 3 24 8 39l-13 -18l-11 -13c-9 -11 -23 -17 -40 -17h-10c-15 0 -26 5 -31 15l-8 13c-1 3 -6 11 -7 15c-1 -10 -2 -21 -5 -34l-6 -33c-3 -24 -8 -29 -35 -29h-24c-27 0 -30 5 -26 29l33 190c5 28 12 33 41 33h19c21 0 27 -4 36 -20l36 -85
l65 84c12 14 26 21 42 21z" />
    <glyph glyph-name="Omega" unicode="&#x2126;" horiz-adv-x="814" 
d="M66 394c17 97 64 176 143 238c79 61 171 92 276 92c106 0 187 -31 244 -93s76 -142 59 -241c-17 -97 -65 -167 -146 -212h76c32 0 40 -11 35 -43l-17 -93c-5 -31 -18 -42 -50 -42h-269c-27 0 -36 11 -31 38l14 81c2 13 12 25 29 35c85 44 148 122 164 210
c19 112 -31 191 -139 191c-52 0 -96 -18 -132 -54c-37 -36 -60 -82 -70 -137c-16 -88 16 -168 89 -211c14 -9 19 -20 16 -35l-14 -80c-5 -25 -20 -38 -45 -38h-269c-32 0 -40 11 -35 42l17 93c7 32 18 43 50 43h74c-61 56 -84 128 -69 216z" />
    <glyph glyph-name="estimated" unicode="&#x212e;" horiz-adv-x="796" 
d="M808 355l-4 -24c-3 -17 -13 -25 -31 -25h-521l-30 -169c43 -41 99 -62 166 -62c102 0 190 44 264 133c13 17 19 19 43 19h43c19 0 21 -5 10 -24c-41 -65 -96 -118 -163 -158s-138 -60 -212 -60c-102 0 -183 36 -242 109c-60 72 -81 159 -63 261s70 189 155 262
c85 72 178 108 280 108s183 -36 243 -108c59 -73 80 -160 62 -262zM622 396l31 175c-44 43 -99 64 -166 64s-129 -21 -188 -64l-31 -175h354z" />
    <glyph glyph-name="uni2153" unicode="&#x2153;" horiz-adv-x="934" 
d="M280 715h28c39 0 49 -13 42 -48l-54 -307c-5 -29 -17 -40 -49 -40h-54c-32 0 -40 11 -35 40l34 191l-29 -15c-31 -15 -44 -11 -55 14l-18 40c-8 22 0 40 25 53l116 60c13 8 30 12 49 12zM702 710h72c29 0 37 -17 21 -40l-465 -633c-13 -17 -23 -27 -32 -31s-26 -6 -51 -6
h-67c-29 0 -40 19 -21 42l466 633c21 31 30 35 77 35zM583 310c35 62 96 93 183 93c96 0 148 -48 136 -121c-7 -36 -20 -56 -53 -77c31 -21 42 -53 34 -96c-14 -78 -75 -117 -182 -117c-97 0 -149 32 -158 95c-4 24 4 39 24 46l47 15c32 11 41 6 48 -21c5 -17 22 -26 49 -26
c23 0 35 7 37 20c4 16 -2 23 -26 23h-28c-23 0 -27 5 -23 29l9 50c5 25 11 31 36 31h20c20 0 31 7 34 21c3 15 -6 22 -27 22c-27 0 -47 -9 -60 -28c-16 -25 -24 -30 -55 -19l-34 16c-18 9 -22 24 -11 44z" />
    <glyph glyph-name="uni2154" unicode="&#x2154;" horiz-adv-x="989" 
d="M96 630c37 63 96 94 178 94c95 0 146 -55 135 -128c-11 -71 -46 -115 -118 -135l-46 -12c-15 -3 -22 -7 -23 -10v-2h116c28 0 35 -8 30 -35l-8 -47c-4 -24 -15 -34 -40 -34h-247c-28 0 -34 9 -30 34l6 33c13 76 41 109 118 134l56 18c28 9 39 18 42 41c3 15 -3 23 -18 23
s-27 -8 -38 -23c-21 -28 -26 -32 -55 -24l-47 18c-25 11 -28 24 -11 55zM757 710h72c29 0 37 -17 21 -40l-465 -633c-13 -17 -23 -27 -32 -31s-26 -6 -51 -6h-67c-29 0 -40 19 -21 42l466 633c21 31 30 35 77 35zM636 310c34 62 95 93 182 93c96 0 148 -48 136 -121
c-7 -36 -18 -56 -53 -77c31 -21 42 -53 34 -96c-14 -78 -75 -117 -182 -117c-96 0 -149 32 -158 95c-4 24 4 39 24 46l47 15c32 11 41 6 49 -21c5 -17 22 -26 49 -26c23 0 35 7 36 20c4 16 -2 23 -26 23h-28c-23 0 -27 5 -23 29l10 50c4 25 10 31 35 31h20c20 0 31 7 34 21
c3 15 -6 22 -26 22c-28 0 -48 -9 -61 -28c-16 -25 -24 -30 -55 -19l-34 16c-18 9 -21 24 -10 44z" />
    <glyph glyph-name="oneeighth" unicode="&#x215b;" horiz-adv-x="950" 
d="M280 715h28c39 0 49 -13 42 -48l-54 -307c-5 -29 -17 -40 -49 -40h-54c-32 0 -40 11 -35 40l34 191l-29 -15c-31 -15 -44 -11 -55 14l-18 40c-8 22 0 40 25 53l116 60c13 8 30 12 49 12zM709 710h72c29 0 36 -17 20 -40l-465 -633c-12 -16 -23 -26 -32 -30
c-9 -5 -26 -7 -51 -7h-67c-29 0 -40 19 -21 42l466 633c21 31 31 35 78 35zM591 288c13 75 82 116 183 116c103 0 157 -45 145 -113c-6 -34 -25 -62 -57 -83c32 -23 44 -55 37 -96c-14 -81 -79 -121 -196 -121c-119 0 -168 45 -156 113c6 37 31 67 75 92
c-27 25 -37 55 -31 92zM785 283c3 15 -7 22 -28 22c-19 0 -30 -7 -33 -21c-3 -13 9 -21 34 -30c17 9 26 18 27 29zM760 112c3 15 -9 22 -37 34c-21 -11 -32 -22 -35 -33c-3 -15 7 -24 34 -24c23 0 35 8 38 23z" />
    <glyph glyph-name="threeeighths" unicode="&#x215c;" horiz-adv-x="982" 
d="M91 632c35 62 96 93 183 93c96 0 148 -47 135 -122c-5 -32 -23 -57 -52 -76c31 -21 42 -53 34 -97c-13 -77 -74 -116 -183 -116c-96 0 -149 31 -158 94c-3 24 6 39 25 46l47 16c32 11 41 4 48 -21c5 -17 22 -26 49 -26c23 0 35 6 37 19c3 16 -3 23 -26 23h-28
c-23 0 -27 5 -23 29l9 50c4 25 9 31 36 31h19c21 0 32 7 35 22s-6 21 -27 21c-29 0 -49 -9 -60 -27c-16 -25 -26 -31 -55 -19l-35 16c-17 9 -21 24 -10 44zM745 710h72c29 0 37 -19 20 -40l-465 -633c-12 -17 -22 -27 -31 -31s-27 -6 -52 -6h-67c-29 0 -38 19 -21 42
l466 633c21 31 31 35 78 35zM621 288c13 75 82 116 183 116c103 0 156 -45 145 -113c-7 -35 -26 -63 -58 -83c33 -23 45 -55 38 -96c-14 -81 -80 -121 -197 -121c-119 0 -168 45 -155 113c6 37 31 68 74 92c-26 25 -36 56 -30 92zM815 283c1 13 -4 22 -28 22
c-21 0 -32 -7 -34 -21c-1 -13 10 -21 35 -30c15 8 24 18 27 29zM790 112c1 15 -9 22 -37 34c-22 -11 -34 -22 -35 -33c-3 -15 6 -24 33 -24c22 0 35 8 39 23z" />
    <glyph glyph-name="fiveeighths" unicode="&#x215d;" horiz-adv-x="981" 
d="M179 715h215c23 0 29 -6 25 -29l-7 -45c-4 -24 -11 -29 -36 -29h-139l-7 -25h31c103 0 146 -53 133 -134c-16 -85 -82 -141 -183 -141c-93 0 -139 29 -155 93c-6 24 3 40 26 48l51 18c28 11 40 10 48 -18c5 -20 19 -30 42 -30c25 0 39 12 43 35c3 23 -7 34 -32 34h-119
c-29 0 -36 9 -29 36l45 157c7 23 19 30 48 30zM742 710h72c29 0 36 -17 20 -40l-465 -633c-12 -16 -23 -26 -32 -30c-9 -5 -26 -7 -51 -7h-67c-29 0 -38 19 -21 42l466 633c21 31 31 35 78 35zM624 288c13 75 82 116 183 116c103 0 156 -45 145 -113c-7 -35 -26 -63 -58 -83
c33 -23 45 -55 38 -96c-14 -81 -80 -121 -197 -121c-119 0 -168 45 -155 113c6 37 31 68 74 92c-26 25 -36 56 -30 92zM818 283c1 13 -4 22 -28 22c-21 0 -32 -7 -34 -21c-1 -13 10 -21 35 -30c15 8 24 18 27 29zM793 112c1 15 -9 22 -37 34c-22 -11 -34 -22 -35 -33
c-3 -15 6 -24 33 -24c22 0 35 8 39 23z" />
    <glyph glyph-name="seveneighths" unicode="&#x215e;" horiz-adv-x="920" 
d="M133 714h249c27 0 33 -8 29 -32l-6 -32c-3 -15 -8 -28 -16 -41l-171 -266c-12 -20 -21 -24 -57 -24h-57c-35 0 -38 14 -18 45l151 233h-127c-27 0 -30 7 -26 35l8 47c5 28 14 35 41 35zM663 710h72c29 0 36 -17 20 -40l-465 -633c-12 -16 -23 -26 -32 -30
c-9 -5 -26 -7 -51 -7h-67c-29 0 -40 19 -21 42l466 633c21 31 31 35 78 35zM557 288c13 75 82 116 183 116c103 0 156 -46 144 -113c-6 -34 -25 -62 -57 -83c33 -23 45 -55 37 -96c-14 -81 -79 -121 -196 -121c-119 0 -168 45 -155 113c6 37 31 68 74 92
c-27 25 -37 55 -30 92zM750 283c3 13 -3 22 -27 22c-20 0 -31 -7 -34 -21c-1 -13 10 -21 35 -30c15 9 24 18 26 29zM725 112c3 15 -9 22 -37 34c-21 -12 -33 -23 -34 -33c-3 -15 6 -24 33 -24c23 0 35 8 38 23z" />
    <glyph glyph-name="arrowleft" unicode="&#x2190;" horiz-adv-x="745" 
d="M333 403h383c25 0 32 -10 28 -34l-13 -71c-5 -27 -15 -35 -40 -35h-381l72 -88c13 -17 11 -25 -8 -44l-64 -54c-17 -17 -32 -17 -45 0l-187 226c-18 21 -14 42 11 63l267 226c20 17 32 19 45 0l46 -55c12 -17 11 -27 -8 -44z" />
    </font>
</defs>
</svg>
